<svg id="Layer_1" data-name="Layer 1" xmlns="http://www.w3.org/2000/svg" xmlns:xlink="http://www.w3.org/1999/xlink" viewBox="0 0 238.63 46.22"><defs><style>.cls-1{fill:#ededed;}.cls-2{fill:url(#linear-gradient);}.cls-3{fill:url(#linear-gradient-2);}.cls-4{fill:url(#linear-gradient-3);}</style><linearGradient id="linear-gradient" x1="303.22" y1="-202.42" x2="339.03" y2="-238.24" gradientUnits="userSpaceOnUse"><stop offset="0.01" stop-color="#f69036"/><stop offset="1" stop-color="#f05b69"/></linearGradient><linearGradient id="linear-gradient-2" x1="315.89" y1="-189.76" x2="351.7" y2="-225.57" xlink:href="#linear-gradient"/><linearGradient id="linear-gradient-3" x1="328.56" y1="-177.08" x2="364.37" y2="-212.9" xlink:href="#linear-gradient"/></defs><title>Quartic W</title><path class="cls-1" d="M396.65-192.13v3.57h-13c-7.28,0-12.57-5.15-12.57-12.29s5.29-12.25,12.57-12.25,12.54,5,12.54,11.8a10.66,10.66,0,0,1-6.09,9.91Zm-13,.17a8.47,8.47,0,0,0,8.72-8.82,8.45,8.45,0,0,0-8.72-8.82,8.44,8.44,0,0,0-8.68,8.82A8.46,8.46,0,0,0,383.66-192Z" transform="translate(-302.16 222.25)"/><path class="cls-1" d="M417.16-195.66c0,4.41-3.19,7.42-7.84,7.42s-7.88-3-7.88-7.42v-10.12H405v10.12a4.09,4.09,0,0,0,4.27,4.45,4.12,4.12,0,0,0,4.31-4.45v-10.12h3.57v10.12Z" transform="translate(-302.16 222.25)"/><path class="cls-1" d="M440.41-197.17v8.61h-3.57v-2.38a8.29,8.29,0,0,1-6.34,2.7c-4.83,0-8.37-3.75-8.37-8.93s3.82-8.93,9.14-8.93S440.41-202.35,440.41-197.17Zm-3.57,0a5.49,5.49,0,0,0-5.53-5.81,5.48,5.48,0,0,0-5.5,5.81,5.46,5.46,0,0,0,5.5,5.81A5.47,5.47,0,0,0,436.84-197.17Z" transform="translate(-302.16 222.25)"/><path class="cls-1" d="M445.74-188.56v-10.57c0-4.2,2.87-6.65,7.84-6.65v3c-2.66,0-4.24,1.37-4.24,4v10.26h-3.61Z" transform="translate(-302.16 222.25)"/><path class="cls-1" d="M467-202.77h-3.89v14.22h-3.61v-14.22h-3.19v-3h3.19v-4.45h3.61v4.45H467v3Z" transform="translate(-302.16 222.25)"/><path class="cls-1" d="M473.25-208.34a2.09,2.09,0,0,1-2.28-2.1,2.07,2.07,0,0,1,2.28-2.1,2.09,2.09,0,0,1,2.28,2.1A2.11,2.11,0,0,1,473.25-208.34Zm1.79,2.56v17.23h-3.57v-17.23H475Z" transform="translate(-302.16 222.25)"/><path class="cls-1" d="M489.36-188.24c-5.32,0-9.21-3.75-9.21-8.93s3.89-8.93,9.21-8.93a8.7,8.7,0,0,1,9,7.46h-3.64a5.38,5.38,0,0,0-5.32-4.34,5.49,5.49,0,0,0-5.53,5.81,5.47,5.47,0,0,0,5.53,5.81,5.39,5.39,0,0,0,5.36-4.34h3.61C497.8-191.36,494.05-188.24,489.36-188.24Z" transform="translate(-302.16 222.25)"/><path class="cls-1" d="M508.16-190.73a2.39,2.39,0,0,1-2.56,2.42,2.37,2.37,0,0,1-2.56-2.42,2.37,2.37,0,0,1,2.56-2.42A2.39,2.39,0,0,1,508.16-190.73Z" transform="translate(-302.16 222.25)"/><path class="cls-1" d="M531.2-197.17v8.61h-3.57v-2.38a8.28,8.28,0,0,1-6.34,2.7c-4.83,0-8.37-3.75-8.37-8.93s3.82-8.93,9.14-8.93S531.2-202.35,531.2-197.17Zm-3.57,0A5.49,5.49,0,0,0,522.1-203a5.48,5.48,0,0,0-5.5,5.81,5.46,5.46,0,0,0,5.5,5.81A5.47,5.47,0,0,0,527.63-197.17Z" transform="translate(-302.16 222.25)"/><path class="cls-1" d="M538.52-208.34a2.09,2.09,0,0,1-2.28-2.1,2.07,2.07,0,0,1,2.28-2.1,2.09,2.09,0,0,1,2.28,2.1A2.11,2.11,0,0,1,538.52-208.34Zm1.79,2.56v17.23h-3.57v-17.23h3.57Z" transform="translate(-302.16 222.25)"/><path class="cls-1" d="M343.39-200.87h3.36c1.14,0,1.64-.51,1.64-1.13v-17.76a2.49,2.49,0,0,0-2.49-2.49H328.08a1.13,1.13,0,0,0-1.13,1.13v3.81a16.08,16.08,0,0,0,5,11.37l0.08,0.08A16,16,0,0,0,343.39-200.87Z" transform="translate(-302.16 222.25)"/><path class="cls-2" d="M322.47-222.25h-4.84a15.46,15.46,0,0,0-15.46,15.46V-202a1.13,1.13,0,0,0,1.13,1.13h3.86a16,16,0,0,0,11.31-5l0.08-.08a16.08,16.08,0,0,0,5-11.37v-3.81A1.13,1.13,0,0,0,322.47-222.25Z" transform="translate(-302.16 222.25)"/><path class="cls-3" d="M318.37-192.53a15.67,15.67,0,0,0-11.32-5H303.8c-1.13,0-1.63.51-1.63,1.13v4.9A15.46,15.46,0,0,0,317.62-176h4.84a1.13,1.13,0,0,0,1.13-1.13v-3.77a15.7,15.7,0,0,0-5-11.32Z" transform="translate(-302.16 222.25)"/><path class="cls-4" d="M346.76-197.52H343.5a15.67,15.67,0,0,0-11.32,5l-0.28.28a15.7,15.7,0,0,0-5,11.32v3.77a1.13,1.13,0,0,0,1.13,1.13h4.84a15.46,15.46,0,0,0,15.46-15.46v-4.9C348.39-197,347.89-197.52,346.76-197.52Z" transform="translate(-302.16 222.25)"/></svg>