<?xml version="1.0" encoding="utf-8"?>
<!-- Generator: Adobe Illustrator 19.2.1, SVG Export Plug-In . SVG Version: 6.00 Build 0)  -->
<svg version="1.1" id="Layer_1" xmlns="http://www.w3.org/2000/svg" xmlns:xlink="http://www.w3.org/1999/xlink" x="0px" y="0px"
	 viewBox="0 0 279 202.2" style="enable-background:new 0 0 279 202.2;" xml:space="preserve">
<style type="text/css">
	.st0{fill:url(#XMLID_35_);}
	.st1{fill:#FFFFFF;}
	.st2{opacity:0.3;fill:none;stroke:#F79338;stroke-width:2;stroke-miterlimit:10;enable-background:new    ;}
	.st3{enable-background:new    ;}
	.st4{clip-path:url(#SVGID_2_);}
	.st5{fill:#F79237;}
	.st6{clip-path:url(#SVGID_4_);}
	.st7{clip-path:url(#SVGID_6_);}
	.st8{clip-path:url(#SVGID_8_);}
	.st9{clip-path:url(#SVGID_10_);}
	.st10{clip-path:url(#SVGID_12_);}
	.st11{clip-path:url(#SVGID_14_);}
	.st12{clip-path:url(#SVGID_16_);}
	.st13{clip-path:url(#SVGID_18_);}
	.st14{clip-path:url(#SVGID_20_);}
	.st15{clip-path:url(#SVGID_22_);}
	.st16{clip-path:url(#SVGID_24_);}
	.st17{clip-path:url(#SVGID_26_);}
	.st18{clip-path:url(#SVGID_28_);}
	.st19{clip-path:url(#SVGID_30_);}
	.st20{clip-path:url(#SVGID_32_);}
	.st21{clip-path:url(#SVGID_34_);}
	.st22{clip-path:url(#SVGID_36_);}
	.st23{clip-path:url(#SVGID_38_);}
	.st24{clip-path:url(#SVGID_40_);}
	.st25{clip-path:url(#SVGID_42_);}
	.st26{clip-path:url(#SVGID_44_);}
	.st27{clip-path:url(#SVGID_46_);}
	.st28{clip-path:url(#SVGID_48_);}
	.st29{clip-path:url(#SVGID_50_);}
	.st30{clip-path:url(#SVGID_52_);}
	.st31{clip-path:url(#SVGID_54_);}
	.st32{clip-path:url(#SVGID_56_);}
	.st33{clip-path:url(#SVGID_58_);}
	.st34{clip-path:url(#SVGID_60_);}
	.st35{clip-path:url(#SVGID_62_);}
	.st36{clip-path:url(#SVGID_64_);}
	.st37{clip-path:url(#SVGID_66_);}
	.st38{clip-path:url(#SVGID_68_);}
	.st39{clip-path:url(#SVGID_70_);}
	.st40{clip-path:url(#SVGID_72_);}
	.st41{clip-path:url(#SVGID_74_);}
	.st42{clip-path:url(#SVGID_76_);}
	.st43{clip-path:url(#SVGID_78_);}
	.st44{clip-path:url(#SVGID_80_);}
	.st45{clip-path:url(#SVGID_82_);}
	.st46{clip-path:url(#SVGID_84_);}
	.st47{clip-path:url(#SVGID_86_);}
	.st48{clip-path:url(#SVGID_88_);}
	.st49{clip-path:url(#SVGID_90_);}
	.st50{clip-path:url(#SVGID_92_);}
	.st51{clip-path:url(#SVGID_94_);}
	.st52{clip-path:url(#SVGID_96_);}
	.st53{clip-path:url(#SVGID_98_);}
	.st54{clip-path:url(#SVGID_100_);}
	.st55{clip-path:url(#SVGID_102_);}
	.st56{clip-path:url(#SVGID_104_);}
	.st57{clip-path:url(#SVGID_106_);}
	.st58{clip-path:url(#SVGID_108_);}
	.st59{clip-path:url(#SVGID_110_);}
	.st60{clip-path:url(#SVGID_112_);}
	.st61{clip-path:url(#SVGID_114_);}
	.st62{clip-path:url(#SVGID_116_);}
	.st63{clip-path:url(#SVGID_118_);}
	.st64{fill:#F87D52;}
	.st65{opacity:0.15;fill:#F79237;enable-background:new    ;}
</style>
<g class="background">
	<linearGradient id="XMLID_35_" gradientUnits="userSpaceOnUse" x1="26.2308" y1="117.4514" x2="265.3355" y2="135.4951">
		<stop  offset="0" style="stop-color:#F79237"/>
		<stop  offset="1" style="stop-color:#F87D52"/>
	</linearGradient>
	<path id="XMLID_10654_" class="st0" d="M276.9,84.9v9.5c0,4.2-2.1,8-5.7,10.2l-115,68.3c-10.4,5.9-23,5.9-33.2-0.2L7.5,103.3
		c-3.6-2.1-5.7-5.9-5.7-10.2V83L276.9,84.9z"/>
	<path id="XMLID_10645_" class="st1" d="M4.3,77.3L132.2,4c5.5-3.2,12.5-3.2,18,0.2l123.7,74.4c4,2.5,4,8.5,0,10.8l-121.2,71.9
		c-8.2,4.9-18.4,4.9-26.6-0.2L4.1,86.6C0.7,84.5,0.7,79.4,4.3,77.3z"/>
</g>
<g>
	<polyline id="XMLID_33_" class="st2" points="56.3,66 67.1,72.5 68.3,77.5 	"/>
	<polyline id="XMLID_32_" class="st2" points="60.3,62.3 71.1,68.8 72.9,75.8 	"/>
	<polyline id="XMLID_31_" class="st2" points="62.3,58.7 73.1,65.2 76.2,74.6 83.5,79.5 	"/>
	<polyline id="XMLID_30_" class="st2" points="65.8,55.9 100.2,77.5 112.2,78.7 125.7,70.9 125.7,68.3 130.1,65.8 133.5,66.5 
		139.9,62.8 153.3,63.3 172.3,52.9 180.2,52.9 186.7,49.1 186.7,44.3 	"/>
	<polyline id="XMLID_29_" class="st2" points="68.3,51.9 97.1,69.1 115.9,69.9 139.9,55 	"/>
	<polyline id="XMLID_28_" class="st2" points="84.5,79.5 87.3,81.5 76.2,87.3 76.8,92.6 44.9,110.7 44.9,175.4 	"/>
	<polyline id="XMLID_27_" class="st2" points="172.3,59.4 156.5,68.1 142.6,67.8 115.1,85.4 100.9,84.9 50.2,114 50.2,188.1 	"/>
	<polyline id="XMLID_26_" class="st2" points="179.1,63.5 163.2,72.2 149.4,71.8 121.9,89.5 107.7,89 56.3,117.7 56.3,201.1 	"/>
	<polyline id="XMLID_25_" class="st2" points="72.9,45.9 104.1,65.1 112.5,65.1 118.6,61.8 118.6,58.1 129.9,51.9 	"/>
	<polyline id="XMLID_24_" class="st2" points="79.7,43.3 105.9,59.6 129.9,45.9 	"/>
	<polyline id="XMLID_23_" class="st2" points="84.6,39.6 98.9,48.4 115.5,47.9 130.9,38.7 	"/>
	<polyline id="XMLID_22_" class="st2" points="89.2,37.1 93.7,40.3 110.9,41.1 122.9,35.8 118.8,33.1 	"/>
	<line id="XMLID_21_" class="st2" x1="97" y1="35" x2="111.6" y2="34"/>
	<polyline id="XMLID_20_" class="st2" points="133.1,89.9 114.9,99.7 102.1,99.2 62.3,121.4 62.3,191.9 	"/>
	<polyline id="XMLID_19_" class="st2" points="148.1,59.4 148.1,51.9 157,46.5 171.7,46.5 	"/>
	<line id="XMLID_18_" class="st2" x1="136" y1="49.1" x2="145.4" y2="44.3"/>
	<polyline id="XMLID_17_" class="st2" points="126.7,100.3 147,88.1 174.5,89.9 193.7,78.7 	"/>
	<polyline id="XMLID_16_" class="st2" points="138.1,88.3 137.6,84.2 150.5,75.8 177.9,75.8 197.7,65.1 	"/>
	<polyline id="XMLID_15_" class="st2" points="134.7,103.6 151.3,93.9 175.3,95.4 204.2,79.6 208.2,82.8 208.2,86.8 	"/>
	<polyline id="XMLID_14_" class="st2" points="203.3,76 203.3,67 210.7,62.4 210.2,56.6 	"/>
	<polyline id="XMLID_13_" class="st2" points="142.9,106.1 154.9,98.2 174.9,99.1 175.7,105.2 	"/>
	<line id="XMLID_12_" class="st2" x1="153.2" y1="104.4" x2="167.7" y2="104.8"/>
	<polyline id="XMLID_11_" class="st2" points="181.1,106.9 180.2,98.2 185.1,95.4 207,96.2 	"/>
	<polyline id="XMLID_10_" class="st2" points="194.2,92.2 208.2,92.2 221.5,84.2 220,69.9 225.1,66.8 	"/>
	<polyline id="XMLID_9_" class="st2" points="215.4,84.2 214.4,74.7 208.2,70.7 218.9,63.1 	"/>
	<polyline id="XMLID_8_" class="st2" points="186.2,103.1 194,103.8 196.9,101.8 205.4,102.2 	"/>
	<polyline id="XMLID_7_" class="st2" points="196.1,112.7 207,106.2 218,104.4 218.9,91.5 227.6,85.8 227,72.4 	"/>
	<polyline id="XMLID_6_" class="st2" points="204.9,114.9 213,110 227.6,109.3 	"/>
	<line id="XMLID_5_" class="st2" x1="237.2" y1="93.1" x2="222.7" y2="101.1"/>
	<line id="XMLID_4_" class="st2" x1="231.9" y1="79.5" x2="232.3" y2="90"/>
	<polyline id="XMLID_3_" class="st2" points="141,37.8 157,39.4 164.1,36.2 	"/>
	<line id="XMLID_2_" class="st2" x1="171.5" y1="38.5" x2="164.1" y2="43.3"/>
	<line id="XMLID_1_" class="st2" x1="151.6" y1="81.6" x2="175.5" y2="81.6"/>
</g>
<g class="opacityy">
	<g id="XMLID_17477_">
		<g>
			<g class="st3">
				<g>
					<g>
						<defs>
							<polygon id="SVGID_1_" points="63,55.7 65.3,54.4 67.6,55.7 65.3,57 							"/>
						</defs>
						<clipPath id="SVGID_2_">
							<use xlink:href="#SVGID_1_"  style="overflow:visible;"/>
						</clipPath>
						<g class="st4">
							<g>
								<g>
									<g>
										<polyline class="st5" points="67.6,55.7 65.3,54.4 63,55.7 65.3,57 67.6,55.7 										"/>
									</g>
								</g>
							</g>
						</g>
					</g>
				</g>
			</g>
		</g>
	</g>
	<g id="XMLID_17467_">
		<g>
			<g class="st3">
				<g>
					<g>
						<defs>
							<polygon id="SVGID_3_" points="57.4,61.8 59.7,60.5 61.9,61.8 59.7,63.2 							"/>
						</defs>
						<clipPath id="SVGID_4_">
							<use xlink:href="#SVGID_3_"  style="overflow:visible;"/>
						</clipPath>
						<g class="st6">
							<g>
								<g>
									<g>
										<polyline class="st5" points="61.9,61.8 59.7,60.5 57.4,61.8 59.7,63.2 61.9,61.8 										"/>
									</g>
								</g>
							</g>
						</g>
					</g>
				</g>
			</g>
		</g>
	</g>
	<g id="XMLID_17457_">
		<g>
			<g class="st3">
				<g>
					<g>
						<defs>
							<polygon id="SVGID_5_" points="65.9,51.9 68.1,50.6 70.4,51.9 68.2,53.2 							"/>
						</defs>
						<clipPath id="SVGID_6_">
							<use xlink:href="#SVGID_5_"  style="overflow:visible;"/>
						</clipPath>
						<g class="st7">
							<g>
								<g>
									<g>
										<polyline class="st5" points="70.4,51.9 68.1,50.6 65.9,51.9 68.2,53.2 70.4,51.9 										"/>
									</g>
								</g>
							</g>
						</g>
					</g>
				</g>
			</g>
		</g>
	</g>
	<g id="XMLID_17455_">
		<g>
			<g class="st3">
				<g>
					<g>
						<defs>
							<polygon id="SVGID_7_" points="137.2,55 139.5,53.7 141.8,55 139.5,56.3 							"/>
						</defs>
						<clipPath id="SVGID_8_">
							<use xlink:href="#SVGID_7_"  style="overflow:visible;"/>
						</clipPath>
						<g class="st8">
							<g>
								<g>
									<g>
										<polyline class="st5" points="141.8,55 139.5,53.7 137.2,55 139.5,56.3 141.8,55 										"/>
									</g>
								</g>
							</g>
						</g>
					</g>
				</g>
			</g>
		</g>
	</g>
	<g id="XMLID_17445_">
		<g>
			<g class="st3">
				<g>
					<g>
						<defs>
							<polygon id="SVGID_9_" points="94,68.4 96.2,67.1 98.5,68.4 96.2,69.8 							"/>
						</defs>
						<clipPath id="SVGID_10_">
							<use xlink:href="#SVGID_9_"  style="overflow:visible;"/>
						</clipPath>
						<g class="st9">
							<g>
								<g>
									<g>
										<polyline class="st5" points="98.5,68.4 96.2,67.1 94,68.4 96.2,69.8 98.5,68.4 										"/>
									</g>
								</g>
							</g>
						</g>
					</g>
				</g>
			</g>
		</g>
	</g>
	<g id="XMLID_17435_">
		<g>
			<g class="st3">
				<g>
					<g>
						<defs>
							<polygon id="SVGID_11_" points="81.7,79.5 83.9,78.2 86.2,79.5 84,80.8 							"/>
						</defs>
						<clipPath id="SVGID_12_">
							<use xlink:href="#SVGID_11_"  style="overflow:visible;"/>
						</clipPath>
						<g class="st10">
							<g>
								<g>
									<g>
										<polyline class="st5" points="86.2,79.5 83.9,78.2 81.7,79.5 84,80.8 86.2,79.5 										"/>
									</g>
								</g>
							</g>
						</g>
					</g>
				</g>
			</g>
		</g>
	</g>
	<g id="XMLID_17425_">
		<g>
			<g class="st3">
				<g>
					<g>
						<defs>
							<polygon id="SVGID_13_" points="127.4,51.8 129.7,50.5 132,51.8 129.7,53.1 							"/>
						</defs>
						<clipPath id="SVGID_14_">
							<use xlink:href="#SVGID_13_"  style="overflow:visible;"/>
						</clipPath>
						<g class="st11">
							<g>
								<g>
									<g>
										<polyline class="st5" points="132,51.8 129.7,50.5 127.4,51.8 129.7,53.1 132,51.8 										"/>
									</g>
								</g>
							</g>
						</g>
					</g>
				</g>
			</g>
		</g>
	</g>
	<g id="XMLID_17415_">
		<g>
			<g class="st3">
				<g>
					<g>
						<defs>
							<polygon id="SVGID_15_" points="71.4,46.5 73.7,45.1 76,46.5 73.7,47.8 							"/>
						</defs>
						<clipPath id="SVGID_16_">
							<use xlink:href="#SVGID_15_"  style="overflow:visible;"/>
						</clipPath>
						<g class="st12">
							<g>
								<g>
									<g>
										<polyline class="st5" points="76,46.5 73.7,45.1 71.4,46.5 73.7,47.8 76,46.5 										"/>
									</g>
								</g>
							</g>
						</g>
					</g>
				</g>
			</g>
		</g>
	</g>
	<g id="XMLID_17405_">
		<g>
			<g class="st3">
				<g>
					<g>
						<defs>
							<polygon id="SVGID_17_" points="77.3,43.3 79.6,42 81.9,43.3 79.6,44.6 							"/>
						</defs>
						<clipPath id="SVGID_18_">
							<use xlink:href="#SVGID_17_"  style="overflow:visible;"/>
						</clipPath>
						<g class="st13">
							<g>
								<g>
									<g>
										<polyline class="st5" points="81.9,43.3 79.6,42 77.3,43.3 79.6,44.6 81.9,43.3 										"/>
									</g>
								</g>
							</g>
						</g>
					</g>
				</g>
			</g>
		</g>
	</g>
	<g id="XMLID_17395_">
		<g>
			<g class="st3">
				<g>
					<g>
						<defs>
							<polygon id="SVGID_19_" points="127.4,45.9 129.7,44.6 132,45.9 129.7,47.2 							"/>
						</defs>
						<clipPath id="SVGID_20_">
							<use xlink:href="#SVGID_19_"  style="overflow:visible;"/>
						</clipPath>
						<g class="st14">
							<g>
								<g>
									<g>
										<polyline class="st5" points="132,45.9 129.7,44.6 127.4,45.9 129.7,47.2 132,45.9 										"/>
									</g>
								</g>
							</g>
						</g>
					</g>
				</g>
			</g>
		</g>
	</g>
	<g id="XMLID_17385_">
		<g>
			<g class="st3">
				<g>
					<g>
						<defs>
							<polygon id="SVGID_21_" points="142.9,43.6 145.2,42.2 147.5,43.6 145.2,44.9 							"/>
						</defs>
						<clipPath id="SVGID_22_">
							<use xlink:href="#SVGID_21_"  style="overflow:visible;"/>
						</clipPath>
						<g class="st15">
							<g>
								<g>
									<g>
										<polyline class="st5" points="147.5,43.6 145.2,42.2 142.9,43.6 145.2,44.9 147.5,43.6 										"/>
									</g>
								</g>
							</g>
						</g>
					</g>
				</g>
			</g>
		</g>
	</g>
	<g id="XMLID_17375_">
		<g>
			<g class="st3">
				<g>
					<g>
						<defs>
							<polygon id="SVGID_23_" points="168.3,38.7 170.6,37.4 172.8,38.7 170.6,40 							"/>
						</defs>
						<clipPath id="SVGID_24_">
							<use xlink:href="#SVGID_23_"  style="overflow:visible;"/>
						</clipPath>
						<g class="st16">
							<g>
								<g>
									<g>
										<polyline class="st5" points="172.8,38.7 170.6,37.4 168.3,38.7 170.6,40 172.8,38.7 										"/>
									</g>
								</g>
							</g>
						</g>
					</g>
				</g>
			</g>
		</g>
	</g>
	<g id="XMLID_17365_">
		<g>
			<g class="st3">
				<g>
					<g>
						<defs>
							<polygon id="SVGID_25_" points="130.7,89.9 132.9,88.6 135.2,89.9 132.9,91.2 							"/>
						</defs>
						<clipPath id="SVGID_26_">
							<use xlink:href="#SVGID_25_"  style="overflow:visible;"/>
						</clipPath>
						<g class="st17">
							<g>
								<g>
									<g>
										<polyline class="st5" points="135.2,89.9 132.9,88.6 130.7,89.9 132.9,91.2 135.2,89.9 										"/>
									</g>
								</g>
							</g>
						</g>
					</g>
				</g>
			</g>
		</g>
	</g>
	<g id="XMLID_17355_">
		<g>
			<g class="st3">
				<g>
					<g>
						<defs>
							<polygon id="SVGID_27_" points="177.1,63.5 179.3,62.1 181.6,63.5 179.3,64.8 							"/>
						</defs>
						<clipPath id="SVGID_28_">
							<use xlink:href="#SVGID_27_"  style="overflow:visible;"/>
						</clipPath>
						<g class="st18">
							<g>
								<g>
									<g>
										<polyline class="st5" points="181.6,63.5 179.3,62.1 177.1,63.5 179.3,64.8 181.6,63.5 										"/>
									</g>
								</g>
							</g>
						</g>
					</g>
				</g>
			</g>
		</g>
	</g>
	<g id="XMLID_17345_">
		<g>
			<g class="st3">
				<g>
					<g>
						<defs>
							<polygon id="SVGID_29_" points="173.3,81.6 175.6,80.3 177.9,81.6 175.6,82.9 							"/>
						</defs>
						<clipPath id="SVGID_30_">
							<use xlink:href="#SVGID_29_"  style="overflow:visible;"/>
						</clipPath>
						<g class="st19">
							<g>
								<g>
									<g>
										<polyline class="st5" points="177.9,81.6 175.6,80.3 173.3,81.6 175.6,82.9 177.9,81.6 										"/>
									</g>
								</g>
							</g>
						</g>
					</g>
				</g>
			</g>
		</g>
	</g>
	<g id="XMLID_17335_">
		<g>
			<g class="st3">
				<g>
					<g>
						<defs>
							<polygon id="SVGID_31_" points="150.1,81.6 152.4,80.3 154.7,81.6 152.4,82.9 							"/>
						</defs>
						<clipPath id="SVGID_32_">
							<use xlink:href="#SVGID_31_"  style="overflow:visible;"/>
						</clipPath>
						<g class="st20">
							<g>
								<g>
									<g>
										<polyline class="st5" points="154.7,81.6 152.4,80.3 150.1,81.6 152.4,82.9 154.7,81.6 										"/>
									</g>
								</g>
							</g>
						</g>
					</g>
				</g>
			</g>
		</g>
	</g>
	<g id="XMLID_17325_">
		<g>
			<g class="st3">
				<g>
					<g>
						<defs>
							<polygon id="SVGID_33_" points="195.3,64.3 197.6,63 199.9,64.4 197.6,65.7 							"/>
						</defs>
						<clipPath id="SVGID_34_">
							<use xlink:href="#SVGID_33_"  style="overflow:visible;"/>
						</clipPath>
						<g class="st21">
							<g>
								<g>
									<g>
										<polyline class="st5" points="199.9,64.4 197.6,63 195.3,64.3 197.6,65.7 199.9,64.4 										"/>
									</g>
								</g>
							</g>
						</g>
					</g>
				</g>
			</g>
		</g>
	</g>
	<g id="XMLID_17315_">
		<g>
			<g class="st3">
				<g>
					<g>
						<defs>
							<polygon id="SVGID_35_" points="208.2,57.6 210.5,56.3 212.8,57.6 210.5,58.9 							"/>
						</defs>
						<clipPath id="SVGID_36_">
							<use xlink:href="#SVGID_35_"  style="overflow:visible;"/>
						</clipPath>
						<g class="st22">
							<g>
								<g>
									<g>
										<polyline class="st5" points="212.8,57.6 210.5,56.3 208.2,57.6 210.5,58.9 212.8,57.6 										"/>
									</g>
								</g>
							</g>
						</g>
					</g>
				</g>
			</g>
		</g>
	</g>
	<g id="XMLID_17305_">
		<g>
			<g class="st3">
				<g>
					<g>
						<defs>
							<polygon id="SVGID_37_" points="221.9,66.8 224.1,65.5 226.4,66.8 224.1,68.1 							"/>
						</defs>
						<clipPath id="SVGID_38_">
							<use xlink:href="#SVGID_37_"  style="overflow:visible;"/>
						</clipPath>
						<g class="st23">
							<g>
								<g>
									<g>
										<polyline class="st5" points="226.4,66.8 224.1,65.5 221.9,66.8 224.1,68.1 226.4,66.8 										"/>
									</g>
								</g>
							</g>
						</g>
					</g>
				</g>
			</g>
		</g>
	</g>
	<g id="XMLID_17295_">
		<g>
			<g class="st3">
				<g>
					<g>
						<defs>
							<polygon id="SVGID_39_" points="229.4,90 231.7,88.7 234,90 231.7,91.3 							"/>
						</defs>
						<clipPath id="SVGID_40_">
							<use xlink:href="#SVGID_39_"  style="overflow:visible;"/>
						</clipPath>
						<g class="st24">
							<g>
								<g>
									<g>
										<polyline class="st5" points="234,90 231.7,88.7 229.4,90 231.7,91.3 234,90 										"/>
									</g>
								</g>
							</g>
						</g>
					</g>
				</g>
			</g>
		</g>
	</g>
	<g id="XMLID_17285_">
		<g>
			<g class="st3">
				<g>
					<g>
						<defs>
							<polygon id="SVGID_41_" points="224.7,72.4 227,71.1 229.3,72.4 227,73.7 							"/>
						</defs>
						<clipPath id="SVGID_42_">
							<use xlink:href="#SVGID_41_"  style="overflow:visible;"/>
						</clipPath>
						<g class="st25">
							<g>
								<g>
									<g>
										<polyline class="st5" points="229.3,72.4 227,71.1 224.7,72.4 227,73.7 229.3,72.4 										"/>
									</g>
								</g>
							</g>
						</g>
					</g>
				</g>
			</g>
		</g>
	</g>
	<g id="XMLID_17275_">
		<g>
			<g class="st3">
				<g>
					<g>
						<defs>
							<polygon id="SVGID_43_" points="229.9,79.5 232.1,78.2 234.4,79.5 232.1,80.8 							"/>
						</defs>
						<clipPath id="SVGID_44_">
							<use xlink:href="#SVGID_43_"  style="overflow:visible;"/>
						</clipPath>
						<g class="st26">
							<g>
								<g>
									<g>
										<polyline class="st5" points="234.4,79.5 232.1,78.2 229.9,79.5 232.1,80.8 234.4,79.5 										"/>
									</g>
								</g>
							</g>
						</g>
					</g>
				</g>
			</g>
		</g>
	</g>
	<g id="XMLID_17265_">
		<g>
			<g class="st3">
				<g>
					<g>
						<defs>
							<polygon id="SVGID_45_" points="234.4,93.1 236.6,91.8 238.9,93.1 236.7,94.5 							"/>
						</defs>
						<clipPath id="SVGID_46_">
							<use xlink:href="#SVGID_45_"  style="overflow:visible;"/>
						</clipPath>
						<g class="st27">
							<g>
								<g>
									<g>
										<polyline class="st5" points="238.9,93.1 236.6,91.8 234.4,93.1 236.7,94.5 238.9,93.1 										"/>
									</g>
								</g>
							</g>
						</g>
					</g>
				</g>
			</g>
		</g>
	</g>
	<g id="XMLID_17255_">
		<g>
			<g class="st3">
				<g>
					<g>
						<defs>
							<polygon id="SVGID_47_" points="220.3,101.1 222.5,99.8 224.8,101.1 222.5,102.5 							"/>
						</defs>
						<clipPath id="SVGID_48_">
							<use xlink:href="#SVGID_47_"  style="overflow:visible;"/>
						</clipPath>
						<g class="st28">
							<g>
								<g>
									<g>
										<polyline class="st5" points="224.8,101.1 222.5,99.8 220.3,101.1 222.5,102.5 224.8,101.1 										"/>
									</g>
								</g>
							</g>
						</g>
					</g>
				</g>
			</g>
		</g>
	</g>
	<g id="XMLID_17245_">
		<g>
			<g class="st3">
				<g>
					<g>
						<defs>
							<polygon id="SVGID_49_" points="193.7,112.3 196,111 198.3,112.3 196,113.7 							"/>
						</defs>
						<clipPath id="SVGID_50_">
							<use xlink:href="#SVGID_49_"  style="overflow:visible;"/>
						</clipPath>
						<g class="st29">
							<g>
								<g>
									<g>
										<polyline class="st5" points="198.3,112.3 196,111 193.7,112.3 196,113.7 198.3,112.3 										"/>
									</g>
								</g>
							</g>
						</g>
					</g>
				</g>
			</g>
		</g>
	</g>
	<g id="XMLID_17235_">
		<g>
			<g class="st3">
				<g>
					<g>
						<defs>
							<polygon id="SVGID_51_" points="225.6,109.3 227.9,108 230.2,109.3 227.9,110.6 							"/>
						</defs>
						<clipPath id="SVGID_52_">
							<use xlink:href="#SVGID_51_"  style="overflow:visible;"/>
						</clipPath>
						<g class="st30">
							<g>
								<g>
									<g>
										<polyline class="st5" points="230.2,109.3 227.9,108 225.6,109.3 227.9,110.6 230.2,109.3 										"/>
									</g>
								</g>
							</g>
						</g>
					</g>
				</g>
			</g>
		</g>
	</g>
	<g id="XMLID_17225_">
		<g>
			<g class="st3">
				<g>
					<g>
						<defs>
							<polygon id="SVGID_53_" points="202.6,114.9 204.9,113.6 207.1,114.9 204.9,116.2 							"/>
						</defs>
						<clipPath id="SVGID_54_">
							<use xlink:href="#SVGID_53_"  style="overflow:visible;"/>
						</clipPath>
						<g class="st31">
							<g>
								<g>
									<g>
										<polyline class="st5" points="207.1,114.9 204.9,113.6 202.6,114.9 204.9,116.2 207.1,114.9 										"/>
									</g>
								</g>
							</g>
						</g>
					</g>
				</g>
			</g>
		</g>
	</g>
	<g id="XMLID_17215_">
		<g>
			<g class="st3">
				<g>
					<g>
						<defs>
							<polygon id="SVGID_55_" points="216.4,63.5 218.7,62.1 221,63.5 218.7,64.8 							"/>
						</defs>
						<clipPath id="SVGID_56_">
							<use xlink:href="#SVGID_55_"  style="overflow:visible;"/>
						</clipPath>
						<g class="st32">
							<g>
								<g>
									<g>
										<polyline class="st5" points="221,63.5 218.7,62.1 216.4,63.5 218.7,64.8 221,63.5 										"/>
									</g>
								</g>
							</g>
						</g>
					</g>
				</g>
			</g>
		</g>
	</g>
	<g id="XMLID_17205_">
		<g>
			<g class="st3">
				<g>
					<g>
						<defs>
							<polygon id="SVGID_57_" points="212.7,83.2 215,81.9 217.3,83.2 215,84.5 							"/>
						</defs>
						<clipPath id="SVGID_58_">
							<use xlink:href="#SVGID_57_"  style="overflow:visible;"/>
						</clipPath>
						<g class="st33">
							<g>
								<g>
									<g>
										<polyline class="st5" points="217.3,83.2 215,81.9 212.7,83.2 215,84.5 217.3,83.2 										"/>
									</g>
								</g>
							</g>
						</g>
					</g>
				</g>
			</g>
		</g>
	</g>
	<g id="XMLID_17195_">
		<g>
			<g class="st3">
				<g>
					<g>
						<defs>
							<polygon id="SVGID_59_" points="192.1,92.2 194.4,90.9 196.6,92.2 194.4,93.5 							"/>
						</defs>
						<clipPath id="SVGID_60_">
							<use xlink:href="#SVGID_59_"  style="overflow:visible;"/>
						</clipPath>
						<g class="st34">
							<g>
								<g>
									<g>
										<polyline class="st5" points="196.6,92.2 194.4,90.9 192.1,92.2 194.4,93.5 196.6,92.2 										"/>
									</g>
								</g>
							</g>
						</g>
					</g>
				</g>
			</g>
		</g>
	</g>
	<g id="XMLID_17185_">
		<g>
			<g class="st3">
				<g>
					<g>
						<defs>
							<polygon id="SVGID_61_" points="205.8,85.8 208.1,84.5 210.4,85.8 208.1,87.2 							"/>
						</defs>
						<clipPath id="SVGID_62_">
							<use xlink:href="#SVGID_61_"  style="overflow:visible;"/>
						</clipPath>
						<g class="st35">
							<g>
								<g>
									<g>
										<polyline class="st5" points="210.4,85.8 208.1,84.5 205.8,85.8 208.1,87.2 210.4,85.8 										"/>
									</g>
								</g>
							</g>
						</g>
					</g>
				</g>
			</g>
		</g>
	</g>
	<g id="XMLID_17175_">
		<g>
			<g class="st3">
				<g>
					<g>
						<defs>
							<polygon id="SVGID_63_" points="200.9,76.3 203.2,75 205.4,76.3 203.2,77.7 							"/>
						</defs>
						<clipPath id="SVGID_64_">
							<use xlink:href="#SVGID_63_"  style="overflow:visible;"/>
						</clipPath>
						<g class="st36">
							<g>
								<g>
									<g>
										<polyline class="st5" points="205.4,76.3 203.2,75 200.9,76.3 203.2,77.7 205.4,76.3 										"/>
									</g>
								</g>
							</g>
						</g>
					</g>
				</g>
			</g>
		</g>
	</g>
	<g id="XMLID_17165_">
		<g>
			<g class="st3">
				<g>
					<g>
						<defs>
							<polygon id="SVGID_65_" points="140.8,106.1 143.1,104.7 145.4,106.1 143.1,107.4 							"/>
						</defs>
						<clipPath id="SVGID_66_">
							<use xlink:href="#SVGID_65_"  style="overflow:visible;"/>
						</clipPath>
						<g class="st37">
							<g>
								<g>
									<g>
										<polyline class="st5" points="145.4,106.1 143.1,104.7 140.8,106.1 143.1,107.4 145.4,106.1 										"/>
									</g>
								</g>
							</g>
						</g>
					</g>
				</g>
			</g>
		</g>
	</g>
	<g id="XMLID_17155_">
		<g>
			<g class="st3">
				<g>
					<g>
						<defs>
							<polygon id="SVGID_67_" points="173.1,105.2 175.4,103.9 177.7,105.2 175.4,106.6 							"/>
						</defs>
						<clipPath id="SVGID_68_">
							<use xlink:href="#SVGID_67_"  style="overflow:visible;"/>
						</clipPath>
						<g class="st38">
							<g>
								<g>
									<g>
										<polyline class="st5" points="177.7,105.2 175.4,103.9 173.1,105.2 175.4,106.6 177.7,105.2 										"/>
									</g>
								</g>
							</g>
						</g>
					</g>
				</g>
			</g>
		</g>
	</g>
	<g id="XMLID_17145_">
		<g>
			<g class="st3">
				<g>
					<g>
						<defs>
							<polygon id="SVGID_69_" points="204.6,96 206.8,94.7 209.1,96 206.8,97.3 							"/>
						</defs>
						<clipPath id="SVGID_70_">
							<use xlink:href="#SVGID_69_"  style="overflow:visible;"/>
						</clipPath>
						<g class="st39">
							<g>
								<g>
									<g>
										<polyline class="st5" points="209.1,96 206.8,94.7 204.6,96 206.8,97.3 209.1,96 										"/>
									</g>
								</g>
							</g>
						</g>
					</g>
				</g>
			</g>
		</g>
	</g>
	<g id="XMLID_17135_">
		<g>
			<g class="st3">
				<g>
					<g>
						<defs>
							<polygon id="SVGID_71_" points="204.2,102.1 206.5,100.8 208.8,102.1 206.5,103.5 							"/>
						</defs>
						<clipPath id="SVGID_72_">
							<use xlink:href="#SVGID_71_"  style="overflow:visible;"/>
						</clipPath>
						<g class="st40">
							<g>
								<g>
									<g>
										<polyline class="st5" points="208.8,102.1 206.5,100.8 204.2,102.1 206.5,103.5 208.8,102.1 										"/>
									</g>
								</g>
							</g>
						</g>
					</g>
				</g>
			</g>
		</g>
	</g>
	<g id="XMLID_17125_">
		<g>
			<g class="st3">
				<g>
					<g>
						<defs>
							<polygon id="SVGID_73_" points="183.8,103 186.1,101.7 188.3,103 186.1,104.3 							"/>
						</defs>
						<clipPath id="SVGID_74_">
							<use xlink:href="#SVGID_73_"  style="overflow:visible;"/>
						</clipPath>
						<g class="st41">
							<g>
								<g>
									<g>
										<polyline class="st5" points="188.3,103 186.1,101.7 183.8,103 186.1,104.3 188.3,103 										"/>
									</g>
								</g>
							</g>
						</g>
					</g>
				</g>
			</g>
		</g>
	</g>
	<g id="XMLID_17115_">
		<g>
			<g class="st3">
				<g>
					<g>
						<defs>
							<polygon id="SVGID_75_" points="178.7,107.7 180.9,106.3 183.2,107.7 180.9,109 							"/>
						</defs>
						<clipPath id="SVGID_76_">
							<use xlink:href="#SVGID_75_"  style="overflow:visible;"/>
						</clipPath>
						<g class="st42">
							<g>
								<g>
									<g>
										<polyline class="st5" points="183.2,107.7 180.9,106.3 178.7,107.7 180.9,109 183.2,107.7 										"/>
									</g>
								</g>
							</g>
						</g>
					</g>
				</g>
			</g>
		</g>
	</g>
	<g id="XMLID_17105_">
		<g>
			<g class="st3">
				<g>
					<g>
						<defs>
							<polygon id="SVGID_77_" points="150.8,104.4 153.1,103.1 155.4,104.4 153.1,105.8 							"/>
						</defs>
						<clipPath id="SVGID_78_">
							<use xlink:href="#SVGID_77_"  style="overflow:visible;"/>
						</clipPath>
						<g class="st43">
							<g>
								<g>
									<g>
										<polyline class="st5" points="155.4,104.4 153.1,103.1 150.8,104.4 153.1,105.8 155.4,104.4 										"/>
									</g>
								</g>
							</g>
						</g>
					</g>
				</g>
			</g>
		</g>
	</g>
	<g id="XMLID_17095_">
		<g>
			<g class="st3">
				<g>
					<g>
						<defs>
							<polygon id="SVGID_79_" points="165.2,104.6 167.5,103.3 169.8,104.6 167.5,105.9 							"/>
						</defs>
						<clipPath id="SVGID_80_">
							<use xlink:href="#SVGID_79_"  style="overflow:visible;"/>
						</clipPath>
						<g class="st44">
							<g>
								<g>
									<g>
										<polyline class="st5" points="169.8,104.6 167.5,103.3 165.2,104.6 167.5,105.9 169.8,104.6 										"/>
									</g>
								</g>
							</g>
						</g>
					</g>
				</g>
			</g>
		</g>
	</g>
	<g id="XMLID_17085_">
		<g>
			<g class="st3">
				<g>
					<g>
						<defs>
							<polygon id="SVGID_81_" points="192.1,77.9 194.4,76.6 196.6,77.9 194.4,79.3 							"/>
						</defs>
						<clipPath id="SVGID_82_">
							<use xlink:href="#SVGID_81_"  style="overflow:visible;"/>
						</clipPath>
						<g class="st45">
							<g>
								<g>
									<g>
										<polyline class="st5" points="196.6,77.9 194.4,76.6 192.1,77.9 194.4,79.3 196.6,77.9 										"/>
									</g>
								</g>
							</g>
						</g>
					</g>
				</g>
			</g>
		</g>
	</g>
	<g id="XMLID_17075_">
		<g>
			<g class="st3">
				<g>
					<g>
						<defs>
							<polygon id="SVGID_83_" points="132.7,103.6 135,102.3 137.3,103.6 135,105 							"/>
						</defs>
						<clipPath id="SVGID_84_">
							<use xlink:href="#SVGID_83_"  style="overflow:visible;"/>
						</clipPath>
						<g class="st46">
							<g>
								<g>
									<g>
										<polyline class="st5" points="137.3,103.6 135,102.3 132.7,103.6 135,105 137.3,103.6 										"/>
									</g>
								</g>
							</g>
						</g>
					</g>
				</g>
			</g>
		</g>
	</g>
	<g id="XMLID_17065_">
		<g>
			<g class="st3">
				<g>
					<g>
						<defs>
							<polygon id="SVGID_85_" points="124.8,100.3 127.1,99 129.4,100.3 127.1,101.6 							"/>
						</defs>
						<clipPath id="SVGID_86_">
							<use xlink:href="#SVGID_85_"  style="overflow:visible;"/>
						</clipPath>
						<g class="st47">
							<g>
								<g>
									<g>
										<polyline class="st5" points="129.4,100.3 127.1,99 124.8,100.3 127.1,101.6 129.4,100.3 										"/>
									</g>
								</g>
							</g>
						</g>
					</g>
				</g>
			</g>
		</g>
	</g>
	<g id="XMLID_17055_">
		<g>
			<g class="st3">
				<g>
					<g>
						<defs>
							<polygon id="SVGID_87_" points="169.3,45.9 171.6,44.6 173.9,45.9 171.6,47.2 							"/>
						</defs>
						<clipPath id="SVGID_88_">
							<use xlink:href="#SVGID_87_"  style="overflow:visible;"/>
						</clipPath>
						<g class="st48">
							<g>
								<g>
									<g>
										<polyline class="st5" points="173.9,45.9 171.6,44.6 169.3,45.9 171.6,47.2 173.9,45.9 										"/>
									</g>
								</g>
							</g>
						</g>
					</g>
				</g>
			</g>
		</g>
	</g>
	<g id="XMLID_17045_">
		<g>
			<g class="st3">
				<g>
					<g>
						<defs>
							<polygon id="SVGID_89_" points="169.9,58.7 172.2,57.4 174.4,58.7 172.2,60 							"/>
						</defs>
						<clipPath id="SVGID_90_">
							<use xlink:href="#SVGID_89_"  style="overflow:visible;"/>
						</clipPath>
						<g class="st49">
							<g>
								<g>
									<g>
										<polyline class="st5" points="174.4,58.7 172.2,57.4 169.9,58.7 172.2,60 174.4,58.7 										"/>
									</g>
								</g>
							</g>
						</g>
					</g>
				</g>
			</g>
		</g>
	</g>
	<g id="XMLID_17035_">
		<g>
			<g class="st3">
				<g>
					<g>
						<defs>
							<polygon id="SVGID_91_" points="184.3,45.2 186.6,43.8 188.9,45.2 186.6,46.5 							"/>
						</defs>
						<clipPath id="SVGID_92_">
							<use xlink:href="#SVGID_91_"  style="overflow:visible;"/>
						</clipPath>
						<g class="st50">
							<g>
								<g>
									<g>
										<polyline class="st5" points="188.9,45.2 186.6,43.8 184.3,45.2 186.6,46.5 188.9,45.2 										"/>
									</g>
								</g>
							</g>
						</g>
					</g>
				</g>
			</g>
		</g>
	</g>
	<g id="XMLID_17025_">
		<g>
			<g class="st3">
				<g>
					<g>
						<defs>
							<polygon id="SVGID_93_" points="161.7,43.6 163.9,42.2 166.2,43.6 164,44.9 							"/>
						</defs>
						<clipPath id="SVGID_94_">
							<use xlink:href="#SVGID_93_"  style="overflow:visible;"/>
						</clipPath>
						<g class="st51">
							<g>
								<g>
									<g>
										<polyline class="st5" points="166.2,43.6 163.9,42.2 161.7,43.6 164,44.9 166.2,43.6 										"/>
									</g>
								</g>
							</g>
						</g>
					</g>
				</g>
			</g>
		</g>
	</g>
	<g id="XMLID_17015_">
		<g>
			<g class="st3">
				<g>
					<g>
						<defs>
							<polygon id="SVGID_95_" points="193.4,50 195.7,48.7 198,50 195.7,51.3 							"/>
						</defs>
						<clipPath id="SVGID_96_">
							<use xlink:href="#SVGID_95_"  style="overflow:visible;"/>
						</clipPath>
						<g class="st52">
							<g>
								<g>
									<g>
										<polyline class="st5" points="198,50 195.7,48.7 193.4,50 195.7,51.3 198,50 										"/>
									</g>
								</g>
							</g>
						</g>
					</g>
				</g>
			</g>
		</g>
	</g>
	<g id="XMLID_17005_">
		<g>
			<g class="st3">
				<g>
					<g>
						<defs>
							<polygon id="SVGID_97_" points="185.9,61.5 188.2,60.2 190.5,61.5 188.2,62.8 							"/>
						</defs>
						<clipPath id="SVGID_98_">
							<use xlink:href="#SVGID_97_"  style="overflow:visible;"/>
						</clipPath>
						<g class="st53">
							<g>
								<g>
									<g>
										<polyline class="st5" points="190.5,61.5 188.2,60.2 185.9,61.5 188.2,62.8 190.5,61.5 										"/>
									</g>
								</g>
							</g>
						</g>
					</g>
				</g>
			</g>
		</g>
	</g>
	<g id="XMLID_16995_">
		<g>
			<g class="st3">
				<g>
					<g>
						<defs>
							<polygon id="SVGID_99_" points="145.7,58.7 148,57.4 150.2,58.7 148,60 							"/>
						</defs>
						<clipPath id="SVGID_100_">
							<use xlink:href="#SVGID_99_"  style="overflow:visible;"/>
						</clipPath>
						<g class="st54">
							<g>
								<g>
									<g>
										<polyline class="st5" points="150.2,58.7 148,57.4 145.7,58.7 148,60 150.2,58.7 										"/>
									</g>
								</g>
							</g>
						</g>
					</g>
				</g>
			</g>
		</g>
	</g>
	<g id="XMLID_16985_">
		<g>
			<g class="st3">
				<g>
					<g>
						<defs>
							<polygon id="SVGID_101_" points="135.2,48.4 137.4,47.1 139.7,48.4 137.5,49.7 							"/>
						</defs>
						<clipPath id="SVGID_102_">
							<use xlink:href="#SVGID_101_"  style="overflow:visible;"/>
						</clipPath>
						<g class="st55">
							<g>
								<g>
									<g>
										<polyline class="st5" points="139.7,48.4 137.4,47.1 135.2,48.4 137.5,49.7 139.7,48.4 										"/>
									</g>
								</g>
							</g>
						</g>
					</g>
				</g>
			</g>
		</g>
	</g>
	<g id="XMLID_16975_">
		<g>
			<g class="st3">
				<g>
					<g>
						<defs>
							<polygon id="SVGID_103_" points="103.3,58.7 105.6,57.4 107.8,58.7 105.6,60 							"/>
						</defs>
						<clipPath id="SVGID_104_">
							<use xlink:href="#SVGID_103_"  style="overflow:visible;"/>
						</clipPath>
						<g class="st56">
							<g>
								<g>
									<g>
										<polyline class="st5" points="107.8,58.7 105.6,57.4 103.3,58.7 105.6,60 107.8,58.7 										"/>
									</g>
								</g>
							</g>
						</g>
					</g>
				</g>
			</g>
		</g>
	</g>
	<g id="XMLID_16965_">
		<g>
			<g class="st3">
				<g>
					<g>
						<defs>
							<polygon id="SVGID_105_" points="129,38.7 131.3,37.4 133.6,38.7 131.3,40 							"/>
						</defs>
						<clipPath id="SVGID_106_">
							<use xlink:href="#SVGID_105_"  style="overflow:visible;"/>
						</clipPath>
						<g class="st57">
							<g>
								<g>
									<g>
										<polyline class="st5" points="133.6,38.7 131.3,37.4 129,38.7 131.3,40 133.6,38.7 										"/>
									</g>
								</g>
							</g>
						</g>
					</g>
				</g>
			</g>
		</g>
	</g>
	<g id="XMLID_16955_">
		<g>
			<g class="st3">
				<g>
					<g>
						<defs>
							<polygon id="SVGID_107_" points="139.2,37.8 141.5,36.5 143.8,37.8 141.5,39.1 							"/>
						</defs>
						<clipPath id="SVGID_108_">
							<use xlink:href="#SVGID_107_"  style="overflow:visible;"/>
						</clipPath>
						<g class="st58">
							<g>
								<g>
									<g>
										<polyline class="st5" points="143.8,37.8 141.5,36.5 139.2,37.8 141.5,39.1 143.8,37.8 										"/>
									</g>
								</g>
							</g>
						</g>
					</g>
				</g>
			</g>
		</g>
	</g>
	<g id="XMLID_16945_">
		<g>
			<g class="st3">
				<g>
					<g>
						<defs>
							<polygon id="SVGID_109_" points="82.7,40.1 85,38.8 87.3,40.1 85,41.4 							"/>
						</defs>
						<clipPath id="SVGID_110_">
							<use xlink:href="#SVGID_109_"  style="overflow:visible;"/>
						</clipPath>
						<g class="st59">
							<g>
								<g>
									<g>
										<polyline class="st5" points="87.3,40.1 85,38.8 82.7,40.1 85,41.4 87.3,40.1 										"/>
									</g>
								</g>
							</g>
						</g>
					</g>
				</g>
			</g>
		</g>
	</g>
	<g id="XMLID_16935_">
		<g>
			<g class="st3">
				<g>
					<g>
						<defs>
							<polygon id="SVGID_111_" points="94.6,35 96.8,33.7 99.1,35 96.8,36.4 							"/>
						</defs>
						<clipPath id="SVGID_112_">
							<use xlink:href="#SVGID_111_"  style="overflow:visible;"/>
						</clipPath>
						<g class="st60">
							<g>
								<g>
									<g>
										<polyline class="st5" points="99.1,35 96.8,33.7 94.6,35 96.8,36.4 99.1,35 										"/>
									</g>
								</g>
							</g>
						</g>
					</g>
				</g>
			</g>
		</g>
	</g>
	<g id="XMLID_16925_">
		<g>
			<g class="st3">
				<g>
					<g>
						<defs>
							<polygon id="SVGID_113_" points="108.8,34 111.1,32.7 113.4,34 111.1,35.3 							"/>
						</defs>
						<clipPath id="SVGID_114_">
							<use xlink:href="#SVGID_113_"  style="overflow:visible;"/>
						</clipPath>
						<g class="st61">
							<g>
								<g>
									<g>
										<polyline class="st5" points="113.4,34 111.1,32.7 108.8,34 111.1,35.3 113.4,34 										"/>
									</g>
								</g>
							</g>
						</g>
					</g>
				</g>
			</g>
		</g>
	</g>
	<g id="XMLID_16915_">
		<g>
			<g class="st3">
				<g>
					<g>
						<defs>
							<polygon id="SVGID_115_" points="87.7,37.8 90,36.5 92.3,37.8 90,39.1 							"/>
						</defs>
						<clipPath id="SVGID_116_">
							<use xlink:href="#SVGID_115_"  style="overflow:visible;"/>
						</clipPath>
						<g class="st62">
							<g>
								<g>
									<g>
										<polyline class="st5" points="92.3,37.8 90,36.5 87.7,37.8 90,39.1 92.3,37.8 										"/>
									</g>
								</g>
							</g>
						</g>
					</g>
				</g>
			</g>
		</g>
	</g>
	<g id="XMLID_16905_">
		<g>
			<g class="st3">
				<g>
					<g>
						<defs>
							<polygon id="SVGID_117_" points="116.3,33.4 118.6,32.1 120.8,33.4 118.6,34.8 							"/>
						</defs>
						<clipPath id="SVGID_118_">
							<use xlink:href="#SVGID_117_"  style="overflow:visible;"/>
						</clipPath>
						<g class="st63">
							<g>
								<g>
									<g>
										<polyline class="st5" points="120.8,33.4 118.6,32.1 116.3,33.4 118.6,34.8 120.8,33.4 										"/>
									</g>
								</g>
							</g>
						</g>
					</g>
				</g>
			</g>
		</g>
	</g>
	<rect id="XMLID_3120_" x="60.7" y="189.2" class="st64" width="3.6" height="3.6"/>
	<rect id="XMLID_3119_" x="54.7" y="198.9" class="st64" width="3.6" height="3.6"/>
	<rect id="XMLID_3117_" x="48.6" y="186.4" class="st64" width="3.6" height="3.6"/>
	<rect id="XMLID_3116_" x="43.3" y="173.8" class="st64" width="3.6" height="3.6"/>
</g>
<path id="XML" class="st65" d="M44.3,110.8l27.4-14.7l3.2-2.2l0.8-6.5l-7.9-7.8l-1.2-7l-10.8-6.5l16-21.1l23-11.5l24.9-1.6
	l47.4,3.8l44.6,20.4l20,16.4l6.1,22.3l0,0c1.7,3.8,0.4,8.4-3.1,10.7l-5.8,3.9c-6.9,4.6-15.2,6.7-23.5,5.8l-11.5-1.2l-15.1-4.7
	c0,0-16.7-2.6-18.6-2.4c-1.8,0.2-21.4,0.8-21.4,0.8l-16.5-5.7l-8.9-1.5l-11.8-1.1l-39.8,22.1L44.3,110.8z"/>
</svg>
