<?xml version="1.0" encoding="utf-8"?>
<!-- Generator: Adobe Illustrator 19.2.1, SVG Export Plug-In . SVG Version: 6.00 Build 0)  -->
<svg version="1.1" id="Layer_1" xmlns="http://www.w3.org/2000/svg" xmlns:xlink="http://www.w3.org/1999/xlink" x="0px" y="0px"
	 viewBox="0 0 196 171.5" style="enable-background:new 0 0 196 171.5;" xml:space="preserve">
<style type="text/css">
	.st0{opacity:0.3;fill:none;stroke:#F79338;stroke-width:2;stroke-miterlimit:10;enable-background:new    ;}
	.st1{enable-background:new    ;}
	.st2{clip-path:url(#SVGID_2_);}
	.st3{fill:#F79237;}
	.st4{clip-path:url(#SVGID_4_);}
	.st5{clip-path:url(#SVGID_6_);}
	.st6{clip-path:url(#SVGID_8_);}
	.st7{clip-path:url(#SVGID_10_);}
	.st8{clip-path:url(#SVGID_12_);}
	.st9{clip-path:url(#SVGID_14_);}
	.st10{clip-path:url(#SVGID_16_);}
	.st11{clip-path:url(#SVGID_18_);}
	.st12{clip-path:url(#SVGID_20_);}
	.st13{clip-path:url(#SVGID_22_);}
	.st14{clip-path:url(#SVGID_24_);}
	.st15{clip-path:url(#SVGID_26_);}
	.st16{clip-path:url(#SVGID_28_);}
	.st17{clip-path:url(#SVGID_30_);}
	.st18{clip-path:url(#SVGID_32_);}
	.st19{clip-path:url(#SVGID_34_);}
	.st20{clip-path:url(#SVGID_36_);}
	.st21{clip-path:url(#SVGID_38_);}
	.st22{clip-path:url(#SVGID_40_);}
	.st23{clip-path:url(#SVGID_42_);}
	.st24{clip-path:url(#SVGID_44_);}
	.st25{clip-path:url(#SVGID_46_);}
	.st26{clip-path:url(#SVGID_48_);}
	.st27{clip-path:url(#SVGID_50_);}
	.st28{clip-path:url(#SVGID_52_);}
	.st29{clip-path:url(#SVGID_54_);}
	.st30{clip-path:url(#SVGID_56_);}
	.st31{clip-path:url(#SVGID_58_);}
	.st32{clip-path:url(#SVGID_60_);}
	.st33{clip-path:url(#SVGID_62_);}
	.st34{clip-path:url(#SVGID_64_);}
	.st35{clip-path:url(#SVGID_66_);}
	.st36{clip-path:url(#SVGID_68_);}
	.st37{clip-path:url(#SVGID_70_);}
	.st38{clip-path:url(#SVGID_72_);}
	.st39{clip-path:url(#SVGID_74_);}
	.st40{clip-path:url(#SVGID_76_);}
	.st41{clip-path:url(#SVGID_78_);}
	.st42{clip-path:url(#SVGID_80_);}
	.st43{clip-path:url(#SVGID_82_);}
	.st44{clip-path:url(#SVGID_84_);}
	.st45{clip-path:url(#SVGID_86_);}
	.st46{clip-path:url(#SVGID_88_);}
	.st47{clip-path:url(#SVGID_90_);}
	.st48{clip-path:url(#SVGID_92_);}
	.st49{clip-path:url(#SVGID_94_);}
	.st50{clip-path:url(#SVGID_96_);}
	.st51{clip-path:url(#SVGID_98_);}
	.st52{clip-path:url(#SVGID_100_);}
	.st53{clip-path:url(#SVGID_102_);}
	.st54{clip-path:url(#SVGID_104_);}
	.st55{clip-path:url(#SVGID_106_);}
	.st56{clip-path:url(#SVGID_108_);}
	.st57{clip-path:url(#SVGID_110_);}
	.st58{clip-path:url(#SVGID_112_);}
	.st59{clip-path:url(#SVGID_114_);}
	.st60{clip-path:url(#SVGID_116_);}
	.st61{clip-path:url(#SVGID_118_);}
	.st62{fill:#F87D52;}
	.st63{opacity:0.15;fill:#F79237;enable-background:new    ;}
</style>
<g>
	<polyline id="XMLID_33_" class="st0" points="13,35.3 23.8,41.8 25,46.8 	"/>
	<polyline id="XMLID_32_" class="st0" points="17,31.6 27.8,38.1 29.6,45.1 	"/>
	<polyline id="XMLID_31_" class="st0" points="19,28 29.8,34.5 32.9,43.9 40.2,48.8 	"/>
	<polyline id="XMLID_30_" class="st0" points="22.5,25.2 56.9,46.8 68.9,48 82.4,40.2 82.4,37.6 86.8,35.1 90.2,35.8 96.6,32.1 
		110,32.6 129,22.2 136.9,22.2 143.4,18.4 143.4,13.6 	"/>
	<polyline id="XMLID_29_" class="st0" points="25,21.2 53.8,38.4 72.6,39.2 96.6,24.3 	"/>
	<polyline id="XMLID_28_" class="st0" points="41.2,48.8 44,50.8 32.9,56.6 33.5,61.9 1.6,80 1.6,144.7 	"/>
	<polyline id="XMLID_27_" class="st0" points="129,28.7 113.2,37.4 99.3,37.1 71.8,54.7 57.6,54.2 6.9,83.3 6.9,157.4 	"/>
	<polyline id="XMLID_26_" class="st0" points="135.8,32.8 119.9,41.5 106.1,41.1 78.6,58.8 64.4,58.3 13,87 13,170.4 	"/>
	<polyline id="XMLID_25_" class="st0" points="29.6,15.2 60.8,34.4 69.2,34.4 75.3,31.1 75.3,27.4 86.6,21.2 	"/>
	<polyline id="XMLID_24_" class="st0" points="36.4,12.6 62.6,28.9 86.6,15.2 	"/>
	<polyline id="XMLID_23_" class="st0" points="41.3,8.9 55.6,17.7 72.2,17.2 87.6,8 	"/>
	<polyline id="XMLID_22_" class="st0" points="45.9,6.4 50.4,9.6 67.6,10.4 79.6,5.1 75.5,2.4 	"/>
	<line id="XMLID_21_" class="st0" x1="53.7" y1="4.3" x2="68.3" y2="3.3"/>
	<polyline id="XMLID_20_" class="st0" points="89.8,59.2 71.6,69 58.8,68.5 19,90.7 19,161.2 	"/>
	<polyline id="XMLID_19_" class="st0" points="104.8,28.7 104.8,21.2 113.7,15.8 128.4,15.8 	"/>
	<line id="XMLID_18_" class="st0" x1="92.7" y1="18.4" x2="102.1" y2="13.6"/>
	<polyline id="XMLID_17_" class="st0" points="83.4,69.6 103.7,57.4 131.2,59.2 150.4,48 	"/>
	<polyline id="XMLID_16_" class="st0" points="94.8,57.6 94.3,53.5 107.2,45.1 134.6,45.1 154.4,34.4 	"/>
	<polyline id="XMLID_15_" class="st0" points="91.4,72.9 108,63.2 132,64.7 160.9,48.9 164.9,52.1 164.9,56.1 	"/>
	<polyline id="XMLID_14_" class="st0" points="160,45.3 160,36.3 167.4,31.7 166.9,25.9 	"/>
	<polyline id="XMLID_13_" class="st0" points="99.6,75.4 111.6,67.5 131.6,68.4 132.4,74.5 	"/>
	<line id="XMLID_12_" class="st0" x1="109.9" y1="73.7" x2="124.4" y2="74.1"/>
	<polyline id="XMLID_11_" class="st0" points="137.8,76.2 136.9,67.5 141.8,64.7 163.7,65.5 	"/>
	<polyline id="XMLID_10_" class="st0" points="150.9,61.5 164.9,61.5 178.2,53.5 176.7,39.2 181.8,36.1 	"/>
	<polyline id="XMLID_9_" class="st0" points="172.1,53.5 171.1,44 164.9,40 175.6,32.4 	"/>
	<polyline id="XMLID_8_" class="st0" points="142.9,72.4 150.7,73.1 153.6,71.1 162.1,71.5 	"/>
	<polyline id="XMLID_7_" class="st0" points="152.8,82 163.7,75.5 174.7,73.7 175.6,60.8 184.3,55.1 183.7,41.7 	"/>
	<polyline id="XMLID_6_" class="st0" points="161.6,84.2 169.7,79.3 184.3,78.6 	"/>
	<line id="XMLID_5_" class="st0" x1="193.9" y1="62.4" x2="179.4" y2="70.4"/>
	<line id="XMLID_4_" class="st0" x1="188.6" y1="48.8" x2="189" y2="59.3"/>
	<polyline id="XMLID_3_" class="st0" points="97.7,7.1 113.7,8.7 120.8,5.5 	"/>
	<line id="XMLID_2_" class="st0" x1="128.2" y1="7.8" x2="120.8" y2="12.6"/>
	<line id="XMLID_1_" class="st0" x1="108.3" y1="50.9" x2="132.2" y2="50.9"/>
</g>
<g id="opacityy">
	<g id="XMLID_17477_">
		<g>
			<g class="st1">
				<g>
					<defs>
						<polygon id="SVGID_1_" points="19.7,25 22,23.7 24.3,25 22,26.3 						"/>
					</defs>
					<clipPath id="SVGID_2_">
						<use xlink:href="#SVGID_1_"  style="overflow:visible;"/>
					</clipPath>
					<g class="st2">
						<g>
							<g>
								<g>
									<polyline class="st3" points="24.3,25 22,23.7 19.7,25 22,26.3 24.3,25 									"/>
								</g>
							</g>
						</g>
					</g>
				</g>
			</g>
		</g>
	</g>
	<g id="XMLID_17467_">
		<g>
			<g class="st1">
				<g>
					<defs>
						<polygon id="SVGID_3_" points="14.1,31.1 16.4,29.8 18.6,31.1 16.4,32.5 						"/>
					</defs>
					<clipPath id="SVGID_4_">
						<use xlink:href="#SVGID_3_"  style="overflow:visible;"/>
					</clipPath>
					<g class="st4">
						<g>
							<g>
								<g>
									<polyline class="st3" points="18.6,31.1 16.4,29.8 14.1,31.1 16.4,32.5 18.6,31.1 									"/>
								</g>
							</g>
						</g>
					</g>
				</g>
			</g>
		</g>
	</g>
	<g id="XMLID_17457_">
		<g>
			<g class="st1">
				<g>
					<defs>
						<polygon id="SVGID_5_" points="22.6,21.2 24.8,19.9 27.1,21.2 24.9,22.5 						"/>
					</defs>
					<clipPath id="SVGID_6_">
						<use xlink:href="#SVGID_5_"  style="overflow:visible;"/>
					</clipPath>
					<g class="st5">
						<g>
							<g>
								<g>
									<polyline class="st3" points="27.1,21.2 24.8,19.9 22.6,21.2 24.9,22.5 27.1,21.2 									"/>
								</g>
							</g>
						</g>
					</g>
				</g>
			</g>
		</g>
	</g>
	<g id="XMLID_17455_">
		<g>
			<g class="st1">
				<g>
					<defs>
						<polygon id="SVGID_7_" points="93.9,24.3 96.2,23 98.5,24.3 96.2,25.6 						"/>
					</defs>
					<clipPath id="SVGID_8_">
						<use xlink:href="#SVGID_7_"  style="overflow:visible;"/>
					</clipPath>
					<g class="st6">
						<g>
							<g>
								<g>
									<polyline class="st3" points="98.5,24.3 96.2,23 93.9,24.3 96.2,25.6 98.5,24.3 									"/>
								</g>
							</g>
						</g>
					</g>
				</g>
			</g>
		</g>
	</g>
	<g id="XMLID_17445_">
		<g>
			<g class="st1">
				<g>
					<defs>
						<polygon id="SVGID_9_" points="50.7,37.7 52.9,36.4 55.2,37.7 52.9,39.1 						"/>
					</defs>
					<clipPath id="SVGID_10_">
						<use xlink:href="#SVGID_9_"  style="overflow:visible;"/>
					</clipPath>
					<g class="st7">
						<g>
							<g>
								<g>
									<polyline class="st3" points="55.2,37.7 52.9,36.4 50.7,37.7 52.9,39.1 55.2,37.7 									"/>
								</g>
							</g>
						</g>
					</g>
				</g>
			</g>
		</g>
	</g>
	<g id="XMLID_17435_">
		<g>
			<g class="st1">
				<g>
					<defs>
						<polygon id="SVGID_11_" points="38.4,48.8 40.6,47.5 42.9,48.8 40.7,50.1 						"/>
					</defs>
					<clipPath id="SVGID_12_">
						<use xlink:href="#SVGID_11_"  style="overflow:visible;"/>
					</clipPath>
					<g class="st8">
						<g>
							<g>
								<g>
									<polyline class="st3" points="42.9,48.8 40.6,47.5 38.4,48.8 40.7,50.1 42.9,48.8 									"/>
								</g>
							</g>
						</g>
					</g>
				</g>
			</g>
		</g>
	</g>
	<g id="XMLID_17425_">
		<g>
			<g class="st1">
				<g>
					<defs>
						<polygon id="SVGID_13_" points="84.1,21.1 86.4,19.8 88.7,21.1 86.4,22.4 						"/>
					</defs>
					<clipPath id="SVGID_14_">
						<use xlink:href="#SVGID_13_"  style="overflow:visible;"/>
					</clipPath>
					<g class="st9">
						<g>
							<g>
								<g>
									<polyline class="st3" points="88.7,21.1 86.4,19.8 84.1,21.1 86.4,22.4 88.7,21.1 									"/>
								</g>
							</g>
						</g>
					</g>
				</g>
			</g>
		</g>
	</g>
	<g id="XMLID_17415_">
		<g>
			<g class="st1">
				<g>
					<defs>
						<polygon id="SVGID_15_" points="28.1,15.8 30.4,14.4 32.7,15.8 30.4,17.1 						"/>
					</defs>
					<clipPath id="SVGID_16_">
						<use xlink:href="#SVGID_15_"  style="overflow:visible;"/>
					</clipPath>
					<g class="st10">
						<g>
							<g>
								<g>
									<polyline class="st3" points="32.7,15.8 30.4,14.4 28.1,15.8 30.4,17.1 32.7,15.8 									"/>
								</g>
							</g>
						</g>
					</g>
				</g>
			</g>
		</g>
	</g>
	<g id="XMLID_17405_">
		<g>
			<g class="st1">
				<g>
					<defs>
						<polygon id="SVGID_17_" points="34,12.6 36.3,11.3 38.6,12.6 36.3,13.9 						"/>
					</defs>
					<clipPath id="SVGID_18_">
						<use xlink:href="#SVGID_17_"  style="overflow:visible;"/>
					</clipPath>
					<g class="st11">
						<g>
							<g>
								<g>
									<polyline class="st3" points="38.6,12.6 36.3,11.3 34,12.6 36.3,13.9 38.6,12.6 									"/>
								</g>
							</g>
						</g>
					</g>
				</g>
			</g>
		</g>
	</g>
	<g id="XMLID_17395_">
		<g>
			<g class="st1">
				<g>
					<defs>
						<polygon id="SVGID_19_" points="84.1,15.2 86.4,13.9 88.7,15.2 86.4,16.5 						"/>
					</defs>
					<clipPath id="SVGID_20_">
						<use xlink:href="#SVGID_19_"  style="overflow:visible;"/>
					</clipPath>
					<g class="st12">
						<g>
							<g>
								<g>
									<polyline class="st3" points="88.7,15.2 86.4,13.9 84.1,15.2 86.4,16.5 88.7,15.2 									"/>
								</g>
							</g>
						</g>
					</g>
				</g>
			</g>
		</g>
	</g>
	<g id="XMLID_17385_">
		<g>
			<g class="st1">
				<g>
					<defs>
						<polygon id="SVGID_21_" points="99.6,12.9 101.9,11.5 104.2,12.9 101.9,14.2 						"/>
					</defs>
					<clipPath id="SVGID_22_">
						<use xlink:href="#SVGID_21_"  style="overflow:visible;"/>
					</clipPath>
					<g class="st13">
						<g>
							<g>
								<g>
									<polyline class="st3" points="104.2,12.9 101.9,11.5 99.6,12.9 101.9,14.2 104.2,12.9 									"/>
								</g>
							</g>
						</g>
					</g>
				</g>
			</g>
		</g>
	</g>
	<g id="XMLID_17375_">
		<g>
			<g class="st1">
				<g>
					<defs>
						<polygon id="SVGID_23_" points="125,8 127.3,6.7 129.5,8 127.3,9.3 						"/>
					</defs>
					<clipPath id="SVGID_24_">
						<use xlink:href="#SVGID_23_"  style="overflow:visible;"/>
					</clipPath>
					<g class="st14">
						<g>
							<g>
								<g>
									<polyline class="st3" points="129.5,8 127.3,6.7 125,8 127.3,9.3 129.5,8 									"/>
								</g>
							</g>
						</g>
					</g>
				</g>
			</g>
		</g>
	</g>
	<g id="XMLID_17365_">
		<g>
			<g class="st1">
				<g>
					<defs>
						<polygon id="SVGID_25_" points="87.4,59.2 89.6,57.9 91.9,59.2 89.6,60.5 						"/>
					</defs>
					<clipPath id="SVGID_26_">
						<use xlink:href="#SVGID_25_"  style="overflow:visible;"/>
					</clipPath>
					<g class="st15">
						<g>
							<g>
								<g>
									<polyline class="st3" points="91.9,59.2 89.6,57.9 87.4,59.2 89.6,60.5 91.9,59.2 									"/>
								</g>
							</g>
						</g>
					</g>
				</g>
			</g>
		</g>
	</g>
	<g id="XMLID_17355_">
		<g>
			<g class="st1">
				<g>
					<defs>
						<polygon id="SVGID_27_" points="133.8,32.8 136,31.4 138.3,32.8 136,34.1 						"/>
					</defs>
					<clipPath id="SVGID_28_">
						<use xlink:href="#SVGID_27_"  style="overflow:visible;"/>
					</clipPath>
					<g class="st16">
						<g>
							<g>
								<g>
									<polyline class="st3" points="138.3,32.8 136,31.4 133.8,32.8 136,34.1 138.3,32.8 									"/>
								</g>
							</g>
						</g>
					</g>
				</g>
			</g>
		</g>
	</g>
	<g id="XMLID_17345_">
		<g>
			<g class="st1">
				<g>
					<defs>
						<polygon id="SVGID_29_" points="130,50.9 132.3,49.6 134.6,50.9 132.3,52.2 						"/>
					</defs>
					<clipPath id="SVGID_30_">
						<use xlink:href="#SVGID_29_"  style="overflow:visible;"/>
					</clipPath>
					<g class="st17">
						<g>
							<g>
								<g>
									<polyline class="st3" points="134.6,50.9 132.3,49.6 130,50.9 132.3,52.2 134.6,50.9 									"/>
								</g>
							</g>
						</g>
					</g>
				</g>
			</g>
		</g>
	</g>
	<g id="XMLID_17335_">
		<g>
			<g class="st1">
				<g>
					<defs>
						<polygon id="SVGID_31_" points="106.8,50.9 109.1,49.6 111.4,50.9 109.1,52.2 						"/>
					</defs>
					<clipPath id="SVGID_32_">
						<use xlink:href="#SVGID_31_"  style="overflow:visible;"/>
					</clipPath>
					<g class="st18">
						<g>
							<g>
								<g>
									<polyline class="st3" points="111.4,50.9 109.1,49.6 106.8,50.9 109.1,52.2 111.4,50.9 									"/>
								</g>
							</g>
						</g>
					</g>
				</g>
			</g>
		</g>
	</g>
	<g id="XMLID_17325_">
		<g>
			<g class="st1">
				<g>
					<defs>
						<polygon id="SVGID_33_" points="152,33.6 154.3,32.3 156.6,33.7 154.3,35 						"/>
					</defs>
					<clipPath id="SVGID_34_">
						<use xlink:href="#SVGID_33_"  style="overflow:visible;"/>
					</clipPath>
					<g class="st19">
						<g>
							<g>
								<g>
									<polyline class="st3" points="156.6,33.7 154.3,32.3 152,33.6 154.3,35 156.6,33.7 									"/>
								</g>
							</g>
						</g>
					</g>
				</g>
			</g>
		</g>
	</g>
	<g id="XMLID_17315_">
		<g>
			<g class="st1">
				<g>
					<defs>
						<polygon id="SVGID_35_" points="164.9,26.9 167.2,25.6 169.5,26.9 167.2,28.2 						"/>
					</defs>
					<clipPath id="SVGID_36_">
						<use xlink:href="#SVGID_35_"  style="overflow:visible;"/>
					</clipPath>
					<g class="st20">
						<g>
							<g>
								<g>
									<polyline class="st3" points="169.5,26.9 167.2,25.6 164.9,26.9 167.2,28.2 169.5,26.9 									"/>
								</g>
							</g>
						</g>
					</g>
				</g>
			</g>
		</g>
	</g>
	<g id="XMLID_17305_">
		<g>
			<g class="st1">
				<g>
					<defs>
						<polygon id="SVGID_37_" points="178.6,36.1 180.8,34.8 183.1,36.1 180.8,37.4 						"/>
					</defs>
					<clipPath id="SVGID_38_">
						<use xlink:href="#SVGID_37_"  style="overflow:visible;"/>
					</clipPath>
					<g class="st21">
						<g>
							<g>
								<g>
									<polyline class="st3" points="183.1,36.1 180.8,34.8 178.6,36.1 180.8,37.4 183.1,36.1 									"/>
								</g>
							</g>
						</g>
					</g>
				</g>
			</g>
		</g>
	</g>
	<g id="XMLID_17295_">
		<g>
			<g class="st1">
				<g>
					<defs>
						<polygon id="SVGID_39_" points="186.1,59.3 188.4,58 190.7,59.3 188.4,60.6 						"/>
					</defs>
					<clipPath id="SVGID_40_">
						<use xlink:href="#SVGID_39_"  style="overflow:visible;"/>
					</clipPath>
					<g class="st22">
						<g>
							<g>
								<g>
									<polyline class="st3" points="190.7,59.3 188.4,58 186.1,59.3 188.4,60.6 190.7,59.3 									"/>
								</g>
							</g>
						</g>
					</g>
				</g>
			</g>
		</g>
	</g>
	<g id="XMLID_17285_">
		<g>
			<g class="st1">
				<g>
					<defs>
						<polygon id="SVGID_41_" points="181.4,41.7 183.7,40.4 186,41.7 183.7,43 						"/>
					</defs>
					<clipPath id="SVGID_42_">
						<use xlink:href="#SVGID_41_"  style="overflow:visible;"/>
					</clipPath>
					<g class="st23">
						<g>
							<g>
								<g>
									<polyline class="st3" points="186,41.7 183.7,40.4 181.4,41.7 183.7,43 186,41.7 									"/>
								</g>
							</g>
						</g>
					</g>
				</g>
			</g>
		</g>
	</g>
	<g id="XMLID_17275_">
		<g>
			<g class="st1">
				<g>
					<defs>
						<polygon id="SVGID_43_" points="186.6,48.8 188.8,47.5 191.1,48.8 188.8,50.1 						"/>
					</defs>
					<clipPath id="SVGID_44_">
						<use xlink:href="#SVGID_43_"  style="overflow:visible;"/>
					</clipPath>
					<g class="st24">
						<g>
							<g>
								<g>
									<polyline class="st3" points="191.1,48.8 188.8,47.5 186.6,48.8 188.8,50.1 191.1,48.8 									"/>
								</g>
							</g>
						</g>
					</g>
				</g>
			</g>
		</g>
	</g>
	<g id="XMLID_17265_">
		<g>
			<g class="st1">
				<g>
					<defs>
						<polygon id="SVGID_45_" points="191.1,62.4 193.3,61.1 195.6,62.4 193.4,63.8 						"/>
					</defs>
					<clipPath id="SVGID_46_">
						<use xlink:href="#SVGID_45_"  style="overflow:visible;"/>
					</clipPath>
					<g class="st25">
						<g>
							<g>
								<g>
									<polyline class="st3" points="195.6,62.4 193.3,61.1 191.1,62.4 193.4,63.8 195.6,62.4 									"/>
								</g>
							</g>
						</g>
					</g>
				</g>
			</g>
		</g>
	</g>
	<g id="XMLID_17255_">
		<g>
			<g class="st1">
				<g>
					<defs>
						<polygon id="SVGID_47_" points="177,70.4 179.2,69.1 181.5,70.4 179.2,71.8 						"/>
					</defs>
					<clipPath id="SVGID_48_">
						<use xlink:href="#SVGID_47_"  style="overflow:visible;"/>
					</clipPath>
					<g class="st26">
						<g>
							<g>
								<g>
									<polyline class="st3" points="181.5,70.4 179.2,69.1 177,70.4 179.2,71.8 181.5,70.4 									"/>
								</g>
							</g>
						</g>
					</g>
				</g>
			</g>
		</g>
	</g>
	<g id="XMLID_17245_">
		<g>
			<g class="st1">
				<g>
					<defs>
						<polygon id="SVGID_49_" points="150.4,81.6 152.7,80.3 155,81.6 152.7,83 						"/>
					</defs>
					<clipPath id="SVGID_50_">
						<use xlink:href="#SVGID_49_"  style="overflow:visible;"/>
					</clipPath>
					<g class="st27">
						<g>
							<g>
								<g>
									<polyline class="st3" points="155,81.6 152.7,80.3 150.4,81.6 152.7,83 155,81.6 									"/>
								</g>
							</g>
						</g>
					</g>
				</g>
			</g>
		</g>
	</g>
	<g id="XMLID_17235_">
		<g>
			<g class="st1">
				<g>
					<defs>
						<polygon id="SVGID_51_" points="182.3,78.6 184.6,77.3 186.9,78.6 184.6,79.9 						"/>
					</defs>
					<clipPath id="SVGID_52_">
						<use xlink:href="#SVGID_51_"  style="overflow:visible;"/>
					</clipPath>
					<g class="st28">
						<g>
							<g>
								<g>
									<polyline class="st3" points="186.9,78.6 184.6,77.3 182.3,78.6 184.6,79.9 186.9,78.6 									"/>
								</g>
							</g>
						</g>
					</g>
				</g>
			</g>
		</g>
	</g>
	<g id="XMLID_17225_">
		<g>
			<g class="st1">
				<g>
					<defs>
						<polygon id="SVGID_53_" points="159.3,84.2 161.6,82.9 163.8,84.2 161.6,85.5 						"/>
					</defs>
					<clipPath id="SVGID_54_">
						<use xlink:href="#SVGID_53_"  style="overflow:visible;"/>
					</clipPath>
					<g class="st29">
						<g>
							<g>
								<g>
									<polyline class="st3" points="163.8,84.2 161.6,82.9 159.3,84.2 161.6,85.5 163.8,84.2 									"/>
								</g>
							</g>
						</g>
					</g>
				</g>
			</g>
		</g>
	</g>
	<g id="XMLID_17215_">
		<g>
			<g class="st1">
				<g>
					<defs>
						<polygon id="SVGID_55_" points="173.1,32.8 175.4,31.4 177.7,32.8 175.4,34.1 						"/>
					</defs>
					<clipPath id="SVGID_56_">
						<use xlink:href="#SVGID_55_"  style="overflow:visible;"/>
					</clipPath>
					<g class="st30">
						<g>
							<g>
								<g>
									<polyline class="st3" points="177.7,32.8 175.4,31.4 173.1,32.8 175.4,34.1 177.7,32.8 									"/>
								</g>
							</g>
						</g>
					</g>
				</g>
			</g>
		</g>
	</g>
	<g id="XMLID_17205_">
		<g>
			<g class="st1">
				<g>
					<defs>
						<polygon id="SVGID_57_" points="169.4,52.5 171.7,51.2 174,52.5 171.7,53.8 						"/>
					</defs>
					<clipPath id="SVGID_58_">
						<use xlink:href="#SVGID_57_"  style="overflow:visible;"/>
					</clipPath>
					<g class="st31">
						<g>
							<g>
								<g>
									<polyline class="st3" points="174,52.5 171.7,51.2 169.4,52.5 171.7,53.8 174,52.5 									"/>
								</g>
							</g>
						</g>
					</g>
				</g>
			</g>
		</g>
	</g>
	<g id="XMLID_17195_">
		<g>
			<g class="st1">
				<g>
					<defs>
						<polygon id="SVGID_59_" points="148.8,61.5 151.1,60.2 153.3,61.5 151.1,62.8 						"/>
					</defs>
					<clipPath id="SVGID_60_">
						<use xlink:href="#SVGID_59_"  style="overflow:visible;"/>
					</clipPath>
					<g class="st32">
						<g>
							<g>
								<g>
									<polyline class="st3" points="153.3,61.5 151.1,60.2 148.8,61.5 151.1,62.8 153.3,61.5 									"/>
								</g>
							</g>
						</g>
					</g>
				</g>
			</g>
		</g>
	</g>
	<g id="XMLID_17185_">
		<g>
			<g class="st1">
				<g>
					<defs>
						<polygon id="SVGID_61_" points="162.5,55.1 164.8,53.8 167.1,55.1 164.8,56.5 						"/>
					</defs>
					<clipPath id="SVGID_62_">
						<use xlink:href="#SVGID_61_"  style="overflow:visible;"/>
					</clipPath>
					<g class="st33">
						<g>
							<g>
								<g>
									<polyline class="st3" points="167.1,55.1 164.8,53.8 162.5,55.1 164.8,56.5 167.1,55.1 									"/>
								</g>
							</g>
						</g>
					</g>
				</g>
			</g>
		</g>
	</g>
	<g id="XMLID_17175_">
		<g>
			<g class="st1">
				<g>
					<defs>
						<polygon id="SVGID_63_" points="157.6,45.6 159.9,44.3 162.1,45.6 159.9,47 						"/>
					</defs>
					<clipPath id="SVGID_64_">
						<use xlink:href="#SVGID_63_"  style="overflow:visible;"/>
					</clipPath>
					<g class="st34">
						<g>
							<g>
								<g>
									<polyline class="st3" points="162.1,45.6 159.9,44.3 157.6,45.6 159.9,47 162.1,45.6 									"/>
								</g>
							</g>
						</g>
					</g>
				</g>
			</g>
		</g>
	</g>
	<g id="XMLID_17165_">
		<g>
			<g class="st1">
				<g>
					<defs>
						<polygon id="SVGID_65_" points="97.5,75.4 99.8,74 102.1,75.4 99.8,76.7 						"/>
					</defs>
					<clipPath id="SVGID_66_">
						<use xlink:href="#SVGID_65_"  style="overflow:visible;"/>
					</clipPath>
					<g class="st35">
						<g>
							<g>
								<g>
									<polyline class="st3" points="102.1,75.4 99.8,74 97.5,75.4 99.8,76.7 102.1,75.4 									"/>
								</g>
							</g>
						</g>
					</g>
				</g>
			</g>
		</g>
	</g>
	<g id="XMLID_17155_">
		<g>
			<g class="st1">
				<g>
					<defs>
						<polygon id="SVGID_67_" points="129.8,74.5 132.1,73.2 134.4,74.5 132.1,75.9 						"/>
					</defs>
					<clipPath id="SVGID_68_">
						<use xlink:href="#SVGID_67_"  style="overflow:visible;"/>
					</clipPath>
					<g class="st36">
						<g>
							<g>
								<g>
									<polyline class="st3" points="134.4,74.5 132.1,73.2 129.8,74.5 132.1,75.9 134.4,74.5 									"/>
								</g>
							</g>
						</g>
					</g>
				</g>
			</g>
		</g>
	</g>
	<g id="XMLID_17145_">
		<g>
			<g class="st1">
				<g>
					<defs>
						<polygon id="SVGID_69_" points="161.3,65.3 163.5,64 165.8,65.3 163.5,66.6 						"/>
					</defs>
					<clipPath id="SVGID_70_">
						<use xlink:href="#SVGID_69_"  style="overflow:visible;"/>
					</clipPath>
					<g class="st37">
						<g>
							<g>
								<g>
									<polyline class="st3" points="165.8,65.3 163.5,64 161.3,65.3 163.5,66.6 165.8,65.3 									"/>
								</g>
							</g>
						</g>
					</g>
				</g>
			</g>
		</g>
	</g>
	<g id="XMLID_17135_">
		<g>
			<g class="st1">
				<g>
					<defs>
						<polygon id="SVGID_71_" points="160.9,71.4 163.2,70.1 165.5,71.4 163.2,72.8 						"/>
					</defs>
					<clipPath id="SVGID_72_">
						<use xlink:href="#SVGID_71_"  style="overflow:visible;"/>
					</clipPath>
					<g class="st38">
						<g>
							<g>
								<g>
									<polyline class="st3" points="165.5,71.4 163.2,70.1 160.9,71.4 163.2,72.8 165.5,71.4 									"/>
								</g>
							</g>
						</g>
					</g>
				</g>
			</g>
		</g>
	</g>
	<g id="XMLID_17125_">
		<g>
			<g class="st1">
				<g>
					<defs>
						<polygon id="SVGID_73_" points="140.5,72.3 142.8,71 145,72.3 142.8,73.6 						"/>
					</defs>
					<clipPath id="SVGID_74_">
						<use xlink:href="#SVGID_73_"  style="overflow:visible;"/>
					</clipPath>
					<g class="st39">
						<g>
							<g>
								<g>
									<polyline class="st3" points="145,72.3 142.8,71 140.5,72.3 142.8,73.6 145,72.3 									"/>
								</g>
							</g>
						</g>
					</g>
				</g>
			</g>
		</g>
	</g>
	<g id="XMLID_17115_">
		<g>
			<g class="st1">
				<g>
					<defs>
						<polygon id="SVGID_75_" points="135.4,77 137.6,75.6 139.9,77 137.6,78.3 						"/>
					</defs>
					<clipPath id="SVGID_76_">
						<use xlink:href="#SVGID_75_"  style="overflow:visible;"/>
					</clipPath>
					<g class="st40">
						<g>
							<g>
								<g>
									<polyline class="st3" points="139.9,77 137.6,75.6 135.4,77 137.6,78.3 139.9,77 									"/>
								</g>
							</g>
						</g>
					</g>
				</g>
			</g>
		</g>
	</g>
	<g id="XMLID_17105_">
		<g>
			<g class="st1">
				<g>
					<defs>
						<polygon id="SVGID_77_" points="107.5,73.7 109.8,72.4 112.1,73.7 109.8,75.1 						"/>
					</defs>
					<clipPath id="SVGID_78_">
						<use xlink:href="#SVGID_77_"  style="overflow:visible;"/>
					</clipPath>
					<g class="st41">
						<g>
							<g>
								<g>
									<polyline class="st3" points="112.1,73.7 109.8,72.4 107.5,73.7 109.8,75.1 112.1,73.7 									"/>
								</g>
							</g>
						</g>
					</g>
				</g>
			</g>
		</g>
	</g>
	<g id="XMLID_17095_">
		<g>
			<g class="st1">
				<g>
					<defs>
						<polygon id="SVGID_79_" points="121.9,73.9 124.2,72.6 126.5,73.9 124.2,75.2 						"/>
					</defs>
					<clipPath id="SVGID_80_">
						<use xlink:href="#SVGID_79_"  style="overflow:visible;"/>
					</clipPath>
					<g class="st42">
						<g>
							<g>
								<g>
									<polyline class="st3" points="126.5,73.9 124.2,72.6 121.9,73.9 124.2,75.2 126.5,73.9 									"/>
								</g>
							</g>
						</g>
					</g>
				</g>
			</g>
		</g>
	</g>
	<g id="XMLID_17085_">
		<g>
			<g class="st1">
				<g>
					<defs>
						<polygon id="SVGID_81_" points="148.8,47.2 151.1,45.9 153.3,47.2 151.1,48.6 						"/>
					</defs>
					<clipPath id="SVGID_82_">
						<use xlink:href="#SVGID_81_"  style="overflow:visible;"/>
					</clipPath>
					<g class="st43">
						<g>
							<g>
								<g>
									<polyline class="st3" points="153.3,47.2 151.1,45.9 148.8,47.2 151.1,48.6 153.3,47.2 									"/>
								</g>
							</g>
						</g>
					</g>
				</g>
			</g>
		</g>
	</g>
	<g id="XMLID_17075_">
		<g>
			<g class="st1">
				<g>
					<defs>
						<polygon id="SVGID_83_" points="89.4,72.9 91.7,71.6 94,72.9 91.7,74.3 						"/>
					</defs>
					<clipPath id="SVGID_84_">
						<use xlink:href="#SVGID_83_"  style="overflow:visible;"/>
					</clipPath>
					<g class="st44">
						<g>
							<g>
								<g>
									<polyline class="st3" points="94,72.9 91.7,71.6 89.4,72.9 91.7,74.3 94,72.9 									"/>
								</g>
							</g>
						</g>
					</g>
				</g>
			</g>
		</g>
	</g>
	<g id="XMLID_17065_">
		<g>
			<g class="st1">
				<g>
					<defs>
						<polygon id="SVGID_85_" points="81.5,69.6 83.8,68.3 86.1,69.6 83.8,70.9 						"/>
					</defs>
					<clipPath id="SVGID_86_">
						<use xlink:href="#SVGID_85_"  style="overflow:visible;"/>
					</clipPath>
					<g class="st45">
						<g>
							<g>
								<g>
									<polyline class="st3" points="86.1,69.6 83.8,68.3 81.5,69.6 83.8,70.9 86.1,69.6 									"/>
								</g>
							</g>
						</g>
					</g>
				</g>
			</g>
		</g>
	</g>
	<g id="XMLID_17055_">
		<g>
			<g class="st1">
				<g>
					<defs>
						<polygon id="SVGID_87_" points="126,15.2 128.3,13.9 130.6,15.2 128.3,16.5 						"/>
					</defs>
					<clipPath id="SVGID_88_">
						<use xlink:href="#SVGID_87_"  style="overflow:visible;"/>
					</clipPath>
					<g class="st46">
						<g>
							<g>
								<g>
									<polyline class="st3" points="130.6,15.2 128.3,13.9 126,15.2 128.3,16.5 130.6,15.2 									"/>
								</g>
							</g>
						</g>
					</g>
				</g>
			</g>
		</g>
	</g>
	<g id="XMLID_17045_">
		<g>
			<g class="st1">
				<g>
					<defs>
						<polygon id="SVGID_89_" points="126.6,28 128.9,26.7 131.1,28 128.9,29.3 						"/>
					</defs>
					<clipPath id="SVGID_90_">
						<use xlink:href="#SVGID_89_"  style="overflow:visible;"/>
					</clipPath>
					<g class="st47">
						<g>
							<g>
								<g>
									<polyline class="st3" points="131.1,28 128.9,26.7 126.6,28 128.9,29.3 131.1,28 									"/>
								</g>
							</g>
						</g>
					</g>
				</g>
			</g>
		</g>
	</g>
	<g id="XMLID_17035_">
		<g>
			<g class="st1">
				<g>
					<defs>
						<polygon id="SVGID_91_" points="141,14.5 143.3,13.1 145.6,14.5 143.3,15.8 						"/>
					</defs>
					<clipPath id="SVGID_92_">
						<use xlink:href="#SVGID_91_"  style="overflow:visible;"/>
					</clipPath>
					<g class="st48">
						<g>
							<g>
								<g>
									<polyline class="st3" points="145.6,14.5 143.3,13.1 141,14.5 143.3,15.8 145.6,14.5 									"/>
								</g>
							</g>
						</g>
					</g>
				</g>
			</g>
		</g>
	</g>
	<g id="XMLID_17025_">
		<g>
			<g class="st1">
				<g>
					<defs>
						<polygon id="SVGID_93_" points="118.4,12.9 120.6,11.5 122.9,12.9 120.7,14.2 						"/>
					</defs>
					<clipPath id="SVGID_94_">
						<use xlink:href="#SVGID_93_"  style="overflow:visible;"/>
					</clipPath>
					<g class="st49">
						<g>
							<g>
								<g>
									<polyline class="st3" points="122.9,12.9 120.6,11.5 118.4,12.9 120.7,14.2 122.9,12.9 									"/>
								</g>
							</g>
						</g>
					</g>
				</g>
			</g>
		</g>
	</g>
	<g id="XMLID_17015_">
		<g>
			<g class="st1">
				<g>
					<defs>
						<polygon id="SVGID_95_" points="150.1,19.3 152.4,18 154.7,19.3 152.4,20.6 						"/>
					</defs>
					<clipPath id="SVGID_96_">
						<use xlink:href="#SVGID_95_"  style="overflow:visible;"/>
					</clipPath>
					<g class="st50">
						<g>
							<g>
								<g>
									<polyline class="st3" points="154.7,19.3 152.4,18 150.1,19.3 152.4,20.6 154.7,19.3 									"/>
								</g>
							</g>
						</g>
					</g>
				</g>
			</g>
		</g>
	</g>
	<g id="XMLID_17005_">
		<g>
			<g class="st1">
				<g>
					<defs>
						<polygon id="SVGID_97_" points="142.6,30.8 144.9,29.5 147.2,30.8 144.9,32.1 						"/>
					</defs>
					<clipPath id="SVGID_98_">
						<use xlink:href="#SVGID_97_"  style="overflow:visible;"/>
					</clipPath>
					<g class="st51">
						<g>
							<g>
								<g>
									<polyline class="st3" points="147.2,30.8 144.9,29.5 142.6,30.8 144.9,32.1 147.2,30.8 									"/>
								</g>
							</g>
						</g>
					</g>
				</g>
			</g>
		</g>
	</g>
	<g id="XMLID_16995_">
		<g>
			<g class="st1">
				<g>
					<defs>
						<polygon id="SVGID_99_" points="102.4,28 104.7,26.7 106.9,28 104.7,29.3 						"/>
					</defs>
					<clipPath id="SVGID_100_">
						<use xlink:href="#SVGID_99_"  style="overflow:visible;"/>
					</clipPath>
					<g class="st52">
						<g>
							<g>
								<g>
									<polyline class="st3" points="106.9,28 104.7,26.7 102.4,28 104.7,29.3 106.9,28 									"/>
								</g>
							</g>
						</g>
					</g>
				</g>
			</g>
		</g>
	</g>
	<g id="XMLID_16985_">
		<g>
			<g class="st1">
				<g>
					<defs>
						<polygon id="SVGID_101_" points="91.9,17.7 94.1,16.4 96.4,17.7 94.2,19 						"/>
					</defs>
					<clipPath id="SVGID_102_">
						<use xlink:href="#SVGID_101_"  style="overflow:visible;"/>
					</clipPath>
					<g class="st53">
						<g>
							<g>
								<g>
									<polyline class="st3" points="96.4,17.7 94.1,16.4 91.9,17.7 94.2,19 96.4,17.7 									"/>
								</g>
							</g>
						</g>
					</g>
				</g>
			</g>
		</g>
	</g>
	<g id="XMLID_16975_">
		<g>
			<g class="st1">
				<g>
					<defs>
						<polygon id="SVGID_103_" points="60,28 62.3,26.7 64.5,28 62.3,29.3 						"/>
					</defs>
					<clipPath id="SVGID_104_">
						<use xlink:href="#SVGID_103_"  style="overflow:visible;"/>
					</clipPath>
					<g class="st54">
						<g>
							<g>
								<g>
									<polyline class="st3" points="64.5,28 62.3,26.7 60,28 62.3,29.3 64.5,28 									"/>
								</g>
							</g>
						</g>
					</g>
				</g>
			</g>
		</g>
	</g>
	<g id="XMLID_16965_">
		<g>
			<g class="st1">
				<g>
					<defs>
						<polygon id="SVGID_105_" points="85.7,8 88,6.7 90.3,8 88,9.3 						"/>
					</defs>
					<clipPath id="SVGID_106_">
						<use xlink:href="#SVGID_105_"  style="overflow:visible;"/>
					</clipPath>
					<g class="st55">
						<g>
							<g>
								<g>
									<polyline class="st3" points="90.3,8 88,6.7 85.7,8 88,9.3 90.3,8 									"/>
								</g>
							</g>
						</g>
					</g>
				</g>
			</g>
		</g>
	</g>
	<g id="XMLID_16955_">
		<g>
			<g class="st1">
				<g>
					<defs>
						<polygon id="SVGID_107_" points="95.9,7.1 98.2,5.8 100.5,7.1 98.2,8.4 						"/>
					</defs>
					<clipPath id="SVGID_108_">
						<use xlink:href="#SVGID_107_"  style="overflow:visible;"/>
					</clipPath>
					<g class="st56">
						<g>
							<g>
								<g>
									<polyline class="st3" points="100.5,7.1 98.2,5.8 95.9,7.1 98.2,8.4 100.5,7.1 									"/>
								</g>
							</g>
						</g>
					</g>
				</g>
			</g>
		</g>
	</g>
	<g id="XMLID_16945_">
		<g>
			<g class="st1">
				<g>
					<defs>
						<polygon id="SVGID_109_" points="39.4,9.4 41.7,8.1 44,9.4 41.7,10.7 						"/>
					</defs>
					<clipPath id="SVGID_110_">
						<use xlink:href="#SVGID_109_"  style="overflow:visible;"/>
					</clipPath>
					<g class="st57">
						<g>
							<g>
								<g>
									<polyline class="st3" points="44,9.4 41.7,8.1 39.4,9.4 41.7,10.7 44,9.4 									"/>
								</g>
							</g>
						</g>
					</g>
				</g>
			</g>
		</g>
	</g>
	<g id="XMLID_16935_">
		<g>
			<g class="st1">
				<g>
					<defs>
						<polygon id="SVGID_111_" points="51.3,4.3 53.5,3 55.8,4.3 53.5,5.7 						"/>
					</defs>
					<clipPath id="SVGID_112_">
						<use xlink:href="#SVGID_111_"  style="overflow:visible;"/>
					</clipPath>
					<g class="st58">
						<g>
							<g>
								<g>
									<polyline class="st3" points="55.8,4.3 53.5,3 51.3,4.3 53.5,5.7 55.8,4.3 									"/>
								</g>
							</g>
						</g>
					</g>
				</g>
			</g>
		</g>
	</g>
	<g id="XMLID_16925_">
		<g>
			<g class="st1">
				<g>
					<defs>
						<polygon id="SVGID_113_" points="65.5,3.3 67.8,2 70.1,3.3 67.8,4.6 						"/>
					</defs>
					<clipPath id="SVGID_114_">
						<use xlink:href="#SVGID_113_"  style="overflow:visible;"/>
					</clipPath>
					<g class="st59">
						<g>
							<g>
								<g>
									<polyline class="st3" points="70.1,3.3 67.8,2 65.5,3.3 67.8,4.6 70.1,3.3 									"/>
								</g>
							</g>
						</g>
					</g>
				</g>
			</g>
		</g>
	</g>
	<g id="XMLID_16915_">
		<g>
			<g class="st1">
				<g>
					<defs>
						<polygon id="SVGID_115_" points="44.4,7.1 46.7,5.8 49,7.1 46.7,8.4 						"/>
					</defs>
					<clipPath id="SVGID_116_">
						<use xlink:href="#SVGID_115_"  style="overflow:visible;"/>
					</clipPath>
					<g class="st60">
						<g>
							<g>
								<g>
									<polyline class="st3" points="49,7.1 46.7,5.8 44.4,7.1 46.7,8.4 49,7.1 									"/>
								</g>
							</g>
						</g>
					</g>
				</g>
			</g>
		</g>
	</g>
	<g id="XMLID_16905_">
		<g>
			<g class="st1">
				<g>
					<defs>
						<polygon id="SVGID_117_" points="73,2.7 75.3,1.4 77.5,2.7 75.3,4.1 						"/>
					</defs>
					<clipPath id="SVGID_118_">
						<use xlink:href="#SVGID_117_"  style="overflow:visible;"/>
					</clipPath>
					<g class="st61">
						<g>
							<g>
								<g>
									<polyline class="st3" points="77.5,2.7 75.3,1.4 73,2.7 75.3,4.1 77.5,2.7 									"/>
								</g>
							</g>
						</g>
					</g>
				</g>
			</g>
		</g>
	</g>
	<rect id="XMLID_3120_" x="17.4" y="158.5" class="st62" width="3.6" height="3.6"/>
	<rect id="XMLID_3119_" x="11.4" y="168.2" class="st62" width="3.6" height="3.6"/>
	<rect id="XMLID_3117_" x="5.3" y="155.7" class="st62" width="3.6" height="3.6"/>
	<rect id="XMLID_3116_" y="143.1" class="st62" width="3.6" height="3.6"/>
</g>
<path id="XMLID_4937_" class="st63" d="M1,80.1l27.4-14.7l3.2-2.2l0.8-6.5l-7.9-7.8l-1.2-7l-10.8-6.5l16-21.1l23-11.5l24.9-1.6
	L123.8,5l44.6,20.4l20,16.4l6.1,22.3l0,0c1.7,3.8,0.4,8.4-3.1,10.7l-5.8,3.9c-6.9,4.6-15.2,6.7-23.5,5.8l-11.5-1.2l-15.1-4.7
	c0,0-16.7-2.6-18.6-2.4c-1.8,0.2-21.4,0.8-21.4,0.8L79,71.3l-8.9-1.5l-11.8-1.1L18.5,90.8L1,80.1z"/>
</svg>
