<?xml version="1.0" encoding="utf-8"?>
<!-- Generator: Adobe Illustrator 19.2.1, SVG Export Plug-In . SVG Version: 6.00 Build 0)  -->
<svg version="1.1" id="Layer_1" xmlns="http://www.w3.org/2000/svg" xmlns:xlink="http://www.w3.org/1999/xlink" x="0px" y="0px"
	 viewBox="0 0 30.1 33.6" style="enable-background:new 0 0 30.1 33.6;" xml:space="preserve">
<style type="text/css">
	.st0{fill:#F37D53;}
	.st1{opacity:0.2;fill:url(#XMLID_6_);}
	.st2{opacity:0.48;fill:url(#XMLID_7_);}
</style>
<g id="XMLID_1_">
	<path id="XMLID_4_" class="st0" d="M29.8,9.5l-0.2,14.9c0,0.7-0.4,1.3-1,1.6l-13,7.3c-0.6,0.3-1.3,0.3-1.9,0L1.2,25.8
		c-0.6-0.3-0.9-1-0.9-1.6l0-15c0-0.7,0.4-1.3,1-1.6l13-7.3c0.6-0.3,1.3-0.3,1.9,0l12.9,7.6C29.5,8.2,29.8,8.8,29.8,9.5z"/>
	<linearGradient id="XMLID_6_" gradientUnits="userSpaceOnUse" x1="22.3667" y1="30.1914" x2="22.358" y2="14.9914">
		<stop  offset="0" style="stop-color:#FFFFFF"/>
		<stop  offset="1" style="stop-color:#000000"/>
	</linearGradient>
	<path id="XMLID_3_" class="st1" d="M14.9,33V18.3c0-0.4,0.2-0.8,0.6-1l14.3-8.4l-0.1,15.3c0,0.9-0.5,1.7-1.3,2.2l-12.7,7.1
		C15.3,33.6,14.9,33.3,14.9,33z"/>
	<linearGradient id="XMLID_7_" gradientUnits="userSpaceOnUse" x1="7.5596" y1="30.311" x2="7.5508" y2="14.9164">
		<stop  offset="0" style="stop-color:#FFFFFF"/>
		<stop  offset="1" style="stop-color:#000000"/>
	</linearGradient>
	<path id="XMLID_2_" class="st2" d="M0.6,8.7l13.9,8.8c0.3,0.2,0.4,0.5,0.4,0.8v14.7c0,0.4-0.5,0.7-0.8,0.5L1,25.7
		c-0.3-0.2-0.7-0.8-0.7-1.4L0.2,8.9C0.2,8.7,0.4,8.6,0.6,8.7z"/>
</g>
</svg>
