<?xml version="1.0" encoding="utf-8"?>
<!-- Generator: Adobe Illustrator 19.2.1, SVG Export Plug-In . SVG Version: 6.00 Build 0)  -->
<svg version="1.1" id="Layer_1" xmlns="http://www.w3.org/2000/svg" xmlns:xlink="http://www.w3.org/1999/xlink" x="0px" y="0px"
	 viewBox="0 0 43.1 29.3" style="enable-background:new 0 0 43.1 29.3;" xml:space="preserve">
<style type="text/css">
	.st0{opacity:0.49;fill:url(#XMLID_2_);}
	.st1{opacity:0.25;fill:url(#XMLID_3_);}
	.st2{opacity:0.18;fill:#FFFFFF;}
</style>
<linearGradient id="XMLID_2_" gradientUnits="userSpaceOnUse" x1="20.4211" y1="23.9728" x2="24.8973" y2="-27.8064">
	<stop  offset="0" style="stop-color:#FFFFFF;stop-opacity:0"/>
	<stop  offset="1" style="stop-color:#F47D54"/>
</linearGradient>
<path id="XMLID_10764_" class="st0" d="M0.4,11.8L20.3,0.4c0.9-0.5,1.9-0.5,2.8,0L42.3,12c0.6,0.4,0.6,1.3,0,1.7L23.5,24.8
	c-1.3,0.8-2.9,0.8-4.1,0l-19-11.6C-0.1,12.9-0.1,12.1,0.4,11.8z"/>
<linearGradient id="XMLID_3_" gradientUnits="userSpaceOnUse" x1="20.2481" y1="33.9808" x2="24.7243" y2="-17.7984">
	<stop  offset="0" style="stop-color:#FFFFFF;stop-opacity:0"/>
	<stop  offset="1" style="stop-color:#F47D54"/>
</linearGradient>
<path id="XMLID_10755_" class="st1" d="M0.8,15.7L20.7,4.3c0.9-0.5,1.9-0.5,2.8,0l19.2,11.6c0.6,0.4,0.6,1.3,0,1.7L23.8,28.8
	c-1.3,0.8-2.9,0.8-4.1,0l-19-11.6C0.2,16.8,0.2,16.1,0.8,15.7z"/>
<g>
	<rect id="XMLID_4091_" x="10.5" y="7.7" class="st2" width="1.2" height="1.2"/>
	<rect id="XMLID_4093_" x="13.6" y="9.4" class="st2" width="0.7" height="0.7"/>
	<rect id="XMLID_4092_" x="9.8" y="11.6" class="st2" width="0.6" height="0.6"/>
</g>
<g>
	<rect id="XMLID_4087_" x="26.7" y="9.7" class="st2" width="0.7" height="0.7"/>
	<rect id="XMLID_4089_" x="29.2" y="8.9" class="st2" width="1.1" height="1.1"/>
	<rect id="XMLID_4090_" x="29" y="12" class="st2" width="0.6" height="0.6"/>
</g>
<g>
	<rect id="XMLID_4121_" x="22" y="17.6" class="st2" width="1.3" height="1.3"/>
	<rect id="XMLID_4122_" x="25.1" y="19.5" class="st2" width="0.6" height="0.6"/>
</g>
</svg>
