<?xml version="1.0" encoding="utf-8"?>
<!-- Generator: Adobe Illustrator 19.2.0, SVG Export Plug-In . SVG Version: 6.00 Build 0)  -->
<!DOCTYPE svg PUBLIC "-//W3C//DTD SVG 1.1//EN" "http://www.w3.org/Graphics/SVG/1.1/DTD/svg11.dtd">
<svg version="1.1" id="lines" xmlns="http://www.w3.org/2000/svg" xmlns:xlink="http://www.w3.org/1999/xlink" x="0px" y="0px"
	 viewBox="0 0 307.4 306" style="enable-background:new 0 0 307.4 306;" xml:space="preserve">
<style type="text/css">
	.st0{fill:none;stroke:#F3775A;stroke-width:0.3;stroke-miterlimit:10;}

	#lines{
		overflow: visible;
    border:solid;
	}

.line-1 {
  animation-name: waveyy;
  animation-duration: 2.5s;
  animation-iteration-count: infinite;
  animation-timing-function: ease-out;
  transform-origin: 50% 50% 0;
}

.line-2 {
  animation-name: waveyy;
  animation-duration: 3.2s;
  animation-iteration-count: infinite;
  animation-timing-function: linear;
  transform-origin: 50% 50% 0;
}
.line-3 {
  animation-name: max-waveyy;
  animation-direction: reverse;
  animation-duration: 5s;
  animation-iteration-count: infinite;
  animation-timing-function: linear;
  transform-origin: 50% 50% 0;
  animation-delay:2s;
}
.line-4 {
  animation-name: max-waveyy;
  animation-direction: reverse;
  animation-duration: 4.5s;
  animation-iteration-count: infinite;
  animation-timing-function: linear;
  transform-origin: 50% 50% 0;
}
.line-5 {
  animation-name: waveyy;
  animation-duration: 3s;
  animation-iteration-count: infinite;
  animation-timing-function: linear;
  transform-origin: 50% 50% 0;
  animation-delay: 0.5s;
}
@keyframes waveyy {
  0% {
    transform: rotate(0deg);
  }
  50% {
    transform: rotate(5deg);
  }
  100% {
    transform: rotate(0deg)
  }
}
@keyframes max-waveyy {
  0% {
    transform: rotate(0deg);
  }
  50% {
    transform: rotate(8deg);
  }
  100% {
    transform: rotate(0deg)
  }
}

</style>
<path class="st0 line-1" d="M224.8,293.5l43.7,0c14.9,0,21.4-6.6,21.4-14.7V47.5c0-17.9-14.5-32.4-32.4-32.4h-232
	c-8.1,0-14.7,6.6-14.7,14.7l0,49.6c0,56.5,25.6,108.4,65.8,148.1c0.3,0.3,0.7,0.7,1,1C116.8,268.5,168.8,293.5,224.8,293.5z"/>
<path class="st0 line-2" d="M225.7,293l43.6,2.4c14.8,0.8,21.7-5.4,22.2-13.5L304.5,51c1-17.9-12.7-33.2-30.6-34.2L42.3,3.8
	c-8.1-0.5-15.1,5.8-15.6,13.9l-2.8,49.5C20.8,123.6,43.5,177,81.3,218.9c0.3,0.4,0.7,0.7,1,1.1C119.3,262,169.8,289.9,225.7,293z"/>
<path class="st0 line-3" d="M208.7,298.7l43.6,2.4c14.8,0.8,21.7-5.4,22.2-13.5l12.9-230.9c1-17.9-12.7-33.2-30.6-34.2L25.2,9.5
	c-8.1-0.5-15.1,5.8-15.6,13.9L6.9,73c-3.2,56.4,19.5,109.7,57.4,151.6c0.3,0.4,0.7,0.7,1,1.1C102.3,267.7,152.7,295.6,208.7,298.7z"
	/>
<path class="st0 line-4" d="M220.2,297.4l43.6,2.4c14.8,0.8,21.7-5.4,22.1-13.6l12.7-230.9c1-17.9-12.7-33.2-30.6-34.2L36.4,8.4
	C28.3,8,21.3,14.2,20.9,22.3l-2.7,49.5c-3.1,56.4,19.7,109.7,57.6,151.5c0.3,0.4,0.7,0.7,1,1.1C113.8,266.5,164.3,294.3,220.2,297.4
	z"/>
<path class="st0 line-5" d="M236.1,289.5l43.6-3.2c14.8-1.1,20.8-8.2,20.2-16.3l-17-230.6c-1.3-17.9-16.9-31.3-34.7-30L16.8,26.5
	C8.7,27.1,2.6,34.2,3.2,42.3l3.7,49.5C11,148.1,40.4,198,83.3,234.7c0.4,0.3,0.7,0.6,1.1,1C126.6,272.5,180.2,293.6,236.1,289.5z"/>
</svg>
