<?xml version="1.0" encoding="utf-8"?>
<!-- Generator: Adobe Illustrator 19.0.0, SVG Export Plug-In . SVG Version: 6.00 Build 0)  -->
<svg version="1.1" id="Layer_1" xmlns="http://www.w3.org/2000/svg" xmlns:xlink="http://www.w3.org/1999/xlink" x="0px" y="0px"
	 viewBox="-259 325 93 144" style="enable-background:new -259 325 93 144;" xml:space="preserve">
<style type="text/css">
	.st0{display:none;fill:none;stroke:#000000;stroke-width:6;stroke-linecap:round;stroke-linejoin:round;stroke-miterlimit:10;}
	.st1{display:none;fill:none;stroke:#999999;stroke-width:8;stroke-linecap:round;stroke-linejoin:round;stroke-miterlimit:10;}
	.st2{fill:#999999;}
</style>
<circle class="st0" cx="-231" cy="392.9" r="62.3"/>
<polyline class="st1" points="-185.5,341.3 -244.1,399.9 -185.5,458.4 "/>
<g>
	<path class="st2" d="M-185.5,462.4c-1,0-2-0.4-2.8-1.2l-58.6-58.5c-0.8-0.8-1.2-1.8-1.2-2.8s0.4-2.1,1.2-2.8l58.6-58.6
		c1.6-1.6,4.1-1.6,5.7,0c1.6,1.6,1.6,4.1,0,5.7l-55.8,55.8l55.8,55.7c1.6,1.6,1.6,4.1,0,5.7C-183.5,462-184.5,462.4-185.5,462.4z"/>
</g>
</svg>
