<?xml version="1.0" encoding="utf-8"?>
<!-- Generator: Adobe Illustrator 19.0.0, SVG Export Plug-In . SVG Version: 6.00 Build 0)  -->
<svg version="1.1" id="Layer_1" xmlns="http://www.w3.org/2000/svg" xmlns:xlink="http://www.w3.org/1999/xlink" x="0px" y="0px"
	 viewBox="-255 348.5 100 71" style="enable-background:new -255 348.5 100 71;" xml:space="preserve">
<style type="text/css">
	.st0{fill:#F79237;}
</style>
<g transform="translate(0,-952.36218)">
	<g>
		<path class="st0" d="M-205,1371.4c0.3,0,0.7-0.2,0.9-0.5l14-24c0.4-0.6-0.2-1.6-0.9-1.5h-13v-43c0-0.6-0.4-1-1-1s-1,0.4-1,1v43
			h-13c-0.7,0-1.2,0.9-0.9,1.5l14,24C-205.7,1371.2-205.4,1371.4-205,1371.4z M-205,1368.4l-12.2-21h24.5L-205,1368.4z"/>
		<path class="st0" d="M-205,1371.9c-0.5,0-1-0.3-1.3-0.7l-14-24c-0.2-0.5-0.2-1,0.1-1.5c0.3-0.5,0.7-0.7,1.2-0.7h12.5v-42.5
			c0-0.9,0.6-1.5,1.5-1.5s1.5,0.6,1.5,1.5v42.5h12.5c0.4-0.1,1,0.2,1.3,0.7c0.3,0.5,0.3,1.1,0,1.6l-14,24
			C-204,1371.6-204.5,1371.9-205,1371.9z M-219,1345.9c-0.1,0-0.3,0.1-0.4,0.3c-0.1,0.2-0.1,0.4-0.1,0.5l14,24
			c0.1,0.2,0.3,0.3,0.5,0.3c0.1,0,0.4-0.1,0.5-0.3l14-24c0.1-0.1,0.1-0.3,0-0.5c-0.1-0.1-0.2-0.3-0.4-0.2l-13.6,0v-43.5
			c0-0.3-0.2-0.5-0.5-0.5s-0.5,0.2-0.5,0.5v43.5H-219z M-205,1369.4l-13.1-22.5h26.2L-205,1369.4z M-216.3,1347.9l11.3,19.5
			l11.4-19.5H-216.3z"/>
	</g>
</g>
</svg>
