<?xml version="1.0" encoding="utf-8"?>
<!-- Generator: Adobe Illustrator 19.2.0, SVG Export Plug-In . SVG Version: 6.00 Build 0)  -->
<!DOCTYPE svg PUBLIC "-//W3C//DTD SVG 1.1//EN" "http://www.w3.org/Graphics/SVG/1.1/DTD/svg11.dtd">
<svg version="1.1" id="Layer_1" xmlns="http://www.w3.org/2000/svg" xmlns:xlink="http://www.w3.org/1999/xlink" x="0px" y="0px"
	 viewBox="0 0 6.3 6.4" style="enable-background:new 0 0 6.3 6.4;" xml:space="preserve">
<style type="text/css">
	.st0{fill:#F8983A;}
</style>
<path class="st0" d="M5.2,3.7C5.1,3.6,4.9,3.5,4.8,3.5S4.4,3.6,4.3,3.7L3.9,4.2c0,0-0.1,0-0.1-0.1c0,0-0.1,0-0.1-0.1
	C3.3,3.8,2.9,3.5,2.5,3C2.4,2.8,2.3,2.6,2.2,2.5c0.1-0.1,0.2-0.2,0.3-0.3c0,0,0.1-0.1,0.1-0.1c0.3-0.3,0.3-0.6,0-0.9L2.2,0.7
	c0,0-0.1-0.1-0.1-0.1C2,0.5,1.9,0.5,1.9,0.4C1.7,0.2,1.6,0.2,1.4,0.2C1.2,0.2,1.1,0.2,1,0.4c0,0,0,0,0,0L0.5,0.8
	C0.3,1,0.2,1.2,0.2,1.5c0,0.4,0.1,0.8,0.2,1c0.2,0.6,0.5,1.1,1,1.7C2,4.9,2.7,5.4,3.5,5.8C3.8,6,4.2,6.1,4.7,6.2c0,0,0.1,0,0.1,0
	c0.3,0,0.6-0.1,0.8-0.3c0,0,0,0,0,0c0.1-0.1,0.1-0.2,0.2-0.2C5.9,5.5,5.9,5.5,6,5.4C6.1,5.3,6.2,5.1,6.2,5S6.1,4.6,6,4.5L5.2,3.7z
	 M5.7,5.2C5.7,5.2,5.7,5.2,5.7,5.2C5.7,5.2,5.6,5.3,5.5,5.3C5.5,5.4,5.4,5.5,5.3,5.6C5.1,5.7,5,5.8,4.8,5.8c0,0,0,0-0.1,0
	c-0.4,0-0.8-0.2-1-0.3c-0.8-0.4-1.4-0.9-2-1.6c-0.5-0.6-0.8-1.1-1-1.6C0.6,2,0.5,1.7,0.6,1.5c0-0.2,0.1-0.3,0.2-0.4l0.5-0.5
	c0.1-0.1,0.1-0.1,0.2-0.1c0.1,0,0.2,0.1,0.2,0.1c0,0,0,0,0,0c0.1,0.1,0.2,0.2,0.2,0.2C1.9,0.9,1.9,1,2,1l0.4,0.4
	c0.1,0.1,0.1,0.3,0,0.4c0,0-0.1,0.1-0.1,0.1C2.1,2,2,2.1,1.9,2.2c0,0,0,0,0,0C1.8,2.4,1.8,2.5,1.8,2.5c0,0,0,0,0,0
	C1.9,2.8,2.1,3,2.3,3.3l0,0C2.6,3.7,3,4.1,3.5,4.4c0.1,0,0.1,0.1,0.2,0.1c0,0,0.1,0,0.1,0.1c0,0,0,0,0,0c0,0,0.1,0,0.1,0
	c0.1,0,0.2-0.1,0.2-0.1L4.6,4c0,0,0.1-0.1,0.2-0.1C4.9,3.9,4.9,4,5,4c0,0,0,0,0,0l0.7,0.7C5.8,4.9,5.8,5,5.7,5.2"/>
</svg>
