<?xml version="1.0" encoding="utf-8"?>
<!-- Generator: Adobe Illustrator 19.2.0, SVG Export Plug-In . SVG Version: 6.00 Build 0)  -->
<!DOCTYPE svg PUBLIC "-//W3C//DTD SVG 1.1//EN" "http://www.w3.org/Graphics/SVG/1.1/DTD/svg11.dtd">
<svg version="1.1" id="Home_page" xmlns="http://www.w3.org/2000/svg" xmlns:xlink="http://www.w3.org/1999/xlink" x="0px" y="0px"
	 viewBox="0 0 86 84" style="enable-background:new 0 0 86 84;" xml:space="preserve">
<style type="text/css">
	.st0{fill:#FFFFFF;}
</style>
<path class="st0" d="M49.5,77.5c2.8,1.1,5.7,1.7,8.7,1.7C71,79.2,81.4,68.8,81.4,56c0-9.5-6.1-18.2-14.9-21.6L66,34.3V14.8l0.6,0
	c1.6-0.2,2.9-1.7,2.9-3.3c0-1.7-1.3-3.4-3.1-3.4H50.1c-1.7,0-3.2,1.6-3.2,3.4c0,1.6,1.1,3.1,2.7,3.2l0.4,0.1v19.5l-0.2,0.1
	c-3.6,1.4-6.8,3.7-9.3,6.7c-0.1,0.1-0.2,0.3-0.1,0.5c0,0.2,0.1,0.4,0.3,0.5c0.3,0.2,0.8,0.2,1-0.1c2.5-3,6-5.3,9.7-6.6
	c0.3-0.1,0.7-0.4,0.7-0.7V15h7.1c0.4,0,0.7-0.6,0.7-1s-0.3-1-0.7-1h-9c-1,0-1.7-0.5-1.7-1.5s0.8-1.5,1.7-1.5h16.3
	c1,0,1.7,0.5,1.7,1.5S67.4,13,66.4,13H64c-0.4,0-0.7,0.6-0.7,1s0.3,1,0.7,1h1v19.8c0,0.3,0.1,0.6,0.4,0.7C74.2,38.5,80,46.8,80,56
	c0,12-9.8,21.7-21.7,21.7c-2.8,0-5.6-0.5-8.2-1.6c-0.1,0-0.2-0.1-0.3-0.1c-0.1,0-0.2,0-0.3,0.1c-0.2,0.1-0.3,0.2-0.4,0.4
	c-0.1,0.2-0.1,0.4,0,0.6C49.2,77.3,49.4,77.4,49.5,77.5z"/>
<circle class="st0" cx="67.4" cy="60.3" r="1.2"/>
<circle class="st0" cx="62.5" cy="65.2" r="1.2"/>
<path class="st0" d="M50.5,72.6c2.4,1.1,5,1.7,7.7,1.7c10.1,0,18.3-8.2,18.3-18.3c0-3.2-0.8-6.4-2.4-9.1c-0.1-0.3-0.4-0.4-0.7-0.4
	l-0.4,0.1c-1.9,0.5-2.8,1.3-3.6,1.9c-0.9,0.7-1.6,1.3-3.5,1.3c-1.6,0-2.4-0.7-3.3-1.5c-1-0.8-2.1-1.8-4.3-1.8c-2.2,0-3.3,1-4.3,1.8
	c-0.9,0.8-1.7,1.5-3.3,1.5c-1.9,0-2.6-0.6-3.5-1.3c-0.8-0.6-1.7-1.4-3.5-1.9l-0.5-0.1c-0.3,0-0.6,0.1-0.7,0.4
	c-0.1,0.2-0.2,0.4-0.1,0.6c0.1,0.2,0.2,0.3,0.3,0.4C42.8,48,43,48,43.1,48l0.1,0l0.1,0c1.5,0.4,2.2,1,3,1.6c1,0.8,2,1.6,4.4,1.6
	c2.2,0,3.3-1,4.3-1.8c0.9-0.8,1.7-1.5,3.3-1.5s2.4,0.7,3.3,1.5c1,0.8,2.1,1.8,4.3,1.8c2.4,0,3.4-0.8,4.4-1.6c0.6-0.5,1.3-1,2.4-1.4
	l0.4-0.1l0.2,0.4c1.2,2.3,1.8,5,1.8,7.6c0,9.3-7.5,16.8-16.8,16.8c-2.5,0-4.9-0.5-7.1-1.6h0c-0.1,0-0.2-0.1-0.3-0.1
	c-0.1,0-0.2,0-0.2,0c-0.2,0.1-0.3,0.2-0.4,0.4c-0.1,0.2-0.1,0.4,0,0.6C50.2,72.3,50.3,72.5,50.5,72.6z"/>
<path class="st0" d="M7,76.1C8.4,78,10.7,79,13.5,79h25.3c2.8,0,5.2-1,6.6-2.9c1.4-1.9,1.5-4.5,0.6-7.1L34,34.6V9.9l0.6,0
	c1.6-0.2,2.9-1.8,2.9-3.4c0-1.7-1.4-3.4-3.1-3.4H18c-1.7,0-3.2,1.7-3.2,3.4c0,1.6,1.2,3.1,2.8,3.3L18,9.9v20.1c0,0.4,0.6,0.7,1,0.7
	c0.4,0,1-0.3,1-0.7V10h7c0.4,0,0.7-0.6,0.7-1S27.4,8,27,8h-9c-1,0-1.7-0.5-1.7-1.5c0-1,0.8-1.5,1.7-1.5h16.3c1,0,1.7,0.5,1.7,1.5
	c0,1-0.8,1.5-1.7,1.5h-2.4c-0.4,0-0.7,0.6-0.7,1s0.3,1,0.7,1H33v24.8c0,0.1-0.1,0.2-0.1,0.2l11.8,34.4c0.8,2.2,0.6,4.5-0.5,6
	c-1.1,1.6-3,2.5-5.4,2.5H13.5c-2.4,0-4.3-1-5.4-2.5s-1.3-3.7-0.5-5.9l11.9-34.4c0.1-0.4-0.1-0.8-0.4-0.9c-0.1,0-0.2,0-0.2,0
	c-0.3,0-0.6,0.2-0.7,0.5L6.3,68.9C5.3,71.6,5.6,74.1,7,76.1z"/>
<path class="st0" d="M14.3,60.6l-3.4,9.9c-0.4,1.2-0.4,2,0.1,2.6s1.4,0.8,2.6,0.8h25.3c1.2,0,2.1-0.2,2.6-0.8s0.5-1.5,0.1-2.7
	L38,60.6c-0.1-0.2-0.3-0.4-0.5-0.4c-0.2-0.1-0.5,0-0.6,0.1c-0.7,0.6-1.5,1-3.1,1c-1.6,0-2.4-0.7-3.3-1.5c-1-0.8-2.1-1.8-4.3-1.8
	c-2.2,0-3.3,1-4.3,1.8c-0.9,0.8-1.7,1.5-3.3,1.5c-1.7,0-2.4-0.5-3.1-1c-0.1-0.1-0.3-0.2-0.4-0.2c-0.1,0-0.1,0-0.2,0
	C14.6,60.2,14.4,60.4,14.3,60.6z M15.4,62l0.5,0.2c0.8,0.3,1.6,0.5,2.7,0.5c2.2,0,3.3-1,4.3-1.8l0,0c0.9-0.8,1.7-1.5,3.3-1.5
	c1.6,0,2.4,0.7,3.3,1.5c1,0.8,2.1,1.8,4.3,1.8c1.1,0,2-0.2,2.7-0.5L37,62l3.1,9c0.2,0.6,0.2,1.1,0.2,1.2l0,0.3L40,72.7
	c-0.1,0.1-0.5,0.3-1.2,0.3H13.5c-0.7,0-1.1-0.2-1.2-0.3c0,0-0.1-0.1-0.2-0.2c0-0.1-0.1-0.3-0.1-0.3c0-0.1,0-0.6,0.2-1.2L15.4,62z"/>
</svg>
