<?xml version="1.0" encoding="utf-8"?>
<!-- Generator: Adobe Illustrator 19.2.0, SVG Export Plug-In . SVG Version: 6.00 Build 0)  -->
<!DOCTYPE svg PUBLIC "-//W3C//DTD SVG 1.1//EN" "http://www.w3.org/Graphics/SVG/1.1/DTD/svg11.dtd">
<svg version="1.1" id="Home_page" xmlns="http://www.w3.org/2000/svg" xmlns:xlink="http://www.w3.org/1999/xlink" x="0px" y="0px"
	 viewBox="0 0 86 84" style="enable-background:new 0 0 86 84;" xml:space="preserve">
<style type="text/css">
	.st0{fill:#FFFFFF;}
</style>
<path class="st0" d="M11.2,81h62.7c1.8,0,3.3-1.5,3.4-3.4L79.8,26l0.2-0.2c0.7-0.4,1-1.1,1-1.9v-5.2c0-0.6-0.2-0.9-0.6-1.3
	C80,17,79.6,17,79,17H61v-6.9l9-5c0.2-0.1,0.5-0.3,0.6-0.5c0-0.1,0.1-0.4,0-0.6c-0.3-0.4-0.8-0.5-1.2-0.3l-9.1,5.2c0,0,0,0-0.1,0.1
	C60,9.1,60,9.4,60,9.6V17H42.5c-1.2,0-2.5,0.6-2.5,1.8V24c0,0.8,0.6,1.5,1.3,1.8l0.3,0.1L42,32l-0.6-0.1c-3.2-0.6-6.7-0.9-10.6-0.9
	C14.7,31,4,36.6,4,44.8v1.3C4,47.3,4.8,48,6,48h2v4.1l-0.5,0.1C5.8,52.7,4.4,54,4,55.8C3.8,57,4.1,58.3,5,59.4
	c0.6,0.7,1.6,1.3,2.6,1.7L8,61.2v2.3l-0.5,0C5.6,63.5,4,65.1,4,67v2.5C4,71.4,5.6,73,7.5,73l0.5,0v4.4C8,79.4,9.2,81,11.2,81z
	 M52,77.5c0,1.1-0.6,1.5-1.7,1.5H11.2C10.1,79,9,78.5,9,77.5V73h43V77.5z M75.7,77.3c0,1.1-0.9,1.7-1.8,1.7H53.3l0.2-0.5
	c0.1-0.3,0.3-0.5,0.3-0.7c0-0.1,0.1-0.1,0.1-0.1v-4.4l0.3,0c1.5-0.1,2.8-1,3.3-2.4c0.2-0.5,0.4-0.9,0.4-1.3V67c0-2-1.8-3-3.8-3H54
	v-2.6l0.2-0.1c1.4-0.4,2.5-1.4,3.1-2.7l0.1-0.4l0.4,0.1c0.9,0.3,1.8,0.4,2.9,0.4c6.3,0,11.2-5,11.4-11.4c0-6.2-5-11.2-11.2-11.2
	c-2.1,0-4.1,0.6-5.9,1.7L54.7,38l-0.3-0.3c-2.3-2.2-5.9-4-10.3-5.2l-0.4-0.1L43.4,26h34.8L75.7,77.3z M57.8,44.3
	c-0.1-1.7-0.6-3.1-1.5-4.4c-0.1-0.1-0.2-0.2-0.2-0.3l-0.3-0.5l0.5-0.3c1.5-0.7,3-1.1,4.5-1.1c5.4,0,9.6,4.2,9.6,9.6
	s-4.2,9.6-9.6,9.6c-0.9,0-1.7-0.1-2.7-0.4l-0.3-0.1l0-0.4c-0.1-1.2-0.7-2.5-1.8-3.3l0,0c-0.5-0.4-1-0.7-1.6-0.9L54,51.9V48h1.5
	c1.2,0,2.5-0.7,2.5-1.9v-1.3C58,44.7,57.8,44.5,57.8,44.3z M42,25v-7h37v7H42z M5,47v-2.2c0-7.2,10.6-12.2,25.5-12.2
	c11.8,0,21.1,3.2,24.2,8.3c0.8,1.3,1.2,2.6,1.2,4V47H5z M52,48v4H9v-4H52z M6.2,58.3c-0.3-0.3-0.8-0.8-0.6-2.1
	C5.8,54.9,7.2,54,8.8,54h44.1c1.5,0,3.1,1.2,3.1,2.8c-0.1,1.5-1.5,2.8-3.2,2.9c-0.1,0-0.2,0-0.3,0l-0.1,0l-0.1,0
	c-0.6-0.1-1.1-0.3-1.6-0.8c-0.6-0.4-0.9-1.2-0.9-2.2c0-0.5-0.3-0.7-0.8-0.7h-6.5c-0.5,0-0.8,0.2-0.8,0.7c0,1.7-1.4,3.1-3.1,3.1
	s-3.1-1.3-3.1-3c0-0.5-0.3-0.7-0.8-0.7h-7.8c-0.5,0-0.8,0.2-0.8,0.7c0,1.7-1.4,3.1-3.1,3.1s-3.1-1.3-3.1-3c0-0.5-0.3-0.7-0.8-0.7
	h-6.5c-0.5,0-0.8,0.2-0.8,0.7c0,0.8-0.3,1.7-1,2.2c-0.4,0.5-1.1,0.7-2,0.7C7.8,59.6,6.9,59.1,6.2,58.3z M52,61.3V64H9v-2.7l0.6-0.1
	c0.8-0.2,1.6-0.5,2.2-1.1c0.6-0.6,1.1-1.6,1.3-2.5l0.1-0.6h4.8l0.1,0.6c0.6,2.1,2.5,3.7,4.6,3.7c2.2,0,4.1-1.6,4.6-3.7l0.1-0.5h6.4
	l0.1,0.6c0.6,2.1,2.5,3.7,4.6,3.7c2.2,0,4.1-1.6,4.6-3.7l0.1-0.5h5l0.1,0.6c0.3,1.1,0.7,1.9,1.3,2.4c0.6,0.5,1.3,1,2.1,1.1L52,61.3z
	 M7.4,72c-1,0-2.4-1.4-2.4-2.4v-2.5c0-0.7,0.4-1.2,0.8-1.6C6.4,65,7.2,65,7.3,65l1.2,0h45.7c1.1,0,1.8,1,1.8,2v2.5
	c0,1.1-0.7,2.5-1.8,2.5H7.4z"/>
</svg>
