<?xml version="1.0" encoding="utf-8"?>
<!-- Generator: Adobe Illustrator 19.2.0, SVG Export Plug-In . SVG Version: 6.00 Build 0)  -->
<!DOCTYPE svg PUBLIC "-//W3C//DTD SVG 1.1//EN" "http://www.w3.org/Graphics/SVG/1.1/DTD/svg11.dtd">
<svg version="1.1" id="Home_page" xmlns="http://www.w3.org/2000/svg" xmlns:xlink="http://www.w3.org/1999/xlink" x="0px" y="0px"
	 viewBox="0 0 86 84" style="enable-background:new 0 0 86 84;" xml:space="preserve">
<style type="text/css">
	.st0{fill:#FFFFFF;}
</style>
<g>
	<g>
		<g>
			<path class="st0" d="M66.1,49.6L63,55.8l-5.7-2.8l0.8-0.7c0.1-0.1,0.4-0.3,0.6-0.4c3.9-3.1,6.3-7.7,6.3-12.6V38h5v-6h-5v-7h5v-6
				h-6.1l-0.1-0.6C60.9,9.3,52.6,3,43.1,3S25.2,9.3,22.4,18.5L22.3,19H16v6h5v7h-5v6h5v1.3c0,5,2.5,9.6,6.4,12.6
				c0.2,0.1,0.4,0.3,0.6,0.4l0.8,0.7l-5.7,2.8L20,49.6L4.2,56.7l12.4,24.9l15.8-7.2l-3.9-7.8l4.8-2.2l0.2,0.6
				c1.2,4.3,5.1,7.3,9.6,7.3s8.4-3,9.6-7.3l0.2-0.6l4.8,2.2l-3.9,7.8l15.8,7.2l12.4-24.9L66.1,49.6z M68,33v4h-3v-4H68z M68,20v4
				h-3.3l0-0.6c-0.1-0.9-0.2-1.9-0.3-2.7L64.2,20H68z M21,37h-3v-4h3V37z M21.8,20.7c-0.1,0.8-0.2,1.8-0.3,2.7l0,0.6H18v-4h3.9
				L21.8,20.7z M23,30.2c0-2.7,2.2-5.2,4.8-5.2h5.7c2.7,0,4.8,2.3,4.8,5c0,2.8-1.2,5.6-3.4,7.4l-2.6,2.2c-0.9,0.7-2,1.1-3.1,1.1
				c-1.7,0-3.3-0.9-4.1-2.3c-1.4-2.4-2.2-5-2.2-7.8V30.2z M17.4,79.5l-11-22l3.8-1.7l11,22L17.4,79.5z M30.2,73.7l-7.6,3.4l-11-22
				l7.6-3.4L30.2,73.7z M27.8,65.2l-4-8l6.1-3l0.3,0.3c1.8,2.3,2.8,5,2.9,7.9l0,0.3L27.8,65.2z M43.1,70.6c-4.6,0-8.3-3.7-8.3-8.3
				s3.7-8.3,8.3-8.3c4.6,0,8.3,3.7,8.3,8.3S47.6,70.6,43.1,70.6z M52.5,57.3l-0.4,1l-0.5-0.9c-1.8-3.1-5.1-5-8.6-5
				c-3.5,0-6.8,1.9-8.6,5L34,58.3l-0.4-1c-1.1-2.6-2.8-4.9-5-6.7C25.2,48,23.2,44,23,39.7l0-1.8l1,1.5c1.2,1.8,3.2,2.9,5.3,2.9
				c1.5,0,3-0.5,4.1-1.5l2.6-2.1c2.5-2.1,4-5.1,4-8.4c0-3.5-2.9-6.3-6.4-6.3h-5.7c-1.4,0-2.8,0.4-4,1.3L23,25.8v-1.3
				c0-11.1,8.9-20,20-20c11.1,0,20,9,20,20v1.3l-0.8-0.5c-1.2-0.9-2.5-1.3-3.9-1.3h-5.7c-3.5,0-6.4,2.8-6.4,6.3c0,3.3,1.5,6.3,4,8.4
				l2.6,2.1c1.2,1,2.6,1.5,4.1,1.5c2.1,0,4.2-1.1,5.3-2.9l1-1.5l-0.1,1.8C63,44,60.9,48,57.5,50.6C55.3,52.4,53.6,54.7,52.5,57.3z
				 M63,30.2v0.4c0,2.7-0.7,5.4-2.1,7.8c-0.9,1.4-2.4,2.3-4.1,2.3c-1.1,0-2.2-0.4-3.1-1.1l-2.6-2.1c-2.2-1.8-3.4-4.6-3.4-7.4
				c0-2.7,2.2-5,4.8-5h5.7C60.9,25,63,27.5,63,30.2z M53,62.7l0-0.3c0.2-2.9,1.2-5.6,2.9-7.9l0.3-0.3l6.1,3l-4,8L53,62.7z
				 M55.9,73.7l11-22l7.6,3.4l-11,22L55.9,73.7z M68.7,79.5l-3.8-1.7l11-22l3.8,1.7L68.7,79.5z"/>
			<path class="st0" d="M43.1,57.6c-2.6,0-4.7,2.1-4.7,4.7s2.1,4.7,4.7,4.7s4.7-2.1,4.7-4.7S45.7,57.6,43.1,57.6z M43.1,65.4
				c-1.7,0-3.1-1.4-3.1-3.1s1.4-3.1,3.1-3.1s3.1,1.4,3.1,3.1S44.8,65.4,43.1,65.4z"/>
			<rect x="42.3" y="47.2" class="st0" width="1.6" height="1.6"/>
			<rect x="42.3" y="42" class="st0" width="1.6" height="1.6"/>
			<rect x="42.3" y="36.8" class="st0" width="1.6" height="1.6"/>
		</g>
	</g>
</g>
</svg>
