<?xml version="1.0" encoding="utf-8"?>
<!-- Generator: Adobe Illustrator 19.0.0, SVG Export Plug-In . SVG Version: 6.00 Build 0)  -->
<svg version="1.1" id="Layer_1" xmlns="http://www.w3.org/2000/svg" xmlns:xlink="http://www.w3.org/1999/xlink" x="0px" y="0px"
	 viewBox="0 0 95 85" style="enable-background:new 0 0 95 85;" xml:space="preserve">
<style type="text/css">
	.st0{fill:none;stroke:#FFFFFF;stroke-width:2;stroke-linecap:round;stroke-linejoin:round;stroke-miterlimit:10;}
</style>
<circle id="XMLID_10961_" class="st0" cx="22.3" cy="20.3" r="8"/>
<circle id="XMLID_15497_" class="st0" cx="47.1" cy="15.8" r="8"/>
<circle id="XMLID_15499_" class="st0" cx="72.7" cy="20.3" r="8"/>
<circle id="XMLID_15501_" class="st0" cx="70.9" cy="66.3" r="8"/>
<circle id="XMLID_15502_" class="st0" cx="47.1" cy="66.3" r="8"/>
<circle id="XMLID_15503_" class="st0" cx="24.1" cy="66.3" r="8"/>
<path id="XMLID_15495_" class="st0" d="M60.8,50H33.6c-0.8,0-1.5-0.7-1.5-1.5V32.4c0-0.8,0.7-1.5,1.5-1.5h27.2
	c0.8,0,1.5,0.7,1.5,1.5v16.1C62.4,49.4,61.7,50,60.8,50z"/>
<path id="XMLID_15507_" class="st0" d="M47.1,30.9c0-1.8,0-15.6,0-15.6"/>
<polyline id="XMLID_15504_" class="st0" points="43.4,17.3 47.1,12.9 50.7,17.2 "/>
<path id="XMLID_15573_" class="st0" d="M47.3,50.8c0,1.8,0,15.6,0,15.6"/>
<polyline id="XMLID_15568_" class="st0" points="43.6,64.4 47.3,68.8 50.9,64.5 "/>
<polyline id="XMLID_15576_" class="st0" points="19.6,53.5 23.4,58 27,53.7 "/>
<polyline id="XMLID_15508_" class="st0" points="18.6,33.1 22.3,28.7 26,33 "/>
<polyline id="XMLID_15557_" class="st0" points="69.7,33.1 73.4,28.7 77.1,33 "/>
<polyline id="XMLID_15446_" class="st0" points="22.3,29.8 22.3,40.5 31.5,40.5 "/>
<polyline id="XMLID_15566_" class="st0" points="62.9,40.5 73.4,40.5 73.4,29.8 "/>
<path id="XMLID_15567_" class="st0" d="M31.2,44.4h-1.5c-3.5,0-6.4,2.9-6.4,6.4v1v5.5"/>
<polyline id="XMLID_15579_" class="st0" points="75.4,53.1 71.7,57.6 68.1,53.3 "/>
<path id="XMLID_15577_" class="st0" d="M62.9,44h2.5c3.5,0,6.4,2.9,6.4,6.4v1v5.5"/>
</svg>
