<?xml version="1.0" encoding="utf-8"?>
<!-- Generator: Adobe Illustrator 19.2.0, SVG Export Plug-In . SVG Version: 6.00 Build 0)  -->
<!DOCTYPE svg PUBLIC "-//W3C//DTD SVG 1.1//EN" "http://www.w3.org/Graphics/SVG/1.1/DTD/svg11.dtd">
<svg version="1.1" id="Home_page" xmlns="http://www.w3.org/2000/svg" xmlns:xlink="http://www.w3.org/1999/xlink" x="0px" y="0px"
	 viewBox="0 0 86 84" style="enable-background:new 0 0 86 84;" xml:space="preserve">
<style type="text/css">
	.st0{fill:#FFFFFF;}
</style>
<g>
	<g>
		<path class="st0" d="M51.8,69.1c0-0.7-0.6-1.2-1.1-1.4c-0.1-0.1-0.2-0.1-0.4-0.1c-0.1,0-0.2,0-0.3,0c-0.2,0.1-0.4,0.2-0.5,0.4
			c-0.1,0.3-0.1,0.5,0,0.8l0.1,0.2l-0.1,0.2c-0.2,0.3-0.2,0.6,0,0.8c0.2,0.4,0.7,0.6,1.2,0.4C51.6,70.1,51.8,69.5,51.8,69.1z"/>
		<path class="st0" d="M47.8,31.7l1.7-1.9c0.1-0.1,1.6-1.6,1.6-3.3c0-0.8-0.5-1.5-1.4-2.3c-0.4-0.3-0.9-0.2-1.2,0.1
			c-0.1,0.2-0.2,0.4-0.2,0.6s0.1,0.4,0.3,0.6c0.4,0.3,0.6,0.6,0.7,0.7L49,26.4v0l0.5,0l0,0.4l-0.1,0c-0.2,0.7-0.8,1.4-1.1,1.8
			l-1.8,2c-0.3,0.3-0.3,0.9,0.1,1.2C47,32,47.5,32,47.8,31.7z"/>
		<path class="st0" d="M35.8,60c0-0.2-0.1-0.4-0.2-0.6c-1.5-1.6-3.4-4.2-3.4-7.2c0-1.8,0.7-3.6,2-5.5c0.3-0.4,0.2-0.9-0.2-1.2
			c-0.1-0.1-0.3-0.2-0.5-0.2c0,0-0.1,0-0.1,0c-0.2,0-0.4,0.2-0.6,0.4c-1.5,2.2-2.3,4.3-2.3,6.5c0,3.5,2.1,6.5,3.8,8.4
			c0.3,0.3,0.9,0.4,1.2,0C35.7,60.4,35.8,60.2,35.8,60z"/>
		<path class="st0" d="M37.6,8.7c-0.1-0.4-0.4-0.7-0.8-0.7c-0.1,0-0.1,0-0.2,0L6.7,13.4c-2,0.6-3.3,2-3.3,3.5c0,1.8,0.5,2.8,1.5,4.5
			l6.8,10.9c1.4,1.7,3.2,2.6,5.5,2.6c1.8,0,3.7-0.5,4.9-1c0.4-0.1,0.7-0.6,0.5-1.1c-0.2-0.4-0.6-0.7-1.1-0.5c-4.2,1.4-6.7,1.1-8.5-1
			l-1.8-2.9l6.6-0.5c0.5,0,0.8-0.5,0.8-0.9c0-0.2-0.1-0.4-0.3-0.6c-0.2-0.1-0.4-0.2-0.6-0.2l-7.4,0.6L7.8,23l10.1-1.8
			c0.5-0.1,0.8-0.5,0.7-1c0-0.2-0.2-0.4-0.4-0.6c-0.2-0.1-0.4-0.2-0.6-0.1L6.9,21.4l-0.5-0.8c-0.9-1.6-1.3-2.3-1.3-3.7
			c0-0.8,1-1.5,2-1.9l29.8-5.4c0.2,0,0.4-0.2,0.6-0.4C37.6,9.1,37.6,8.9,37.6,8.7z"/>
		<path class="st0" d="M54.7,39.5C55,39.2,62,33.5,62,26.4c0-7.4-4.6-11.6-7.3-13c-0.9-0.5-2.6-0.8-4.4-0.9c0,0,0,0,0,0
			c-0.4,0-0.8,0.3-0.9,0.8c0,0.5,0.3,0.9,0.8,0.9c1.6,0.1,3,0.4,3.8,0.8c2.3,1.2,6.3,4.9,6.3,11.4c0,6.2-6.4,11.5-6.7,11.7
			c-0.4,0.3-0.4,0.8-0.1,1.2C53.8,39.7,54.3,39.8,54.7,39.5z"/>
		<path class="st0" d="M65,34c1.2,0.4,3.1,1,4.9,1c2.3,0,4.1-0.8,5.5-2.6l0.1-0.1l6.8-10.9c1-1.7,1.5-2.7,1.5-4.5
			c0-1.5-1.3-2.9-3.3-3.5l-0.1,0L50.5,8c-0.5-0.1-0.9,0.2-1,0.7c0,0.2,0,0.5,0.1,0.6c0.1,0.2,0.3,0.3,0.5,0.4l29.7,5.4
			c1.1,0.3,2.1,1,2.1,1.9c0,1.4-0.4,2.1-1.2,3.6l-0.6,0.9l-10.8-1.9c-0.2,0-0.5,0-0.6,0.1c-0.2,0.1-0.3,0.3-0.4,0.6
			c-0.1,0.5,0.2,0.9,0.7,1L79.2,23l-2.4,3.9l-7.4-0.6c-0.2,0-0.4,0.1-0.6,0.2c-0.2,0.1-0.3,0.4-0.3,0.6c0,0.2,0.1,0.4,0.2,0.6
			c0.1,0.2,0.4,0.3,0.6,0.3l6.6,0.5L74,31.3c-1.8,2.2-4.3,2.5-8.5,1.1c-0.1,0-0.2,0-0.3,0c-0.1,0-0.3,0-0.4,0.1
			c-0.2,0.1-0.4,0.3-0.4,0.5C64.3,33.4,64.5,33.9,65,34z"/>
		<path class="st0" d="M40.5,54.6c0.4-0.2,0.5-0.8,0.3-1.2c-0.4-0.6-0.4-1-0.4-1.2c0-0.2,0.1-0.4,0.2-0.7c0.2-0.4,0-0.9-0.5-1.1h0
			c-0.1,0-0.2-0.1-0.3-0.1c-0.1,0-0.2,0-0.3,0.1c-0.2,0.1-0.4,0.3-0.5,0.5c-0.2,0.5-0.3,0.9-0.3,1.3c0,0.7,0.2,1.4,0.7,2.1
			C39.6,54.7,40.1,54.8,40.5,54.6z"/>
		<path class="st0" d="M39.5,17.4c-0.5,0-0.9,0.4-0.9,0.9s0.4,0.9,0.9,0.9c0.5,0,0.9-0.4,0.9-0.9S40,17.4,39.5,17.4z"/>
		<path class="st0" d="M56.6,52.2c0-5.7-4.3-9.9-4.5-10.1L44,34.2V22.7l0.5-0.1c1.7-1,2.6-2.3,2.6-4.3c0-1.9-1-3.3-2.6-4.3L44,13.8
			V8.2l0.5-0.1C46,7.6,47,6.2,47,4.7c0-2-1.6-3.6-3.5-3.6c-2,0-3.5,1.6-3.5,3.6c0,1.5,1.1,2.8,2.5,3.3L43,8.2v4.9l-0.8-0.2
			c-1.2-0.3-2.6-0.4-4-0.4c-2.3,0-4.6,0.4-5.8,1c-2.7,1.3-7.3,5.6-7.3,13c0,7.1,7,12.6,7.2,12.9L43,47.7v10.1l-3.9,4.5
			c-0.2,0.2-3.1,3-3.1,7.4c0,4.6,3.2,6.2,6,7.5l1,0.4v2.9c0,0.5,0,0.9,0.5,0.9c0.5,0,0.5-0.4,0.5-0.9v-2l0.9,0.3
			c1,0.4,1.9,0.6,2.5,0.6c1.1,0,1.8-0.5,2.2-1c1.8-2.3-1.2-5-1.5-5.3l-4.6-3.5l8.7-8.7C52.7,60.6,56.6,57.1,56.6,52.2z M41.7,4.7
			c0-1,0.8-1.9,1.9-1.9c1,0,1.9,0.8,1.9,1.9s-0.8,1.9-1.9,1.9C42.5,6.6,41.7,5.8,41.7,4.7z M51.1,59.7l-9.5,9.5
			c-0.2,0.2-0.3,0.4-0.2,0.7s0.1,0.5,0.3,0.6l5.4,4c0,0,2.1,1.9,1.3,2.9c-0.2,0.2-0.4,0.3-0.8,0.3c-1.2,0-2.9-0.9-4.7-1.8l-0.3-0.1
			c-3.1-1.5-4.9-2.7-4.9-6c0-3.4,2.1-5.8,2.5-6.2l6.7-8c0.1-0.1,1.6-1.7,1.6-3.3c0-1.7-1.5-3.3-1.6-3.3l-0.1-0.1L33.2,38
			c-0.3-0.2-6.5-5.3-6.5-11.5c0-6.5,4-10.3,6.3-11.4c0.8-0.4,2.7-0.8,5-0.8c1.7,0,7.3,0.3,7.3,4.1c0,2.3-1.5,2.9-4,3.8
			c-0.8,0.3-1.6,0.5-2.3,0.9c-1.5,0.8-3.2,2.1-3.2,3.5c0,1.7,1.5,3.2,1.6,3.3l5.4,5.4c0.1,0.1,0.1,0.1,0.1,0.1l8.1,8.1
			c0.2,0.2,3.8,3.9,3.8,8.9C54.9,56.1,51.7,59.1,51.1,59.7z M44,55.8v-6.7l1.5,1c0.4,0.4,1.2,1.4,1.2,2.1c0,0.8-0.9,1.7-1.3,2.2
			L44,55.8z M43,23.5v9l-3.9-4c-0.3-0.3-1.1-1.3-1.1-2v-0.1l-0.2-0.1c0.2-0.6,1.3-1.5,2.1-1.9c0.6-0.3,1.4-0.5,2.2-0.8L43,23.5z"/>
	</g>
</g>
</svg>
