<?xml version="1.0" encoding="utf-8"?>
<!-- Generator: Adobe Illustrator 19.0.0, SVG Export Plug-In . SVG Version: 6.00 Build 0)  -->
<svg version="1.1" id="Layer_1" xmlns="http://www.w3.org/2000/svg" xmlns:xlink="http://www.w3.org/1999/xlink" x="0px" y="0px"
	 viewBox="-373 255.3 95 85" style="enable-background:new -373 255.3 95 85;" xml:space="preserve">
<style type="text/css">
	.st0{fill:none;stroke:#FFFFFF;stroke-width:2;stroke-linecap:round;stroke-linejoin:round;stroke-miterlimit:10;}
</style>
<path id="XMLID_15906_" class="st0" d="M-339.8,281.1l19.8,19.8l13.9-13.3c5.5-5.4,5.7-14.2,0.4-19.7l0,0
	c-5.3-5.6-14.2-5.8-19.7-0.4L-339.8,281.1z"/>
<path id="XMLID_15917_" class="st0" d="M-344.1,285l19.7,19.9l-13.2,13.9c-5.4,5.5-14.2,5.6-19.8,0.3l0,0
	c-5.6-5.4-5.7-14.2-0.3-19.8L-344.1,285z"/>
<path id="XMLID_15918_" class="st0" d="M-352.2,300.9c0,0-5.1,4.5-3.2,10.2"/>
<path id="XMLID_15733_" class="st0" d="M-354,314.9c0,0,0.4,1.5,1.8,2"/>
<path id="XMLID_15732_" class="st0" d="M-316.1,318.1c-1.5-2.3-2.4-5.1-2.4-8c0-8.1,6.6-14.7,14.7-14.7c4.3,0,8.2,1.9,10.9,4.8
	L-316.1,318.1z"/>
<path id="XMLID_15735_" class="st0" d="M-290.5,303.3c1.5,2.3,2.4,5.1,2.4,8c0,8.1-6.6,14.6-14.7,14.6c-4.3,0-8.2-1.9-10.8-4.8
	L-290.5,303.3z"/>
</svg>
