<?xml version="1.0" encoding="UTF-8" standalone="no"?>
<!-- Generator: Adobe Illustrator 19.2.0, SVG Export Plug-In . SVG Version: 6.00 Build 0)  -->
<!DOCTYPE svg  PUBLIC '-//W3C//DTD SVG 1.1//EN'  'http://www.w3.org/Graphics/SVG/1.1/DTD/svg11.dtd'>
<svg id="Layer_1" style="enable-background:new 0 0 342.7 342.7" xmlns="http://www.w3.org/2000/svg" xml:space="preserve" viewBox="0 0 342.7 342.7" version="1.1" y="0px" x="0px" xmlns:xlink="http://www.w3.org/1999/xlink">
<style type="text/css">
	.st0{fill-rule:evenodd;clip-rule:evenodd;}
</style>
<g id="patter_dots">
		<path class="st0" d="m314.8 314.3c-0.6 0-1 0.4-1 1s0.4 1 1 1 1-0.4 1-1c0-0.6-0.5-1-1-1zm22 0c-0.6 0-1 0.4-1 1s0.4 1 1 1 1-0.4 1-1c0-0.6-0.4-1-1-1zm-66.2 0c-0.6 0-1 0.4-1 1s0.5 1 1 1c0.6 0 1-0.4 1-1s-0.4-1-1-1zm22.1 0c-0.5 0-1 0.4-1 1s0.4 1 1 1c0.5 0 1-0.4 1-1s-0.5-1-1-1zm-66.2 0c-0.5 0-1 0.4-1 1s0.4 1 1 1c0.5 0 1-0.4 1-1s-0.5-1-1-1zm22.1 0c-0.6 0-1 0.4-1 1s0.5 1 1 1c0.6 0 1-0.4 1-1s-0.5-1-1-1zm-66.2 0c-0.6 0-1 0.4-1 1s0.5 1 1 1c0.6 0 1-0.4 1-1s-0.5-1-1-1zm22 0c-0.6 0-1 0.4-1 1s0.4 1 1 1 1-0.4 1-1-0.4-1-1-1zm-66.2 0c-0.6 0-1 0.4-1 1s0.4 1 1 1 1-0.4 1-1-0.4-1-1-1zm22.1 0c-0.6 0-1 0.4-1 1s0.5 1 1 1c0.6 0 1-0.4 1-1s-0.5-1-1-1zm-66.2 0c-0.6 0-1 0.4-1 1s0.5 1 1 1c0.6 0 1-0.4 1-1s-0.4-1-1-1zm22.1 0c-0.5 0-1 0.4-1 1s0.4 1 1 1c0.5 0 1-0.4 1-1-0.1-0.6-0.5-1-1-1zm-66.2 0c-0.5 0-1 0.4-1 1s0.4 1 1 1c0.5 0 1-0.4 1-1s-0.5-1-1-1zm22 0c-0.6 0-1 0.4-1 1s0.5 1 1 1c0.6 0 1-0.4 1-1 0.1-0.6-0.4-1-1-1zm-66.2 0c-0.6 0-1 0.4-1 1s0.4 1 1 1 1-0.4 1-1-0.4-1-1-1zm22.1 0c-0.6 0-1 0.4-1 1s0.4 1 1 1 1-0.4 1-1c0-0.6-0.5-1-1-1zm286.9 22c-0.6 0-1 0.4-1 1s0.4 1 1 1 1-0.4 1-1c0-0.5-0.5-1-1-1zm22 0c-0.6 0-1 0.4-1 1s0.4 1 1 1 1-0.4 1-1c0-0.5-0.4-1-1-1zm-66.2 0c-0.6 0-1 0.4-1 1s0.5 1 1 1c0.6 0 1-0.4 1-1 0-0.5-0.4-1-1-1zm22.1 0c-0.5 0-1 0.4-1 1s0.4 1 1 1c0.5 0 1-0.4 1-1 0-0.5-0.5-1-1-1zm-66.2 0c-0.5 0-1 0.4-1 1s0.4 1 1 1c0.5 0 1-0.4 1-1 0-0.5-0.5-1-1-1zm22.1 0c-0.6 0-1 0.4-1 1s0.5 1 1 1c0.6 0 1-0.4 1-1 0-0.5-0.5-1-1-1zm-66.2 0c-0.6 0-1 0.4-1 1s0.5 1 1 1c0.6 0 1-0.4 1-1 0-0.5-0.5-1-1-1zm22 0c-0.6 0-1 0.4-1 1s0.4 1 1 1 1-0.4 1-1c0-0.5-0.4-1-1-1zm-66.2 0c-0.6 0-1 0.4-1 1s0.4 1 1 1 1-0.4 1-1c0-0.5-0.4-1-1-1zm22.1 0c-0.6 0-1 0.4-1 1s0.5 1 1 1c0.6 0 1-0.4 1-1 0-0.5-0.5-1-1-1zm-66.2 0c-0.6 0-1 0.4-1 1s0.5 1 1 1c0.6 0 1-0.4 1-1 0-0.5-0.4-1-1-1zm22.1 0c-0.5 0-1 0.4-1 1s0.4 1 1 1c0.5 0 1-0.4 1-1-0.1-0.5-0.5-1-1-1zm-66.2 0c-0.5 0-1 0.4-1 1s0.4 1 1 1c0.5 0 1-0.4 1-1 0-0.5-0.5-1-1-1zm22 0c-0.6 0-1 0.4-1 1s0.5 1 1 1c0.6 0 1-0.4 1-1 0.1-0.5-0.4-1-1-1zm-66.2 0c-0.6 0-1 0.4-1 1s0.4 1 1 1 1-0.4 1-1c0-0.5-0.4-1-1-1zm22.1 0c-0.6 0-1 0.4-1 1s0.4 1 1 1 1-0.4 1-1c0-0.5-0.5-1-1-1zm286.9-66.2c-0.6 0-1 0.5-1 1s0.4 1 1 1 1-0.5 1-1-0.5-1-1-1zm22 0c-0.6 0-1 0.5-1 1s0.4 1 1 1 1-0.5 1-1-0.4-1-1-1zm-66.2 0c-0.6 0-1 0.5-1 1s0.5 1 1 1c0.6 0 1-0.5 1-1s-0.4-1-1-1zm22.1 0c-0.5 0-1 0.5-1 1s0.4 1 1 1c0.5 0 1-0.5 1-1s-0.5-1-1-1zm-66.2 0c-0.5 0-1 0.5-1 1s0.4 1 1 1c0.5 0 1-0.5 1-1s-0.5-1-1-1zm22.1 0c-0.6 0-1 0.5-1 1s0.5 1 1 1c0.6 0 1-0.5 1-1s-0.5-1-1-1zm-66.2 0c-0.6 0-1 0.5-1 1s0.5 1 1 1c0.6 0 1-0.5 1-1s-0.5-1-1-1zm22 0c-0.6 0-1 0.5-1 1s0.4 1 1 1c0.6 0 1-0.5 1-1s-0.4-1-1-1zm-66.2 0c-0.6 0-1 0.5-1 1s0.4 1 1 1c0.6 0 1-0.5 1-1s-0.4-1-1-1zm22.1 0c-0.6 0-1 0.5-1 1s0.5 1 1 1c0.6 0 1-0.5 1-1s-0.5-1-1-1zm-66.2 0c-0.6 0-1 0.5-1 1s0.5 1 1 1c0.6 0 1-0.5 1-1s-0.4-1-1-1zm22.1 0c-0.5 0-1 0.5-1 1s0.4 1 1 1c0.5 0 1-0.5 1-1s-0.5-1-1-1zm-66.2 0c-0.5 0-1 0.5-1 1s0.4 1 1 1c0.5 0 1-0.5 1-1s-0.5-1-1-1zm22 0c-0.6 0-1 0.5-1 1s0.5 1 1 1c0.6 0 1-0.5 1-1s-0.4-1-1-1zm-66.2 0c-0.6 0-1 0.5-1 1s0.4 1 1 1c0.6 0 1-0.5 1-1s-0.4-1-1-1zm22.1 0c-0.6 0-1 0.5-1 1s0.4 1 1 1 1-0.5 1-1-0.5-1-1-1zm286.9 22.1c-0.6 0-1 0.4-1 1s0.4 1 1 1 1-0.4 1-1-0.5-1-1-1zm22 0c-0.6 0-1 0.4-1 1s0.4 1 1 1 1-0.4 1-1-0.4-1-1-1zm-66.2 0c-0.6 0-1 0.4-1 1s0.5 1 1 1c0.6 0 1-0.4 1-1s-0.4-1-1-1zm22.1 0c-0.5 0-1 0.4-1 1s0.4 1 1 1c0.5 0 1-0.4 1-1s-0.5-1-1-1zm-66.2 0c-0.5 0-1 0.4-1 1s0.4 1 1 1c0.5 0 1-0.4 1-1s-0.5-1-1-1zm22.1 0c-0.6 0-1 0.4-1 1s0.5 1 1 1c0.6 0 1-0.4 1-1s-0.5-1-1-1zm-66.2 0c-0.6 0-1 0.4-1 1s0.5 1 1 1c0.6 0 1-0.4 1-1s-0.5-1-1-1zm22 0c-0.6 0-1 0.4-1 1s0.4 1 1 1c0.6 0 1-0.4 1-1s-0.4-1-1-1zm-66.2 0c-0.6 0-1 0.4-1 1s0.4 1 1 1c0.6 0 1-0.4 1-1s-0.4-1-1-1zm22.1 0c-0.6 0-1 0.4-1 1s0.5 1 1 1c0.6 0 1-0.4 1-1s-0.5-1-1-1zm-66.2 0c-0.6 0-1 0.4-1 1s0.5 1 1 1c0.6 0 1-0.4 1-1s-0.4-1-1-1zm22.1 0c-0.5 0-1 0.4-1 1s0.4 1 1 1c0.5 0 1-0.4 1-1s-0.5-1-1-1zm-66.2 0c-0.5 0-1 0.4-1 1s0.4 1 1 1c0.5 0 1-0.4 1-1s-0.5-1-1-1zm22 0c-0.6 0-1 0.4-1 1s0.5 1 1 1c0.6 0 1-0.4 1-1s-0.4-1-1-1zm-66.2 0c-0.6 0-1 0.4-1 1s0.4 1 1 1c0.6 0 1-0.4 1-1s-0.4-1-1-1zm22.1 0c-0.6 0-1 0.4-1 1s0.4 1 1 1 1-0.4 1-1-0.5-1-1-1zm286.9-66.2c-0.6 0-1 0.4-1 1 0 0.5 0.4 1 1 1s1-0.4 1-1c0-0.5-0.5-1-1-1zm22 0c-0.6 0-1 0.4-1 1 0 0.5 0.4 1 1 1s1-0.4 1-1c0-0.5-0.4-1-1-1zm-66.2 0c-0.6 0-1 0.4-1 1 0 0.5 0.5 1 1 1 0.6 0 1-0.4 1-1 0-0.5-0.4-1-1-1zm22.1 0c-0.5 0-1 0.4-1 1 0 0.5 0.4 1 1 1 0.5 0 1-0.4 1-1 0-0.5-0.5-1-1-1zm-66.2 0c-0.5 0-1 0.4-1 1 0 0.5 0.4 1 1 1 0.5 0 1-0.4 1-1 0-0.5-0.5-1-1-1zm22.1 0c-0.6 0-1 0.4-1 1 0 0.5 0.5 1 1 1 0.6 0 1-0.4 1-1 0-0.5-0.5-1-1-1zm-66.2 0c-0.6 0-1 0.4-1 1 0 0.5 0.5 1 1 1 0.6 0 1-0.4 1-1 0-0.5-0.5-1-1-1zm22 0c-0.6 0-1 0.4-1 1 0 0.5 0.4 1 1 1s1-0.4 1-1c0-0.5-0.4-1-1-1zm-66.2 0c-0.6 0-1 0.4-1 1 0 0.5 0.4 1 1 1s1-0.4 1-1c0-0.5-0.4-1-1-1zm22.1 0c-0.6 0-1 0.4-1 1 0 0.5 0.5 1 1 1 0.6 0 1-0.4 1-1 0-0.5-0.5-1-1-1zm-66.2 0c-0.6 0-1 0.4-1 1 0 0.5 0.5 1 1 1 0.6 0 1-0.4 1-1 0-0.5-0.4-1-1-1zm22.1 0c-0.5 0-1 0.4-1 1 0 0.5 0.4 1 1 1 0.5 0 1-0.4 1-1-0.1-0.5-0.5-1-1-1zm-66.2 0c-0.5 0-1 0.4-1 1 0 0.5 0.4 1 1 1 0.5 0 1-0.4 1-1 0-0.5-0.5-1-1-1zm22 0c-0.6 0-1 0.4-1 1 0 0.5 0.5 1 1 1 0.6 0 1-0.4 1-1 0.1-0.5-0.4-1-1-1zm-66.2 0c-0.6 0-1 0.4-1 1 0 0.5 0.4 1 1 1s1-0.4 1-1c0-0.5-0.4-1-1-1zm22.1 0c-0.6 0-1 0.4-1 1 0 0.5 0.4 1 1 1s1-0.4 1-1c0-0.5-0.5-1-1-1zm286.9 22.1c-0.6 0-1 0.5-1 1 0 0.6 0.4 1 1 1s1-0.5 1-1c0-0.6-0.5-1-1-1zm22 0c-0.6 0-1 0.5-1 1 0 0.6 0.4 1 1 1s1-0.5 1-1c0-0.6-0.4-1-1-1zm-66.2 0c-0.6 0-1 0.5-1 1 0 0.6 0.5 1 1 1 0.6 0 1-0.5 1-1 0-0.6-0.4-1-1-1zm22.1 0c-0.5 0-1 0.5-1 1 0 0.6 0.4 1 1 1 0.5 0 1-0.5 1-1 0-0.6-0.5-1-1-1zm-66.2 0c-0.5 0-1 0.5-1 1 0 0.6 0.4 1 1 1 0.5 0 1-0.5 1-1 0-0.6-0.5-1-1-1zm22.1 0c-0.6 0-1 0.5-1 1 0 0.6 0.5 1 1 1 0.6 0 1-0.5 1-1 0-0.6-0.5-1-1-1zm-66.2 0c-0.6 0-1 0.5-1 1 0 0.6 0.5 1 1 1 0.6 0 1-0.5 1-1 0-0.6-0.5-1-1-1zm22 0c-0.6 0-1 0.5-1 1 0 0.6 0.4 1 1 1s1-0.5 1-1c0-0.6-0.4-1-1-1zm-66.2 0c-0.6 0-1 0.5-1 1 0 0.6 0.4 1 1 1s1-0.5 1-1c0-0.6-0.4-1-1-1zm22.1 0c-0.6 0-1 0.5-1 1 0 0.6 0.5 1 1 1 0.6 0 1-0.5 1-1 0-0.6-0.5-1-1-1zm-66.2 0c-0.6 0-1 0.5-1 1 0 0.6 0.5 1 1 1 0.6 0 1-0.5 1-1 0-0.6-0.4-1-1-1zm22.1 0c-0.5 0-1 0.5-1 1 0 0.6 0.4 1 1 1 0.5 0 1-0.5 1-1-0.1-0.6-0.5-1-1-1zm-66.2 0c-0.5 0-1 0.5-1 1 0 0.6 0.4 1 1 1 0.5 0 1-0.5 1-1 0-0.6-0.5-1-1-1zm22 0c-0.6 0-1 0.5-1 1 0 0.6 0.5 1 1 1 0.6 0 1-0.5 1-1 0.1-0.6-0.4-1-1-1zm-66.2 0c-0.6 0-1 0.5-1 1 0 0.6 0.4 1 1 1s1-0.5 1-1c0-0.6-0.4-1-1-1zm22.1 0c-0.6 0-1 0.5-1 1 0 0.6 0.4 1 1 1s1-0.5 1-1c0-0.6-0.5-1-1-1zm286.9-66.2c-0.6 0-1 0.5-1 1 0 0.6 0.4 1 1 1s1-0.5 1-1c0-0.6-0.5-1-1-1zm22 0c-0.6 0-1 0.5-1 1 0 0.6 0.4 1 1 1s1-0.5 1-1c0-0.6-0.4-1-1-1zm-66.2 0c-0.6 0-1 0.5-1 1 0 0.6 0.5 1 1 1 0.6 0 1-0.5 1-1 0-0.6-0.4-1-1-1zm22.1 0c-0.5 0-1 0.5-1 1 0 0.6 0.4 1 1 1 0.5 0 1-0.5 1-1 0-0.6-0.5-1-1-1zm-66.2 0c-0.5 0-1 0.5-1 1 0 0.6 0.4 1 1 1 0.5 0 1-0.5 1-1 0-0.6-0.5-1-1-1zm22.1 0c-0.6 0-1 0.5-1 1 0 0.6 0.5 1 1 1 0.6 0 1-0.5 1-1 0-0.6-0.5-1-1-1zm-66.2 0c-0.6 0-1 0.5-1 1 0 0.6 0.5 1 1 1 0.6 0 1-0.5 1-1 0-0.6-0.5-1-1-1zm22 0c-0.6 0-1 0.5-1 1 0 0.6 0.4 1 1 1s1-0.5 1-1c0-0.6-0.4-1-1-1zm-66.2 0c-0.6 0-1 0.5-1 1 0 0.6 0.4 1 1 1s1-0.5 1-1c0-0.6-0.4-1-1-1zm22.1 0c-0.6 0-1 0.5-1 1 0 0.6 0.5 1 1 1 0.6 0 1-0.5 1-1 0-0.6-0.5-1-1-1zm-66.2 0c-0.6 0-1 0.5-1 1 0 0.6 0.5 1 1 1 0.6 0 1-0.5 1-1 0-0.6-0.4-1-1-1zm22.1 0c-0.5 0-1 0.5-1 1 0 0.6 0.4 1 1 1 0.5 0 1-0.5 1-1-0.1-0.6-0.5-1-1-1zm-66.2 0c-0.5 0-1 0.5-1 1 0 0.6 0.4 1 1 1 0.5 0 1-0.5 1-1 0-0.6-0.5-1-1-1zm22 0c-0.6 0-1 0.5-1 1 0 0.6 0.5 1 1 1 0.6 0 1-0.5 1-1 0.1-0.6-0.4-1-1-1zm-66.2 0c-0.6 0-1 0.5-1 1 0 0.6 0.4 1 1 1s1-0.5 1-1c0-0.6-0.4-1-1-1zm22.1 0c-0.6 0-1 0.5-1 1 0 0.6 0.4 1 1 1s1-0.5 1-1c0-0.6-0.5-1-1-1zm286.9 22c-0.6 0-1 0.4-1 1s0.4 1 1 1 1-0.4 1-1c0-0.5-0.5-1-1-1zm22 0c-0.6 0-1 0.4-1 1s0.4 1 1 1 1-0.4 1-1c0-0.5-0.4-1-1-1zm-66.2 0c-0.6 0-1 0.4-1 1s0.5 1 1 1c0.6 0 1-0.4 1-1 0-0.5-0.4-1-1-1zm22.1 0c-0.5 0-1 0.4-1 1s0.4 1 1 1c0.5 0 1-0.4 1-1 0-0.5-0.5-1-1-1zm-66.2 0c-0.5 0-1 0.4-1 1s0.4 1 1 1c0.5 0 1-0.4 1-1 0-0.5-0.5-1-1-1zm22.1 0c-0.6 0-1 0.4-1 1s0.5 1 1 1c0.6 0 1-0.4 1-1 0-0.5-0.5-1-1-1zm-66.2 0c-0.6 0-1 0.4-1 1s0.5 1 1 1c0.6 0 1-0.4 1-1 0-0.5-0.5-1-1-1zm22 0c-0.6 0-1 0.4-1 1s0.4 1 1 1 1-0.4 1-1c0-0.5-0.4-1-1-1zm-66.2 0c-0.6 0-1 0.4-1 1s0.4 1 1 1 1-0.4 1-1c0-0.5-0.4-1-1-1zm22.1 0c-0.6 0-1 0.4-1 1s0.5 1 1 1c0.6 0 1-0.4 1-1 0-0.5-0.5-1-1-1zm-66.2 0c-0.6 0-1 0.4-1 1s0.5 1 1 1c0.6 0 1-0.4 1-1 0-0.5-0.4-1-1-1zm22.1 0c-0.5 0-1 0.4-1 1s0.4 1 1 1c0.5 0 1-0.4 1-1-0.1-0.5-0.5-1-1-1zm-66.2 0c-0.5 0-1 0.4-1 1s0.4 1 1 1c0.5 0 1-0.4 1-1 0-0.5-0.5-1-1-1zm22 0c-0.6 0-1 0.4-1 1s0.5 1 1 1c0.6 0 1-0.4 1-1 0.1-0.5-0.4-1-1-1zm-66.2 0c-0.6 0-1 0.4-1 1s0.4 1 1 1 1-0.4 1-1c0-0.5-0.4-1-1-1zm22.1 0c-0.6 0-1 0.4-1 1s0.4 1 1 1 1-0.4 1-1c0-0.5-0.5-1-1-1zm286.9-66.2c-0.6 0-1 0.4-1 1s0.4 1 1 1 1-0.4 1-1c0-0.5-0.5-1-1-1zm22 0c-0.6 0-1 0.4-1 1s0.4 1 1 1 1-0.4 1-1c0-0.5-0.4-1-1-1zm-66.2 0c-0.6 0-1 0.4-1 1s0.5 1 1 1c0.6 0 1-0.4 1-1 0-0.5-0.4-1-1-1zm22.1 0c-0.5 0-1 0.4-1 1s0.4 1 1 1c0.5 0 1-0.4 1-1 0-0.5-0.5-1-1-1zm-66.2 0c-0.5 0-1 0.4-1 1s0.4 1 1 1c0.5 0 1-0.4 1-1 0-0.5-0.5-1-1-1zm22.1 0c-0.6 0-1 0.4-1 1s0.5 1 1 1c0.6 0 1-0.4 1-1 0-0.5-0.5-1-1-1zm-66.2 0c-0.6 0-1 0.4-1 1s0.5 1 1 1c0.6 0 1-0.4 1-1 0-0.5-0.5-1-1-1zm22 0c-0.6 0-1 0.4-1 1s0.4 1 1 1 1-0.4 1-1c0-0.5-0.4-1-1-1zm-66.2 0c-0.6 0-1 0.4-1 1s0.4 1 1 1 1-0.4 1-1c0-0.5-0.4-1-1-1zm22.1 0c-0.6 0-1 0.4-1 1s0.5 1 1 1c0.6 0 1-0.4 1-1 0-0.5-0.5-1-1-1zm-66.2 0c-0.6 0-1 0.4-1 1s0.5 1 1 1c0.6 0 1-0.4 1-1 0-0.5-0.4-1-1-1zm22.1 0c-0.5 0-1 0.4-1 1s0.4 1 1 1c0.5 0 1-0.4 1-1-0.1-0.5-0.5-1-1-1zm-66.2 0c-0.5 0-1 0.4-1 1s0.4 1 1 1c0.5 0 1-0.4 1-1 0-0.5-0.5-1-1-1zm22 0c-0.6 0-1 0.4-1 1s0.5 1 1 1c0.6 0 1-0.4 1-1 0.1-0.5-0.4-1-1-1zm-66.2 0c-0.6 0-1 0.4-1 1s0.4 1 1 1 1-0.4 1-1c0-0.5-0.4-1-1-1zm22.1 0c-0.6 0-1 0.4-1 1s0.4 1 1 1 1-0.4 1-1c0-0.5-0.5-1-1-1zm286.9 22.1c-0.6 0-1 0.5-1 1 0 0.6 0.4 1 1 1s1-0.5 1-1c0-0.6-0.5-1-1-1zm22 0c-0.6 0-1 0.5-1 1 0 0.6 0.4 1 1 1s1-0.5 1-1c0-0.6-0.4-1-1-1zm-66.2 0c-0.6 0-1 0.5-1 1 0 0.6 0.5 1 1 1 0.6 0 1-0.5 1-1 0-0.6-0.4-1-1-1zm22.1 0c-0.5 0-1 0.5-1 1 0 0.6 0.4 1 1 1 0.5 0 1-0.5 1-1 0-0.6-0.5-1-1-1zm-66.2 0c-0.5 0-1 0.5-1 1 0 0.6 0.4 1 1 1 0.5 0 1-0.5 1-1 0-0.6-0.5-1-1-1zm22.1 0c-0.6 0-1 0.5-1 1 0 0.6 0.5 1 1 1 0.6 0 1-0.5 1-1 0-0.6-0.5-1-1-1zm-66.2 0c-0.6 0-1 0.5-1 1 0 0.6 0.5 1 1 1 0.6 0 1-0.5 1-1 0-0.6-0.5-1-1-1zm22 0c-0.6 0-1 0.5-1 1 0 0.6 0.4 1 1 1s1-0.5 1-1c0-0.6-0.4-1-1-1zm-66.2 0c-0.6 0-1 0.5-1 1 0 0.6 0.4 1 1 1s1-0.5 1-1c0-0.6-0.4-1-1-1zm22.1 0c-0.6 0-1 0.5-1 1 0 0.6 0.5 1 1 1 0.6 0 1-0.5 1-1 0-0.6-0.5-1-1-1zm-66.2 0c-0.6 0-1 0.5-1 1 0 0.6 0.5 1 1 1 0.6 0 1-0.5 1-1 0-0.6-0.4-1-1-1zm22.1 0c-0.5 0-1 0.5-1 1 0 0.6 0.4 1 1 1 0.5 0 1-0.5 1-1-0.1-0.6-0.5-1-1-1zm-66.2 0c-0.5 0-1 0.5-1 1 0 0.6 0.4 1 1 1 0.5 0 1-0.5 1-1 0-0.6-0.5-1-1-1zm22 0c-0.6 0-1 0.5-1 1 0 0.6 0.5 1 1 1 0.6 0 1-0.5 1-1 0.1-0.6-0.4-1-1-1zm-66.2 0c-0.6 0-1 0.5-1 1 0 0.6 0.4 1 1 1s1-0.5 1-1c0-0.6-0.4-1-1-1zm22.1 0c-0.6 0-1 0.5-1 1 0 0.6 0.4 1 1 1s1-0.5 1-1c0-0.6-0.5-1-1-1zm286.9-66.2c-0.6 0-1 0.5-1 1 0 0.6 0.4 1 1 1s1-0.5 1-1c0-0.6-0.5-1-1-1zm22 0c-0.6 0-1 0.5-1 1 0 0.6 0.4 1 1 1s1-0.5 1-1c0-0.6-0.4-1-1-1zm-66.2 0c-0.6 0-1 0.5-1 1 0 0.6 0.5 1 1 1 0.6 0 1-0.5 1-1 0-0.6-0.4-1-1-1zm22.1 0c-0.5 0-1 0.5-1 1 0 0.6 0.4 1 1 1 0.5 0 1-0.5 1-1 0-0.6-0.5-1-1-1zm-66.2 0c-0.5 0-1 0.5-1 1 0 0.6 0.4 1 1 1 0.5 0 1-0.5 1-1 0-0.6-0.5-1-1-1zm22.1 0c-0.6 0-1 0.5-1 1 0 0.6 0.5 1 1 1 0.6 0 1-0.5 1-1 0-0.6-0.5-1-1-1zm-66.2 0c-0.6 0-1 0.5-1 1 0 0.6 0.5 1 1 1 0.6 0 1-0.5 1-1 0-0.6-0.5-1-1-1zm22 0c-0.6 0-1 0.5-1 1 0 0.6 0.4 1 1 1s1-0.5 1-1c0-0.6-0.4-1-1-1zm-66.2 0c-0.6 0-1 0.5-1 1 0 0.6 0.4 1 1 1s1-0.5 1-1c0-0.6-0.4-1-1-1zm22.1 0c-0.6 0-1 0.5-1 1 0 0.6 0.5 1 1 1 0.6 0 1-0.5 1-1 0-0.6-0.5-1-1-1zm-66.2 0c-0.6 0-1 0.5-1 1 0 0.6 0.5 1 1 1 0.6 0 1-0.5 1-1 0-0.6-0.4-1-1-1zm22.1 0c-0.5 0-1 0.5-1 1 0 0.6 0.4 1 1 1 0.5 0 1-0.5 1-1-0.1-0.6-0.5-1-1-1zm-66.2 0c-0.5 0-1 0.5-1 1 0 0.6 0.4 1 1 1 0.5 0 1-0.5 1-1 0-0.6-0.5-1-1-1zm22 0c-0.6 0-1 0.5-1 1 0 0.6 0.5 1 1 1 0.6 0 1-0.5 1-1 0.1-0.6-0.4-1-1-1zm-66.2 0c-0.6 0-1 0.5-1 1 0 0.6 0.4 1 1 1s1-0.5 1-1c0-0.6-0.4-1-1-1zm22.1 0c-0.6 0-1 0.5-1 1 0 0.6 0.4 1 1 1s1-0.5 1-1c0-0.6-0.5-1-1-1zm286.9 22.1c-0.6 0-1 0.4-1 1 0 0.5 0.4 1 1 1s1-0.4 1-1c0-0.6-0.5-1-1-1zm22 0c-0.6 0-1 0.4-1 1 0 0.5 0.4 1 1 1s1-0.4 1-1c0-0.6-0.4-1-1-1zm-66.2 0c-0.6 0-1 0.4-1 1 0 0.5 0.5 1 1 1 0.6 0 1-0.4 1-1s-0.4-1-1-1zm22.1 0c-0.5 0-1 0.4-1 1 0 0.5 0.4 1 1 1 0.5 0 1-0.4 1-1s-0.5-1-1-1zm-66.2 0c-0.5 0-1 0.4-1 1 0 0.5 0.4 1 1 1 0.5 0 1-0.4 1-1s-0.5-1-1-1zm22.1 0c-0.6 0-1 0.4-1 1 0 0.5 0.5 1 1 1 0.6 0 1-0.4 1-1s-0.5-1-1-1zm-66.2 0c-0.6 0-1 0.4-1 1 0 0.5 0.5 1 1 1 0.6 0 1-0.4 1-1s-0.5-1-1-1zm22 0c-0.6 0-1 0.4-1 1 0 0.5 0.4 1 1 1s1-0.4 1-1-0.4-1-1-1zm-66.2 0c-0.6 0-1 0.4-1 1 0 0.5 0.4 1 1 1s1-0.4 1-1-0.4-1-1-1zm22.1 0c-0.6 0-1 0.4-1 1 0 0.5 0.5 1 1 1 0.6 0 1-0.4 1-1s-0.5-1-1-1zm-66.2 0c-0.6 0-1 0.4-1 1 0 0.5 0.5 1 1 1 0.6 0 1-0.4 1-1s-0.4-1-1-1zm22.1 0c-0.5 0-1 0.4-1 1 0 0.5 0.4 1 1 1 0.5 0 1-0.4 1-1-0.1-0.6-0.5-1-1-1zm-66.2 0c-0.5 0-1 0.4-1 1 0 0.5 0.4 1 1 1 0.5 0 1-0.4 1-1s-0.5-1-1-1zm22 0c-0.6 0-1 0.4-1 1 0 0.5 0.5 1 1 1 0.6 0 1-0.4 1-1 0.1-0.6-0.4-1-1-1zm-66.2 0c-0.6 0-1 0.4-1 1 0 0.5 0.4 1 1 1s1-0.4 1-1-0.4-1-1-1zm22.1 0c-0.6 0-1 0.4-1 1 0 0.5 0.4 1 1 1s1-0.4 1-1c0-0.6-0.5-1-1-1zm286.9-66.2c-0.6 0-1 0.4-1 1 0 0.5 0.4 1 1 1s1-0.4 1-1c0-0.6-0.5-1-1-1zm22 0c-0.6 0-1 0.4-1 1 0 0.5 0.4 1 1 1s1-0.4 1-1c0-0.6-0.4-1-1-1zm-66.2 0c-0.6 0-1 0.4-1 1 0 0.5 0.5 1 1 1 0.6 0 1-0.4 1-1s-0.4-1-1-1zm22.1 0c-0.5 0-1 0.4-1 1 0 0.5 0.4 1 1 1 0.5 0 1-0.4 1-1s-0.5-1-1-1zm-66.2 0c-0.5 0-1 0.4-1 1 0 0.5 0.4 1 1 1 0.5 0 1-0.4 1-1s-0.5-1-1-1zm22.1 0c-0.6 0-1 0.4-1 1 0 0.5 0.5 1 1 1 0.6 0 1-0.4 1-1s-0.5-1-1-1zm-66.2 0c-0.6 0-1 0.4-1 1 0 0.5 0.5 1 1 1 0.6 0 1-0.4 1-1s-0.5-1-1-1zm22 0c-0.6 0-1 0.4-1 1 0 0.5 0.4 1 1 1s1-0.4 1-1-0.4-1-1-1zm-66.2 0c-0.6 0-1 0.4-1 1 0 0.5 0.4 1 1 1s1-0.4 1-1-0.4-1-1-1zm22.1 0c-0.6 0-1 0.4-1 1 0 0.5 0.5 1 1 1 0.6 0 1-0.4 1-1s-0.5-1-1-1zm-66.2 0c-0.6 0-1 0.4-1 1 0 0.5 0.5 1 1 1 0.6 0 1-0.4 1-1s-0.4-1-1-1zm22.1 0c-0.5 0-1 0.4-1 1 0 0.5 0.4 1 1 1 0.5 0 1-0.4 1-1-0.1-0.6-0.5-1-1-1zm-66.2 0c-0.5 0-1 0.4-1 1 0 0.5 0.4 1 1 1 0.5 0 1-0.4 1-1s-0.5-1-1-1zm22 0c-0.6 0-1 0.4-1 1 0 0.5 0.5 1 1 1 0.6 0 1-0.4 1-1 0.1-0.6-0.4-1-1-1zm-66.2 0c-0.6 0-1 0.4-1 1 0 0.5 0.4 1 1 1s1-0.4 1-1-0.4-1-1-1zm22.1 0c-0.6 0-1 0.4-1 1 0 0.5 0.4 1 1 1s1-0.4 1-1c0-0.6-0.5-1-1-1zm286.9 22c-0.6 0-1 0.5-1 1s0.4 1 1 1 1-0.5 1-1-0.5-1-1-1zm22 0c-0.6 0-1 0.5-1 1s0.4 1 1 1 1-0.5 1-1-0.4-1-1-1zm-66.2 0c-0.6 0-1 0.5-1 1s0.5 1 1 1c0.6 0 1-0.5 1-1s-0.4-1-1-1zm22.1 0c-0.5 0-1 0.5-1 1s0.4 1 1 1c0.5 0 1-0.5 1-1s-0.5-1-1-1zm-66.2 0c-0.5 0-1 0.5-1 1s0.4 1 1 1c0.5 0 1-0.5 1-1s-0.5-1-1-1zm22.1 0c-0.6 0-1 0.5-1 1s0.5 1 1 1c0.6 0 1-0.5 1-1s-0.5-1-1-1zm-66.2 0c-0.6 0-1 0.5-1 1s0.5 1 1 1c0.6 0 1-0.5 1-1s-0.5-1-1-1zm22 0c-0.6 0-1 0.5-1 1s0.4 1 1 1c0.6 0 1-0.5 1-1s-0.4-1-1-1zm-66.2 0c-0.6 0-1 0.5-1 1s0.4 1 1 1c0.6 0 1-0.5 1-1s-0.4-1-1-1zm22.1 0c-0.6 0-1 0.5-1 1s0.5 1 1 1c0.6 0 1-0.5 1-1s-0.5-1-1-1zm-66.2 0c-0.6 0-1 0.5-1 1s0.5 1 1 1c0.6 0 1-0.5 1-1s-0.4-1-1-1zm22.1 0c-0.5 0-1 0.5-1 1s0.4 1 1 1c0.5 0 1-0.5 1-1s-0.5-1-1-1zm-66.2 0c-0.5 0-1 0.5-1 1s0.4 1 1 1c0.5 0 1-0.5 1-1s-0.5-1-1-1zm22 0c-0.6 0-1 0.5-1 1s0.5 1 1 1c0.6 0 1-0.5 1-1s-0.4-1-1-1zm-66.2 0c-0.6 0-1 0.5-1 1s0.4 1 1 1c0.6 0 1-0.5 1-1s-0.4-1-1-1zm22.1 0c-0.6 0-1 0.5-1 1s0.4 1 1 1 1-0.5 1-1-0.5-1-1-1zm286.9-66.2c-0.6 0-1 0.4-1 1s0.4 1 1 1 1-0.4 1-1c0-0.5-0.5-1-1-1zm22 2c0.6 0 1-0.4 1-1s-0.4-1-1-1-1 0.4-1 1c0 0.6 0.5 1 1 1zm-66.2-2c-0.6 0-1 0.4-1 1s0.5 1 1 1c0.6 0 1-0.4 1-1 0-0.5-0.4-1-1-1zm22.1 0c-0.5 0-1 0.4-1 1s0.4 1 1 1c0.5 0 1-0.4 1-1 0-0.5-0.5-1-1-1zm-66.2 0c-0.5 0-1 0.4-1 1s0.4 1 1 1c0.5 0 1-0.4 1-1 0-0.5-0.5-1-1-1zm22.1 0c-0.6 0-1 0.4-1 1s0.5 1 1 1c0.6 0 1-0.4 1-1 0-0.5-0.5-1-1-1zm-66.2 0c-0.6 0-1 0.4-1 1s0.5 1 1 1c0.6 0 1-0.4 1-1 0-0.5-0.5-1-1-1zm22 0c-0.6 0-1 0.4-1 1s0.4 1 1 1 1-0.4 1-1c0-0.5-0.4-1-1-1zm-66.2 0c-0.6 0-1 0.4-1 1s0.4 1 1 1 1-0.4 1-1c0-0.5-0.4-1-1-1zm22.1 0c-0.6 0-1 0.4-1 1s0.5 1 1 1c0.6 0 1-0.4 1-1 0-0.5-0.5-1-1-1zm-66.2 0c-0.6 0-1 0.4-1 1s0.5 1 1 1c0.6 0 1-0.4 1-1 0-0.5-0.4-1-1-1zm22.1 0c-0.5 0-1 0.4-1 1s0.4 1 1 1c0.5 0 1-0.4 1-1-0.1-0.5-0.5-1-1-1zm-66.2 0c-0.5 0-1 0.4-1 1s0.4 1 1 1c0.5 0 1-0.4 1-1 0-0.5-0.5-1-1-1zm22 0c-0.6 0-1 0.4-1 1s0.5 1 1 1c0.6 0 1-0.4 1-1 0.1-0.5-0.4-1-1-1zm-66.2 0c-0.6 0-1 0.4-1 1s0.4 1 1 1 1-0.4 1-1c0-0.5-0.4-1-1-1zm22.1 0c-0.6 0-1 0.4-1 1s0.4 1 1 1 1-0.4 1-1c0-0.5-0.5-1-1-1zm286.9 22.1c-0.6 0-1 0.4-1 1s0.4 1 1 1 1-0.4 1-1c0-0.6-0.5-1-1-1zm22 0c-0.6 0-1 0.4-1 1s0.4 1 1 1 1-0.4 1-1c0-0.6-0.4-1-1-1zm-66.2 0c-0.6 0-1 0.4-1 1s0.5 1 1 1c0.6 0 1-0.4 1-1s-0.4-1-1-1zm22.1 0c-0.5 0-1 0.4-1 1s0.4 1 1 1c0.5 0 1-0.4 1-1s-0.5-1-1-1zm-66.2 0c-0.5 0-1 0.4-1 1s0.4 1 1 1c0.5 0 1-0.4 1-1s-0.5-1-1-1zm22.1 0c-0.6 0-1 0.4-1 1s0.5 1 1 1c0.6 0 1-0.4 1-1s-0.5-1-1-1zm-66.2 0c-0.6 0-1 0.4-1 1s0.5 1 1 1c0.6 0 1-0.4 1-1s-0.5-1-1-1zm22 0c-0.6 0-1 0.4-1 1s0.4 1 1 1 1-0.4 1-1-0.4-1-1-1zm-66.2 0c-0.6 0-1 0.4-1 1s0.4 1 1 1 1-0.4 1-1-0.4-1-1-1zm22.1 0c-0.6 0-1 0.4-1 1s0.5 1 1 1c0.6 0 1-0.4 1-1s-0.5-1-1-1zm-66.2 0c-0.6 0-1 0.4-1 1s0.5 1 1 1c0.6 0 1-0.4 1-1s-0.4-1-1-1zm22.1 0c-0.5 0-1 0.4-1 1s0.4 1 1 1c0.5 0 1-0.4 1-1-0.1-0.6-0.5-1-1-1zm-66.2 0c-0.5 0-1 0.4-1 1s0.4 1 1 1c0.5 0 1-0.4 1-1s-0.5-1-1-1zm22 0c-0.6 0-1 0.4-1 1s0.5 1 1 1c0.6 0 1-0.4 1-1 0.1-0.6-0.4-1-1-1zm-66.2 0c-0.6 0-1 0.4-1 1s0.4 1 1 1 1-0.4 1-1-0.4-1-1-1zm22.1 0c-0.6 0-1 0.4-1 1s0.4 1 1 1 1-0.4 1-1c0-0.6-0.5-1-1-1z"/>
</g>
</svg>
