<?xml version="1.0" encoding="utf-8"?>
<!-- Generator: Adobe Illustrator 19.2.0, SVG Export Plug-In . SVG Version: 6.00 Build 0)  -->
<!DOCTYPE svg PUBLIC "-//W3C//DTD SVG 1.1//EN" "http://www.w3.org/Graphics/SVG/1.1/DTD/svg11.dtd">
<svg version="1.1" id="_x2D_" xmlns="http://www.w3.org/2000/svg" xmlns:xlink="http://www.w3.org/1999/xlink" x="0px" y="0px"
	 viewBox="0 0 200 200" style="enable-background:new 0 0 200 200;" xml:space="preserve">
<style type="text/css">
	.st0{fill:url(#SVGID_1_);}
	.st1{clip-path:url(#SVGID_3_);}
</style>
<linearGradient id="SVGID_1_" gradientUnits="userSpaceOnUse" x1="100" y1="-4.3418" x2="100" y2="200.477" gradientTransform="matrix(1 0 0 -1 0 200)">
	<stop  offset="0" style="stop-color:#F79237"/>
	<stop  offset="1" style="stop-color:#F3775A"/>
</linearGradient>
<path class="st0" d="M100,0.9l99.1,99.1L100,199.1L0.9,100L100,0.9z"/>
<g>
	<defs>
		<path id="SVGID_2_" d="M100,0.9l99.1,99.1L100,199.1L0.9,100L100,0.9z"/>
	</defs>
	<clipPath id="SVGID_3_">
		<use xlink:href="#SVGID_2_"  style="overflow:visible;"/>
	</clipPath>
	<g class="st1">
		<g>
			<path d="M201.8,209.2c-0.5,0-0.8,0.3-0.8,0.8c0,0.5,0.3,0.8,0.8,0.8c0.5,0,0.8-0.3,0.8-0.8C202.6,209.5,202.2,209.2,201.8,209.2z
				 M218.8,209.2c-0.5,0-0.8,0.3-0.8,0.8c0,0.5,0.3,0.8,0.8,0.8c0.5,0,0.8-0.3,0.8-0.8C219.5,209.5,219.2,209.2,218.8,209.2z
				 M167.8,209.2c-0.5,0-0.8,0.3-0.8,0.8c0,0.5,0.4,0.8,0.8,0.8c0.5,0,0.8-0.3,0.8-0.8C168.6,209.5,168.3,209.2,167.8,209.2z
				 M184.8,209.2c-0.4,0-0.8,0.3-0.8,0.8c0,0.5,0.3,0.8,0.8,0.8c0.4,0,0.8-0.3,0.8-0.8C185.6,209.5,185.2,209.2,184.8,209.2z
				 M133.9,209.2c-0.4,0-0.8,0.3-0.8,0.8c0,0.5,0.3,0.8,0.8,0.8c0.4,0,0.8-0.3,0.8-0.8C134.7,209.5,134.3,209.2,133.9,209.2z
				 M150.9,209.2c-0.5,0-0.8,0.3-0.8,0.8c0,0.5,0.4,0.8,0.8,0.8c0.5,0,0.8-0.3,0.8-0.8C151.7,209.5,151.3,209.2,150.9,209.2z
				 M100,209.2c-0.5,0-0.8,0.3-0.8,0.8c0,0.5,0.4,0.8,0.8,0.8c0.5,0,0.8-0.3,0.8-0.8C100.8,209.5,100.4,209.2,100,209.2z
				 M116.9,209.2c-0.5,0-0.8,0.3-0.8,0.8c0,0.5,0.3,0.8,0.8,0.8c0.5,0,0.8-0.3,0.8-0.8C117.7,209.5,117.4,209.2,116.9,209.2z
				 M66,209.2c-0.5,0-0.8,0.3-0.8,0.8c0,0.5,0.3,0.8,0.8,0.8c0.5,0,0.8-0.3,0.8-0.8C66.8,209.5,66.5,209.2,66,209.2z M83,209.2
				c-0.5,0-0.8,0.3-0.8,0.8c0,0.5,0.4,0.8,0.8,0.8c0.5,0,0.8-0.3,0.8-0.8C83.8,209.5,83.4,209.2,83,209.2z M32.1,209.2
				c-0.5,0-0.8,0.3-0.8,0.8c0,0.5,0.4,0.8,0.8,0.8c0.5,0,0.8-0.3,0.8-0.8C32.9,209.5,32.5,209.2,32.1,209.2z M49.1,209.2
				c-0.4,0-0.8,0.3-0.8,0.8c0,0.5,0.3,0.8,0.8,0.8c0.4,0,0.8-0.3,0.8-0.8C49.8,209.5,49.5,209.2,49.1,209.2z M-1.8,209.2
				c-0.4,0-0.8,0.3-0.8,0.8c0,0.5,0.3,0.8,0.8,0.8c0.4,0,0.8-0.3,0.8-0.8C-1.1,209.5-1.5,209.2-1.8,209.2z M15.1,209.2
				c-0.5,0-0.8,0.3-0.8,0.8c0,0.5,0.4,0.8,0.8,0.8c0.5,0,0.8-0.3,0.8-0.8C15.9,209.5,15.5,209.2,15.1,209.2z M-35.8,209.2
				c-0.5,0-0.8,0.3-0.8,0.8c0,0.5,0.3,0.8,0.8,0.8c0.5,0,0.8-0.3,0.8-0.8C-35.1,209.5-35.4,209.2-35.8,209.2z M-18.8,209.2
				c-0.5,0-0.8,0.3-0.8,0.8c0,0.5,0.3,0.8,0.8,0.8c0.5,0,0.8-0.3,0.8-0.8C-18.1,209.5-18.4,209.2-18.8,209.2z M201.8,226.1
				c-0.5,0-0.8,0.3-0.8,0.8s0.3,0.8,0.8,0.8c0.5,0,0.8-0.3,0.8-0.8C202.6,226.5,202.2,226.1,201.8,226.1z M218.8,226.1
				c-0.5,0-0.8,0.3-0.8,0.8s0.3,0.8,0.8,0.8c0.5,0,0.8-0.3,0.8-0.8C219.5,226.5,219.2,226.1,218.8,226.1z M167.8,226.1
				c-0.5,0-0.8,0.3-0.8,0.8s0.4,0.8,0.8,0.8c0.5,0,0.8-0.3,0.8-0.8C168.6,226.5,168.3,226.1,167.8,226.1z M184.8,226.1
				c-0.4,0-0.8,0.3-0.8,0.8s0.3,0.8,0.8,0.8c0.4,0,0.8-0.3,0.8-0.8C185.6,226.5,185.2,226.1,184.8,226.1z M133.9,226.1
				c-0.4,0-0.8,0.3-0.8,0.8s0.3,0.8,0.8,0.8c0.4,0,0.8-0.3,0.8-0.8C134.7,226.5,134.3,226.1,133.9,226.1z M150.9,226.1
				c-0.5,0-0.8,0.3-0.8,0.8s0.4,0.8,0.8,0.8c0.5,0,0.8-0.3,0.8-0.8C151.7,226.5,151.3,226.1,150.9,226.1z M100,226.1
				c-0.5,0-0.8,0.3-0.8,0.8s0.4,0.8,0.8,0.8c0.5,0,0.8-0.3,0.8-0.8C100.8,226.5,100.4,226.1,100,226.1z M116.9,226.1
				c-0.5,0-0.8,0.3-0.8,0.8s0.3,0.8,0.8,0.8c0.5,0,0.8-0.3,0.8-0.8C117.7,226.5,117.4,226.1,116.9,226.1z M66,226.1
				c-0.5,0-0.8,0.3-0.8,0.8s0.3,0.8,0.8,0.8c0.5,0,0.8-0.3,0.8-0.8C66.8,226.5,66.5,226.1,66,226.1z M83,226.1
				c-0.5,0-0.8,0.3-0.8,0.8s0.4,0.8,0.8,0.8c0.5,0,0.8-0.3,0.8-0.8C83.8,226.5,83.4,226.1,83,226.1z M32.1,226.1
				c-0.5,0-0.8,0.3-0.8,0.8s0.4,0.8,0.8,0.8c0.5,0,0.8-0.3,0.8-0.8C32.9,226.5,32.5,226.1,32.1,226.1z M49.1,226.1
				c-0.4,0-0.8,0.3-0.8,0.8s0.3,0.8,0.8,0.8c0.4,0,0.8-0.3,0.8-0.8C49.8,226.5,49.5,226.1,49.1,226.1z M-1.8,226.1
				c-0.4,0-0.8,0.3-0.8,0.8s0.3,0.8,0.8,0.8c0.4,0,0.8-0.3,0.8-0.8C-1.1,226.5-1.5,226.1-1.8,226.1z M15.1,226.1
				c-0.5,0-0.8,0.3-0.8,0.8s0.4,0.8,0.8,0.8c0.5,0,0.8-0.3,0.8-0.8C15.9,226.5,15.5,226.1,15.1,226.1z M-35.8,226.1
				c-0.5,0-0.8,0.3-0.8,0.8s0.3,0.8,0.8,0.8c0.5,0,0.8-0.3,0.8-0.8C-35.1,226.5-35.4,226.1-35.8,226.1z M-18.8,226.1
				c-0.5,0-0.8,0.3-0.8,0.8s0.3,0.8,0.8,0.8c0.5,0,0.8-0.3,0.8-0.8C-18.1,226.5-18.4,226.1-18.8,226.1z M201.8,175.2
				c-0.5,0-0.8,0.4-0.8,0.8s0.3,0.8,0.8,0.8c0.5,0,0.8-0.4,0.8-0.8S202.2,175.2,201.8,175.2z M218.8,175.2c-0.5,0-0.8,0.4-0.8,0.8
				s0.3,0.8,0.8,0.8c0.5,0,0.8-0.4,0.8-0.8S219.2,175.2,218.8,175.2z M167.8,175.2c-0.5,0-0.8,0.4-0.8,0.8s0.4,0.8,0.8,0.8
				c0.5,0,0.8-0.4,0.8-0.8S168.3,175.2,167.8,175.2z M184.8,175.2c-0.4,0-0.8,0.4-0.8,0.8s0.3,0.8,0.8,0.8c0.4,0,0.8-0.4,0.8-0.8
				S185.2,175.2,184.8,175.2z M133.9,175.2c-0.4,0-0.8,0.4-0.8,0.8s0.3,0.8,0.8,0.8c0.4,0,0.8-0.4,0.8-0.8S134.3,175.2,133.9,175.2z
				 M150.9,175.2c-0.5,0-0.8,0.4-0.8,0.8s0.4,0.8,0.8,0.8c0.5,0,0.8-0.4,0.8-0.8S151.3,175.2,150.9,175.2z M100,175.2
				c-0.5,0-0.8,0.4-0.8,0.8s0.4,0.8,0.8,0.8c0.5,0,0.8-0.4,0.8-0.8S100.4,175.2,100,175.2z M116.9,175.2c-0.5,0-0.8,0.4-0.8,0.8
				s0.3,0.8,0.8,0.8c0.5,0,0.8-0.4,0.8-0.8S117.4,175.2,116.9,175.2z M66,175.2c-0.5,0-0.8,0.4-0.8,0.8s0.3,0.8,0.8,0.8
				c0.5,0,0.8-0.4,0.8-0.8S66.5,175.2,66,175.2z M83,175.2c-0.5,0-0.8,0.4-0.8,0.8s0.4,0.8,0.8,0.8c0.5,0,0.8-0.4,0.8-0.8
				S83.4,175.2,83,175.2z M32.1,175.2c-0.5,0-0.8,0.4-0.8,0.8s0.4,0.8,0.8,0.8c0.5,0,0.8-0.4,0.8-0.8S32.5,175.2,32.1,175.2z
				 M49.1,175.2c-0.4,0-0.8,0.4-0.8,0.8s0.3,0.8,0.8,0.8c0.4,0,0.8-0.4,0.8-0.8S49.5,175.2,49.1,175.2z M-1.8,175.2
				c-0.4,0-0.8,0.4-0.8,0.8s0.3,0.8,0.8,0.8c0.4,0,0.8-0.4,0.8-0.8S-1.5,175.2-1.8,175.2z M15.1,175.2c-0.5,0-0.8,0.4-0.8,0.8
				s0.4,0.8,0.8,0.8c0.5,0,0.8-0.4,0.8-0.8S15.5,175.2,15.1,175.2z M-35.8,175.2c-0.5,0-0.8,0.4-0.8,0.8s0.3,0.8,0.8,0.8
				c0.5,0,0.8-0.4,0.8-0.8S-35.4,175.2-35.8,175.2z M-18.8,175.2c-0.5,0-0.8,0.4-0.8,0.8s0.3,0.8,0.8,0.8c0.5,0,0.8-0.4,0.8-0.8
				S-18.4,175.2-18.8,175.2z M201.8,192.2c-0.5,0-0.8,0.3-0.8,0.8s0.3,0.8,0.8,0.8c0.5,0,0.8-0.3,0.8-0.8S202.2,192.2,201.8,192.2z
				 M218.8,192.2c-0.5,0-0.8,0.3-0.8,0.8s0.3,0.8,0.8,0.8c0.5,0,0.8-0.3,0.8-0.8S219.2,192.2,218.8,192.2z M167.8,192.2
				c-0.5,0-0.8,0.3-0.8,0.8s0.4,0.8,0.8,0.8c0.5,0,0.8-0.3,0.8-0.8S168.3,192.2,167.8,192.2z M184.8,192.2c-0.4,0-0.8,0.3-0.8,0.8
				s0.3,0.8,0.8,0.8c0.4,0,0.8-0.3,0.8-0.8S185.2,192.2,184.8,192.2z M133.9,192.2c-0.4,0-0.8,0.3-0.8,0.8s0.3,0.8,0.8,0.8
				c0.4,0,0.8-0.3,0.8-0.8S134.3,192.2,133.9,192.2z M150.9,192.2c-0.5,0-0.8,0.3-0.8,0.8s0.4,0.8,0.8,0.8c0.5,0,0.8-0.3,0.8-0.8
				S151.3,192.2,150.9,192.2z M100,192.2c-0.5,0-0.8,0.3-0.8,0.8s0.4,0.8,0.8,0.8c0.5,0,0.8-0.3,0.8-0.8S100.4,192.2,100,192.2z
				 M116.9,192.2c-0.5,0-0.8,0.3-0.8,0.8s0.3,0.8,0.8,0.8c0.5,0,0.8-0.3,0.8-0.8S117.4,192.2,116.9,192.2z M66,192.2
				c-0.5,0-0.8,0.3-0.8,0.8s0.3,0.8,0.8,0.8c0.5,0,0.8-0.3,0.8-0.8S66.5,192.2,66,192.2z M83,192.2c-0.5,0-0.8,0.3-0.8,0.8
				s0.4,0.8,0.8,0.8c0.5,0,0.8-0.3,0.8-0.8S83.4,192.2,83,192.2z M32.1,192.2c-0.5,0-0.8,0.3-0.8,0.8s0.4,0.8,0.8,0.8
				c0.5,0,0.8-0.3,0.8-0.8S32.5,192.2,32.1,192.2z M49.1,192.2c-0.4,0-0.8,0.3-0.8,0.8s0.3,0.8,0.8,0.8c0.4,0,0.8-0.3,0.8-0.8
				S49.5,192.2,49.1,192.2z M-1.8,192.2c-0.4,0-0.8,0.3-0.8,0.8s0.3,0.8,0.8,0.8c0.4,0,0.8-0.3,0.8-0.8S-1.5,192.2-1.8,192.2z
				 M15.1,192.2c-0.5,0-0.8,0.3-0.8,0.8s0.4,0.8,0.8,0.8c0.5,0,0.8-0.3,0.8-0.8S15.5,192.2,15.1,192.2z M-35.8,192.2
				c-0.5,0-0.8,0.3-0.8,0.8s0.3,0.8,0.8,0.8c0.5,0,0.8-0.3,0.8-0.8S-35.4,192.2-35.8,192.2z M-18.8,192.2c-0.5,0-0.8,0.3-0.8,0.8
				s0.3,0.8,0.8,0.8c0.5,0,0.8-0.3,0.8-0.8S-18.4,192.2-18.8,192.2z M201.8,141.3c-0.5,0-0.8,0.3-0.8,0.8c0,0.4,0.3,0.8,0.8,0.8
				c0.5,0,0.8-0.3,0.8-0.8C202.6,141.7,202.2,141.3,201.8,141.3z M218.8,141.3c-0.5,0-0.8,0.3-0.8,0.8c0,0.4,0.3,0.8,0.8,0.8
				c0.5,0,0.8-0.3,0.8-0.8C219.5,141.7,219.2,141.3,218.8,141.3z M167.8,141.3c-0.5,0-0.8,0.3-0.8,0.8c0,0.4,0.4,0.8,0.8,0.8
				c0.5,0,0.8-0.3,0.8-0.8C168.6,141.7,168.3,141.3,167.8,141.3z M184.8,141.3c-0.4,0-0.8,0.3-0.8,0.8c0,0.4,0.3,0.8,0.8,0.8
				c0.4,0,0.8-0.3,0.8-0.8C185.6,141.7,185.2,141.3,184.8,141.3z M133.9,141.3c-0.4,0-0.8,0.3-0.8,0.8c0,0.4,0.3,0.8,0.8,0.8
				c0.4,0,0.8-0.3,0.8-0.8C134.7,141.7,134.3,141.3,133.9,141.3z M150.9,141.3c-0.5,0-0.8,0.3-0.8,0.8c0,0.4,0.4,0.8,0.8,0.8
				c0.5,0,0.8-0.3,0.8-0.8C151.7,141.7,151.3,141.3,150.9,141.3z M100,141.3c-0.5,0-0.8,0.3-0.8,0.8c0,0.4,0.4,0.8,0.8,0.8
				c0.5,0,0.8-0.3,0.8-0.8C100.8,141.7,100.4,141.3,100,141.3z M116.9,141.3c-0.5,0-0.8,0.3-0.8,0.8c0,0.4,0.3,0.8,0.8,0.8
				c0.5,0,0.8-0.3,0.8-0.8C117.7,141.7,117.4,141.3,116.9,141.3z M66,141.3c-0.5,0-0.8,0.3-0.8,0.8c0,0.4,0.3,0.8,0.8,0.8
				c0.5,0,0.8-0.3,0.8-0.8C66.8,141.7,66.5,141.3,66,141.3z M83,141.3c-0.5,0-0.8,0.3-0.8,0.8c0,0.4,0.4,0.8,0.8,0.8
				c0.5,0,0.8-0.3,0.8-0.8C83.8,141.7,83.4,141.3,83,141.3z M32.1,141.3c-0.5,0-0.8,0.3-0.8,0.8c0,0.4,0.4,0.8,0.8,0.8
				c0.5,0,0.8-0.3,0.8-0.8C32.9,141.7,32.5,141.3,32.1,141.3z M49.1,141.3c-0.4,0-0.8,0.3-0.8,0.8c0,0.4,0.3,0.8,0.8,0.8
				c0.4,0,0.8-0.3,0.8-0.8C49.8,141.7,49.5,141.3,49.1,141.3z M-1.8,141.3c-0.4,0-0.8,0.3-0.8,0.8c0,0.4,0.3,0.8,0.8,0.8
				c0.4,0,0.8-0.3,0.8-0.8C-1.1,141.7-1.5,141.3-1.8,141.3z M15.1,141.3c-0.5,0-0.8,0.3-0.8,0.8c0,0.4,0.4,0.8,0.8,0.8
				c0.5,0,0.8-0.3,0.8-0.8C15.9,141.7,15.5,141.3,15.1,141.3z M-35.8,141.3c-0.5,0-0.8,0.3-0.8,0.8c0,0.4,0.3,0.8,0.8,0.8
				c0.5,0,0.8-0.3,0.8-0.8C-35.1,141.7-35.4,141.3-35.8,141.3z M-18.8,141.3c-0.5,0-0.8,0.3-0.8,0.8c0,0.4,0.3,0.8,0.8,0.8
				c0.5,0,0.8-0.3,0.8-0.8C-18.1,141.7-18.4,141.3-18.8,141.3z M201.8,158.3c-0.5,0-0.8,0.4-0.8,0.8c0,0.5,0.3,0.8,0.8,0.8
				c0.5,0,0.8-0.4,0.8-0.8C202.6,158.6,202.2,158.3,201.8,158.3z M218.8,158.3c-0.5,0-0.8,0.4-0.8,0.8c0,0.5,0.3,0.8,0.8,0.8
				c0.5,0,0.8-0.4,0.8-0.8C219.5,158.6,219.2,158.3,218.8,158.3z M167.8,158.3c-0.5,0-0.8,0.4-0.8,0.8c0,0.5,0.4,0.8,0.8,0.8
				c0.5,0,0.8-0.4,0.8-0.8C168.6,158.6,168.3,158.3,167.8,158.3z M184.8,158.3c-0.4,0-0.8,0.4-0.8,0.8c0,0.5,0.3,0.8,0.8,0.8
				c0.4,0,0.8-0.4,0.8-0.8C185.6,158.6,185.2,158.3,184.8,158.3z M133.9,158.3c-0.4,0-0.8,0.4-0.8,0.8c0,0.5,0.3,0.8,0.8,0.8
				c0.4,0,0.8-0.4,0.8-0.8C134.7,158.6,134.3,158.3,133.9,158.3z M150.9,158.3c-0.5,0-0.8,0.4-0.8,0.8c0,0.5,0.4,0.8,0.8,0.8
				c0.5,0,0.8-0.4,0.8-0.8C151.7,158.6,151.3,158.3,150.9,158.3z M100,158.3c-0.5,0-0.8,0.4-0.8,0.8c0,0.5,0.4,0.8,0.8,0.8
				c0.5,0,0.8-0.4,0.8-0.8C100.8,158.6,100.4,158.3,100,158.3z M116.9,158.3c-0.5,0-0.8,0.4-0.8,0.8c0,0.5,0.3,0.8,0.8,0.8
				c0.5,0,0.8-0.4,0.8-0.8C117.7,158.6,117.4,158.3,116.9,158.3z M66,158.3c-0.5,0-0.8,0.4-0.8,0.8c0,0.5,0.3,0.8,0.8,0.8
				c0.5,0,0.8-0.4,0.8-0.8C66.8,158.6,66.5,158.3,66,158.3z M83,158.3c-0.5,0-0.8,0.4-0.8,0.8c0,0.5,0.4,0.8,0.8,0.8
				c0.5,0,0.8-0.4,0.8-0.8C83.8,158.6,83.4,158.3,83,158.3z M32.1,158.3c-0.5,0-0.8,0.4-0.8,0.8c0,0.5,0.4,0.8,0.8,0.8
				c0.5,0,0.8-0.4,0.8-0.8C32.9,158.6,32.5,158.3,32.1,158.3z M49.1,158.3c-0.4,0-0.8,0.4-0.8,0.8c0,0.5,0.3,0.8,0.8,0.8
				c0.4,0,0.8-0.4,0.8-0.8C49.8,158.6,49.5,158.3,49.1,158.3z M-1.8,158.3c-0.4,0-0.8,0.4-0.8,0.8c0,0.5,0.3,0.8,0.8,0.8
				c0.4,0,0.8-0.4,0.8-0.8C-1.1,158.6-1.5,158.3-1.8,158.3z M15.1,158.3c-0.5,0-0.8,0.4-0.8,0.8c0,0.5,0.4,0.8,0.8,0.8
				c0.5,0,0.8-0.4,0.8-0.8C15.9,158.6,15.5,158.3,15.1,158.3z M-35.8,158.3c-0.5,0-0.8,0.4-0.8,0.8c0,0.5,0.3,0.8,0.8,0.8
				c0.5,0,0.8-0.4,0.8-0.8C-35.1,158.6-35.4,158.3-35.8,158.3z M-18.8,158.3c-0.5,0-0.8,0.4-0.8,0.8c0,0.5,0.3,0.8,0.8,0.8
				c0.5,0,0.8-0.4,0.8-0.8C-18.1,158.6-18.4,158.3-18.8,158.3z M201.8,107.4c-0.5,0-0.8,0.4-0.8,0.8c0,0.5,0.3,0.8,0.8,0.8
				c0.5,0,0.8-0.4,0.8-0.8C202.6,107.7,202.2,107.4,201.8,107.4z M218.8,107.4c-0.5,0-0.8,0.4-0.8,0.8c0,0.5,0.3,0.8,0.8,0.8
				c0.5,0,0.8-0.4,0.8-0.8C219.5,107.7,219.2,107.4,218.8,107.4z M167.8,107.4c-0.5,0-0.8,0.4-0.8,0.8c0,0.5,0.4,0.8,0.8,0.8
				c0.5,0,0.8-0.4,0.8-0.8C168.6,107.7,168.3,107.4,167.8,107.4z M184.8,107.4c-0.4,0-0.8,0.4-0.8,0.8c0,0.5,0.3,0.8,0.8,0.8
				c0.4,0,0.8-0.4,0.8-0.8C185.6,107.7,185.2,107.4,184.8,107.4z M133.9,107.4c-0.4,0-0.8,0.4-0.8,0.8c0,0.5,0.3,0.8,0.8,0.8
				c0.4,0,0.8-0.4,0.8-0.8C134.7,107.7,134.3,107.4,133.9,107.4z M150.9,107.4c-0.5,0-0.8,0.4-0.8,0.8c0,0.5,0.4,0.8,0.8,0.8
				c0.5,0,0.8-0.4,0.8-0.8C151.7,107.7,151.3,107.4,150.9,107.4z M100,107.4c-0.5,0-0.8,0.4-0.8,0.8c0,0.5,0.4,0.8,0.8,0.8
				c0.5,0,0.8-0.4,0.8-0.8C100.8,107.7,100.4,107.4,100,107.4z M116.9,107.4c-0.5,0-0.8,0.4-0.8,0.8c0,0.5,0.3,0.8,0.8,0.8
				c0.5,0,0.8-0.4,0.8-0.8C117.7,107.7,117.4,107.4,116.9,107.4z M66,107.4c-0.5,0-0.8,0.4-0.8,0.8c0,0.5,0.3,0.8,0.8,0.8
				c0.5,0,0.8-0.4,0.8-0.8C66.8,107.7,66.5,107.4,66,107.4z M83,107.4c-0.5,0-0.8,0.4-0.8,0.8c0,0.5,0.4,0.8,0.8,0.8
				c0.5,0,0.8-0.4,0.8-0.8C83.8,107.7,83.4,107.4,83,107.4z M32.1,107.4c-0.5,0-0.8,0.4-0.8,0.8c0,0.5,0.4,0.8,0.8,0.8
				c0.5,0,0.8-0.4,0.8-0.8C32.9,107.7,32.5,107.4,32.1,107.4z M49.1,107.4c-0.4,0-0.8,0.4-0.8,0.8c0,0.5,0.3,0.8,0.8,0.8
				c0.4,0,0.8-0.4,0.8-0.8C49.8,107.7,49.5,107.4,49.1,107.4z M-1.8,107.4c-0.4,0-0.8,0.4-0.8,0.8c0,0.5,0.3,0.8,0.8,0.8
				c0.4,0,0.8-0.4,0.8-0.8C-1.1,107.7-1.5,107.4-1.8,107.4z M15.1,107.4c-0.5,0-0.8,0.4-0.8,0.8c0,0.5,0.4,0.8,0.8,0.8
				c0.5,0,0.8-0.4,0.8-0.8C15.9,107.7,15.5,107.4,15.1,107.4z M-35.8,107.4c-0.5,0-0.8,0.4-0.8,0.8c0,0.5,0.3,0.8,0.8,0.8
				c0.5,0,0.8-0.4,0.8-0.8C-35.1,107.7-35.4,107.4-35.8,107.4z M-18.8,107.4c-0.5,0-0.8,0.4-0.8,0.8c0,0.5,0.3,0.8,0.8,0.8
				c0.5,0,0.8-0.4,0.8-0.8C-18.1,107.7-18.4,107.4-18.8,107.4z M201.8,124.3c-0.5,0-0.8,0.3-0.8,0.8c0,0.5,0.3,0.8,0.8,0.8
				c0.5,0,0.8-0.3,0.8-0.8C202.6,124.7,202.2,124.3,201.8,124.3z M218.8,124.3c-0.5,0-0.8,0.3-0.8,0.8c0,0.5,0.3,0.8,0.8,0.8
				c0.5,0,0.8-0.3,0.8-0.8C219.5,124.7,219.2,124.3,218.8,124.3z M167.8,124.3c-0.5,0-0.8,0.3-0.8,0.8c0,0.5,0.4,0.8,0.8,0.8
				c0.5,0,0.8-0.3,0.8-0.8C168.6,124.7,168.3,124.3,167.8,124.3z M184.8,124.3c-0.4,0-0.8,0.3-0.8,0.8c0,0.5,0.3,0.8,0.8,0.8
				c0.4,0,0.8-0.3,0.8-0.8C185.6,124.7,185.2,124.3,184.8,124.3z M133.9,124.3c-0.4,0-0.8,0.3-0.8,0.8c0,0.5,0.3,0.8,0.8,0.8
				c0.4,0,0.8-0.3,0.8-0.8C134.7,124.7,134.3,124.3,133.9,124.3z M150.9,124.3c-0.5,0-0.8,0.3-0.8,0.8c0,0.5,0.4,0.8,0.8,0.8
				c0.5,0,0.8-0.3,0.8-0.8C151.7,124.7,151.3,124.3,150.9,124.3z M100,124.3c-0.5,0-0.8,0.3-0.8,0.8c0,0.5,0.4,0.8,0.8,0.8
				c0.5,0,0.8-0.3,0.8-0.8C100.8,124.7,100.4,124.3,100,124.3z M116.9,124.3c-0.5,0-0.8,0.3-0.8,0.8c0,0.5,0.3,0.8,0.8,0.8
				c0.5,0,0.8-0.3,0.8-0.8C117.7,124.7,117.4,124.3,116.9,124.3z M66,124.3c-0.5,0-0.8,0.3-0.8,0.8c0,0.5,0.3,0.8,0.8,0.8
				c0.5,0,0.8-0.3,0.8-0.8C66.8,124.7,66.5,124.3,66,124.3z M83,124.3c-0.5,0-0.8,0.3-0.8,0.8c0,0.5,0.4,0.8,0.8,0.8
				c0.5,0,0.8-0.3,0.8-0.8C83.8,124.7,83.4,124.3,83,124.3z M32.1,124.3c-0.5,0-0.8,0.3-0.8,0.8c0,0.5,0.4,0.8,0.8,0.8
				c0.5,0,0.8-0.3,0.8-0.8C32.9,124.7,32.5,124.3,32.1,124.3z M49.1,124.3c-0.4,0-0.8,0.3-0.8,0.8c0,0.5,0.3,0.8,0.8,0.8
				c0.4,0,0.8-0.3,0.8-0.8C49.8,124.7,49.5,124.3,49.1,124.3z M-1.8,124.3c-0.4,0-0.8,0.3-0.8,0.8c0,0.5,0.3,0.8,0.8,0.8
				c0.4,0,0.8-0.3,0.8-0.8C-1.1,124.7-1.5,124.3-1.8,124.3z M15.1,124.3c-0.5,0-0.8,0.3-0.8,0.8c0,0.5,0.4,0.8,0.8,0.8
				c0.5,0,0.8-0.3,0.8-0.8C15.9,124.7,15.5,124.3,15.1,124.3z M-35.8,124.3c-0.5,0-0.8,0.3-0.8,0.8c0,0.5,0.3,0.8,0.8,0.8
				c0.5,0,0.8-0.3,0.8-0.8C-35.1,124.7-35.4,124.3-35.8,124.3z M-18.8,124.3c-0.5,0-0.8,0.3-0.8,0.8c0,0.5,0.3,0.8,0.8,0.8
				c0.5,0,0.8-0.3,0.8-0.8C-18.1,124.7-18.4,124.3-18.8,124.3z M201.8,73.4c-0.5,0-0.8,0.3-0.8,0.8c0,0.5,0.3,0.8,0.8,0.8
				c0.5,0,0.8-0.3,0.8-0.8C202.6,73.8,202.2,73.4,201.8,73.4z M218.8,73.4c-0.5,0-0.8,0.3-0.8,0.8c0,0.5,0.3,0.8,0.8,0.8
				c0.5,0,0.8-0.3,0.8-0.8C219.5,73.8,219.2,73.4,218.8,73.4z M167.8,73.4c-0.5,0-0.8,0.3-0.8,0.8c0,0.5,0.4,0.8,0.8,0.8
				c0.5,0,0.8-0.3,0.8-0.8C168.6,73.8,168.3,73.4,167.8,73.4z M184.8,73.4c-0.4,0-0.8,0.3-0.8,0.8c0,0.5,0.3,0.8,0.8,0.8
				c0.4,0,0.8-0.3,0.8-0.8C185.6,73.8,185.2,73.4,184.8,73.4z M133.9,73.4c-0.4,0-0.8,0.3-0.8,0.8c0,0.5,0.3,0.8,0.8,0.8
				c0.4,0,0.8-0.3,0.8-0.8C134.7,73.8,134.3,73.4,133.9,73.4z M150.9,73.4c-0.5,0-0.8,0.3-0.8,0.8c0,0.5,0.4,0.8,0.8,0.8
				c0.5,0,0.8-0.3,0.8-0.8C151.7,73.8,151.3,73.4,150.9,73.4z M100,73.4c-0.5,0-0.8,0.3-0.8,0.8c0,0.5,0.4,0.8,0.8,0.8
				c0.5,0,0.8-0.3,0.8-0.8C100.8,73.8,100.4,73.4,100,73.4z M116.9,73.4c-0.5,0-0.8,0.3-0.8,0.8c0,0.5,0.3,0.8,0.8,0.8
				c0.5,0,0.8-0.3,0.8-0.8C117.7,73.8,117.4,73.4,116.9,73.4z M66,73.4c-0.5,0-0.8,0.3-0.8,0.8c0,0.5,0.3,0.8,0.8,0.8
				c0.5,0,0.8-0.3,0.8-0.8C66.8,73.8,66.5,73.4,66,73.4z M83,73.4c-0.5,0-0.8,0.3-0.8,0.8c0,0.5,0.4,0.8,0.8,0.8
				c0.5,0,0.8-0.3,0.8-0.8C83.8,73.8,83.4,73.4,83,73.4z M32.1,73.4c-0.5,0-0.8,0.3-0.8,0.8c0,0.5,0.4,0.8,0.8,0.8
				c0.5,0,0.8-0.3,0.8-0.8C32.9,73.8,32.5,73.4,32.1,73.4z M49.1,73.4c-0.4,0-0.8,0.3-0.8,0.8c0,0.5,0.3,0.8,0.8,0.8
				c0.4,0,0.8-0.3,0.8-0.8C49.8,73.8,49.5,73.4,49.1,73.4z M-1.8,73.4c-0.4,0-0.8,0.3-0.8,0.8c0,0.5,0.3,0.8,0.8,0.8
				c0.4,0,0.8-0.3,0.8-0.8C-1.1,73.8-1.5,73.4-1.8,73.4z M15.1,73.4c-0.5,0-0.8,0.3-0.8,0.8c0,0.5,0.4,0.8,0.8,0.8
				c0.5,0,0.8-0.3,0.8-0.8C15.9,73.8,15.5,73.4,15.1,73.4z M-35.8,73.4c-0.5,0-0.8,0.3-0.8,0.8c0,0.5,0.3,0.8,0.8,0.8
				c0.5,0,0.8-0.3,0.8-0.8C-35.1,73.8-35.4,73.4-35.8,73.4z M-18.8,73.4c-0.5,0-0.8,0.3-0.8,0.8c0,0.5,0.3,0.8,0.8,0.8
				c0.5,0,0.8-0.3,0.8-0.8C-18.1,73.8-18.4,73.4-18.8,73.4z M201.8,90.4c-0.5,0-0.8,0.4-0.8,0.8c0,0.5,0.3,0.8,0.8,0.8
				c0.5,0,0.8-0.4,0.8-0.8C202.6,90.7,202.2,90.4,201.8,90.4z M218.8,90.4c-0.5,0-0.8,0.4-0.8,0.8c0,0.5,0.3,0.8,0.8,0.8
				c0.5,0,0.8-0.4,0.8-0.8C219.5,90.7,219.2,90.4,218.8,90.4z M167.8,90.4c-0.5,0-0.8,0.4-0.8,0.8c0,0.5,0.4,0.8,0.8,0.8
				c0.5,0,0.8-0.4,0.8-0.8C168.6,90.7,168.3,90.4,167.8,90.4z M184.8,90.4c-0.4,0-0.8,0.4-0.8,0.8c0,0.5,0.3,0.8,0.8,0.8
				c0.4,0,0.8-0.4,0.8-0.8C185.6,90.7,185.2,90.4,184.8,90.4z M133.9,90.4c-0.4,0-0.8,0.4-0.8,0.8c0,0.5,0.3,0.8,0.8,0.8
				c0.4,0,0.8-0.4,0.8-0.8C134.7,90.7,134.3,90.4,133.9,90.4z M150.9,90.4c-0.5,0-0.8,0.4-0.8,0.8c0,0.5,0.4,0.8,0.8,0.8
				c0.5,0,0.8-0.4,0.8-0.8C151.7,90.7,151.3,90.4,150.9,90.4z M100,90.4c-0.5,0-0.8,0.4-0.8,0.8c0,0.5,0.4,0.8,0.8,0.8
				c0.5,0,0.8-0.4,0.8-0.8C100.8,90.7,100.4,90.4,100,90.4z M116.9,90.4c-0.5,0-0.8,0.4-0.8,0.8c0,0.5,0.3,0.8,0.8,0.8
				c0.5,0,0.8-0.4,0.8-0.8C117.7,90.7,117.4,90.4,116.9,90.4z M66,90.4c-0.5,0-0.8,0.4-0.8,0.8c0,0.5,0.3,0.8,0.8,0.8
				c0.5,0,0.8-0.4,0.8-0.8C66.8,90.7,66.5,90.4,66,90.4z M83,90.4c-0.5,0-0.8,0.4-0.8,0.8c0,0.5,0.4,0.8,0.8,0.8
				c0.5,0,0.8-0.4,0.8-0.8C83.8,90.7,83.4,90.4,83,90.4z M32.1,90.4c-0.5,0-0.8,0.4-0.8,0.8c0,0.5,0.4,0.8,0.8,0.8
				c0.5,0,0.8-0.4,0.8-0.8C32.9,90.7,32.5,90.4,32.1,90.4z M49.1,90.4c-0.4,0-0.8,0.4-0.8,0.8c0,0.5,0.3,0.8,0.8,0.8
				c0.4,0,0.8-0.4,0.8-0.8C49.8,90.7,49.5,90.4,49.1,90.4z M-1.8,90.4c-0.4,0-0.8,0.4-0.8,0.8c0,0.5,0.3,0.8,0.8,0.8
				c0.4,0,0.8-0.4,0.8-0.8C-1.1,90.7-1.5,90.4-1.8,90.4z M15.1,90.4c-0.5,0-0.8,0.4-0.8,0.8c0,0.5,0.4,0.8,0.8,0.8
				c0.5,0,0.8-0.4,0.8-0.8C15.9,90.7,15.5,90.4,15.1,90.4z M-35.8,90.4c-0.5,0-0.8,0.4-0.8,0.8c0,0.5,0.3,0.8,0.8,0.8
				c0.5,0,0.8-0.4,0.8-0.8C-35.1,90.7-35.4,90.4-35.8,90.4z M-18.8,90.4c-0.5,0-0.8,0.4-0.8,0.8c0,0.5,0.3,0.8,0.8,0.8
				c0.5,0,0.8-0.4,0.8-0.8C-18.1,90.7-18.4,90.4-18.8,90.4z M201.8,39.5c-0.5,0-0.8,0.4-0.8,0.8c0,0.5,0.3,0.8,0.8,0.8
				c0.5,0,0.8-0.4,0.8-0.8C202.6,39.8,202.2,39.5,201.8,39.5z M218.8,39.5c-0.5,0-0.8,0.4-0.8,0.8c0,0.5,0.3,0.8,0.8,0.8
				c0.5,0,0.8-0.4,0.8-0.8C219.5,39.8,219.2,39.5,218.8,39.5z M167.8,39.5c-0.5,0-0.8,0.4-0.8,0.8c0,0.5,0.4,0.8,0.8,0.8
				c0.5,0,0.8-0.4,0.8-0.8C168.6,39.8,168.3,39.5,167.8,39.5z M184.8,39.5c-0.4,0-0.8,0.4-0.8,0.8c0,0.5,0.3,0.8,0.8,0.8
				c0.4,0,0.8-0.4,0.8-0.8C185.6,39.8,185.2,39.5,184.8,39.5z M133.9,39.5c-0.4,0-0.8,0.4-0.8,0.8c0,0.5,0.3,0.8,0.8,0.8
				c0.4,0,0.8-0.4,0.8-0.8C134.7,39.8,134.3,39.5,133.9,39.5z M150.9,39.5c-0.5,0-0.8,0.4-0.8,0.8c0,0.5,0.4,0.8,0.8,0.8
				c0.5,0,0.8-0.4,0.8-0.8C151.7,39.8,151.3,39.5,150.9,39.5z M100,39.5c-0.5,0-0.8,0.4-0.8,0.8c0,0.5,0.4,0.8,0.8,0.8
				c0.5,0,0.8-0.4,0.8-0.8C100.8,39.8,100.4,39.5,100,39.5z M116.9,39.5c-0.5,0-0.8,0.4-0.8,0.8c0,0.5,0.3,0.8,0.8,0.8
				c0.5,0,0.8-0.4,0.8-0.8C117.7,39.8,117.4,39.5,116.9,39.5z M66,39.5c-0.5,0-0.8,0.4-0.8,0.8c0,0.5,0.3,0.8,0.8,0.8
				c0.5,0,0.8-0.4,0.8-0.8C66.8,39.8,66.5,39.5,66,39.5z M83,39.5c-0.5,0-0.8,0.4-0.8,0.8c0,0.5,0.4,0.8,0.8,0.8
				c0.5,0,0.8-0.4,0.8-0.8C83.8,39.8,83.4,39.5,83,39.5z M32.1,39.5c-0.5,0-0.8,0.4-0.8,0.8c0,0.5,0.4,0.8,0.8,0.8
				c0.5,0,0.8-0.4,0.8-0.8C32.9,39.8,32.5,39.5,32.1,39.5z M49.1,39.5c-0.4,0-0.8,0.4-0.8,0.8c0,0.5,0.3,0.8,0.8,0.8
				c0.4,0,0.8-0.4,0.8-0.8C49.8,39.8,49.5,39.5,49.1,39.5z M-1.8,39.5c-0.4,0-0.8,0.4-0.8,0.8c0,0.5,0.3,0.8,0.8,0.8
				c0.4,0,0.8-0.4,0.8-0.8C-1.1,39.8-1.5,39.5-1.8,39.5z M15.1,39.5c-0.5,0-0.8,0.4-0.8,0.8c0,0.5,0.4,0.8,0.8,0.8
				c0.5,0,0.8-0.4,0.8-0.8C15.9,39.8,15.5,39.5,15.1,39.5z M-35.8,39.5c-0.5,0-0.8,0.4-0.8,0.8c0,0.5,0.3,0.8,0.8,0.8
				c0.5,0,0.8-0.4,0.8-0.8C-35.1,39.8-35.4,39.5-35.8,39.5z M-18.8,39.5c-0.5,0-0.8,0.4-0.8,0.8c0,0.5,0.3,0.8,0.8,0.8
				c0.5,0,0.8-0.4,0.8-0.8C-18.1,39.8-18.4,39.5-18.8,39.5z M201.8,56.5c-0.5,0-0.8,0.3-0.8,0.8c0,0.4,0.3,0.8,0.8,0.8
				c0.5,0,0.8-0.3,0.8-0.8S202.2,56.5,201.8,56.5z M218.8,56.5c-0.5,0-0.8,0.3-0.8,0.8c0,0.4,0.3,0.8,0.8,0.8c0.5,0,0.8-0.3,0.8-0.8
				S219.2,56.5,218.8,56.5z M167.8,56.5c-0.5,0-0.8,0.3-0.8,0.8c0,0.4,0.4,0.8,0.8,0.8c0.5,0,0.8-0.3,0.8-0.8S168.3,56.5,167.8,56.5
				z M184.8,56.5c-0.4,0-0.8,0.3-0.8,0.8c0,0.4,0.3,0.8,0.8,0.8c0.4,0,0.8-0.3,0.8-0.8S185.2,56.5,184.8,56.5z M133.9,56.5
				c-0.4,0-0.8,0.3-0.8,0.8c0,0.4,0.3,0.8,0.8,0.8c0.4,0,0.8-0.3,0.8-0.8S134.3,56.5,133.9,56.5z M150.9,56.5
				c-0.5,0-0.8,0.3-0.8,0.8c0,0.4,0.4,0.8,0.8,0.8c0.5,0,0.8-0.3,0.8-0.8S151.3,56.5,150.9,56.5z M100,56.5c-0.5,0-0.8,0.3-0.8,0.8
				c0,0.4,0.4,0.8,0.8,0.8c0.5,0,0.8-0.3,0.8-0.8S100.4,56.5,100,56.5z M116.9,56.5c-0.5,0-0.8,0.3-0.8,0.8c0,0.4,0.3,0.8,0.8,0.8
				c0.5,0,0.8-0.3,0.8-0.8S117.4,56.5,116.9,56.5z M66,56.5c-0.5,0-0.8,0.3-0.8,0.8c0,0.4,0.3,0.8,0.8,0.8c0.5,0,0.8-0.3,0.8-0.8
				S66.5,56.5,66,56.5z M83,56.5c-0.5,0-0.8,0.3-0.8,0.8c0,0.4,0.4,0.8,0.8,0.8c0.5,0,0.8-0.3,0.8-0.8S83.4,56.5,83,56.5z
				 M32.1,56.5c-0.5,0-0.8,0.3-0.8,0.8c0,0.4,0.4,0.8,0.8,0.8c0.5,0,0.8-0.3,0.8-0.8S32.5,56.5,32.1,56.5z M49.1,56.5
				c-0.4,0-0.8,0.3-0.8,0.8c0,0.4,0.3,0.8,0.8,0.8c0.4,0,0.8-0.3,0.8-0.8C49.8,56.8,49.5,56.5,49.1,56.5z M-1.8,56.5
				c-0.4,0-0.8,0.3-0.8,0.8c0,0.4,0.3,0.8,0.8,0.8c0.4,0,0.8-0.3,0.8-0.8S-1.5,56.5-1.8,56.5z M15.1,56.5c-0.5,0-0.8,0.3-0.8,0.8
				c0,0.4,0.4,0.8,0.8,0.8c0.5,0,0.8-0.3,0.8-0.8C15.9,56.8,15.5,56.5,15.1,56.5z M-35.8,56.5c-0.5,0-0.8,0.3-0.8,0.8
				c0,0.4,0.3,0.8,0.8,0.8c0.5,0,0.8-0.3,0.8-0.8S-35.4,56.5-35.8,56.5z M-18.8,56.5c-0.5,0-0.8,0.3-0.8,0.8c0,0.4,0.3,0.8,0.8,0.8
				c0.5,0,0.8-0.3,0.8-0.8S-18.4,56.5-18.8,56.5z M201.8,5.5c-0.5,0-0.8,0.3-0.8,0.8c0,0.4,0.3,0.8,0.8,0.8c0.5,0,0.8-0.3,0.8-0.8
				S202.2,5.5,201.8,5.5z M218.8,5.5c-0.5,0-0.8,0.3-0.8,0.8c0,0.4,0.3,0.8,0.8,0.8c0.5,0,0.8-0.3,0.8-0.8S219.2,5.5,218.8,5.5z
				 M167.8,5.5c-0.5,0-0.8,0.3-0.8,0.8c0,0.4,0.4,0.8,0.8,0.8c0.5,0,0.8-0.3,0.8-0.8S168.3,5.5,167.8,5.5z M184.8,5.5
				c-0.4,0-0.8,0.3-0.8,0.8c0,0.4,0.3,0.8,0.8,0.8c0.4,0,0.8-0.3,0.8-0.8S185.2,5.5,184.8,5.5z M133.9,5.5c-0.4,0-0.8,0.3-0.8,0.8
				c0,0.4,0.3,0.8,0.8,0.8c0.4,0,0.8-0.3,0.8-0.8S134.3,5.5,133.9,5.5z M150.9,5.5c-0.5,0-0.8,0.3-0.8,0.8c0,0.4,0.4,0.8,0.8,0.8
				c0.5,0,0.8-0.3,0.8-0.8S151.3,5.5,150.9,5.5z M100,5.5c-0.5,0-0.8,0.3-0.8,0.8c0,0.4,0.4,0.8,0.8,0.8c0.5,0,0.8-0.3,0.8-0.8
				S100.4,5.5,100,5.5z M116.9,5.5c-0.5,0-0.8,0.3-0.8,0.8c0,0.4,0.3,0.8,0.8,0.8c0.5,0,0.8-0.3,0.8-0.8S117.4,5.5,116.9,5.5z
				 M66,5.5c-0.5,0-0.8,0.3-0.8,0.8c0,0.4,0.3,0.8,0.8,0.8c0.5,0,0.8-0.3,0.8-0.8S66.5,5.5,66,5.5z M83,5.5c-0.5,0-0.8,0.3-0.8,0.8
				c0,0.4,0.4,0.8,0.8,0.8c0.5,0,0.8-0.3,0.8-0.8S83.4,5.5,83,5.5z M32.1,5.5c-0.5,0-0.8,0.3-0.8,0.8c0,0.4,0.4,0.8,0.8,0.8
				c0.5,0,0.8-0.3,0.8-0.8S32.5,5.5,32.1,5.5z M49.1,5.5c-0.4,0-0.8,0.3-0.8,0.8c0,0.4,0.3,0.8,0.8,0.8c0.4,0,0.8-0.3,0.8-0.8
				C49.8,5.8,49.5,5.5,49.1,5.5z M-1.8,5.5c-0.4,0-0.8,0.3-0.8,0.8c0,0.4,0.3,0.8,0.8,0.8c0.4,0,0.8-0.3,0.8-0.8S-1.5,5.5-1.8,5.5z
				 M15.1,5.5c-0.5,0-0.8,0.3-0.8,0.8c0,0.4,0.4,0.8,0.8,0.8c0.5,0,0.8-0.3,0.8-0.8C15.9,5.8,15.5,5.5,15.1,5.5z M-35.8,5.5
				c-0.5,0-0.8,0.3-0.8,0.8c0,0.4,0.3,0.8,0.8,0.8c0.5,0,0.8-0.3,0.8-0.8S-35.4,5.5-35.8,5.5z M-18.8,5.5c-0.5,0-0.8,0.3-0.8,0.8
				c0,0.4,0.3,0.8,0.8,0.8c0.5,0,0.8-0.3,0.8-0.8S-18.4,5.5-18.8,5.5z M201.8,22.5c-0.5,0-0.8,0.4-0.8,0.8c0,0.4,0.3,0.8,0.8,0.8
				c0.5,0,0.8-0.4,0.8-0.8C202.6,22.8,202.2,22.5,201.8,22.5z M218.8,22.5c-0.5,0-0.8,0.4-0.8,0.8c0,0.4,0.3,0.8,0.8,0.8
				c0.5,0,0.8-0.4,0.8-0.8C219.5,22.8,219.2,22.5,218.8,22.5z M167.8,22.5c-0.5,0-0.8,0.4-0.8,0.8c0,0.4,0.4,0.8,0.8,0.8
				c0.5,0,0.8-0.4,0.8-0.8C168.6,22.8,168.3,22.5,167.8,22.5z M184.8,22.5c-0.4,0-0.8,0.4-0.8,0.8c0,0.4,0.3,0.8,0.8,0.8
				c0.4,0,0.8-0.4,0.8-0.8C185.6,22.8,185.2,22.5,184.8,22.5z M133.9,22.5c-0.4,0-0.8,0.4-0.8,0.8c0,0.4,0.3,0.8,0.8,0.8
				c0.4,0,0.8-0.4,0.8-0.8C134.7,22.8,134.3,22.5,133.9,22.5z M150.9,22.5c-0.5,0-0.8,0.4-0.8,0.8c0,0.4,0.4,0.8,0.8,0.8
				c0.5,0,0.8-0.4,0.8-0.8C151.7,22.8,151.3,22.5,150.9,22.5z M100,22.5c-0.5,0-0.8,0.4-0.8,0.8c0,0.4,0.4,0.8,0.8,0.8
				c0.5,0,0.8-0.4,0.8-0.8C100.8,22.8,100.4,22.5,100,22.5z M116.9,22.5c-0.5,0-0.8,0.4-0.8,0.8c0,0.4,0.3,0.8,0.8,0.8
				c0.5,0,0.8-0.4,0.8-0.8C117.7,22.8,117.4,22.5,116.9,22.5z M66,22.5c-0.5,0-0.8,0.4-0.8,0.8c0,0.4,0.3,0.8,0.8,0.8
				c0.5,0,0.8-0.4,0.8-0.8C66.8,22.8,66.5,22.5,66,22.5z M83,22.5c-0.5,0-0.8,0.4-0.8,0.8c0,0.4,0.4,0.8,0.8,0.8
				c0.5,0,0.8-0.4,0.8-0.8C83.8,22.8,83.4,22.5,83,22.5z M32.1,22.5c-0.5,0-0.8,0.4-0.8,0.8c0,0.4,0.4,0.8,0.8,0.8
				c0.5,0,0.8-0.4,0.8-0.8C32.9,22.8,32.5,22.5,32.1,22.5z M49.1,22.5c-0.4,0-0.8,0.4-0.8,0.8c0,0.4,0.3,0.8,0.8,0.8
				c0.4,0,0.8-0.4,0.8-0.8C49.9,22.8,49.5,22.5,49.1,22.5z M-1.8,22.5c-0.4,0-0.8,0.4-0.8,0.8c0,0.4,0.3,0.8,0.8,0.8
				c0.4,0,0.8-0.4,0.8-0.8C-1.1,22.8-1.5,22.5-1.8,22.5z M15.1,22.5c-0.5,0-0.8,0.4-0.8,0.8c0,0.4,0.4,0.8,0.8,0.8
				c0.5,0,0.8-0.4,0.8-0.8C15.9,22.8,15.5,22.5,15.1,22.5z M-35.8,22.5c-0.5,0-0.8,0.4-0.8,0.8c0,0.4,0.3,0.8,0.8,0.8
				c0.5,0,0.8-0.4,0.8-0.8C-35.1,22.8-35.4,22.5-35.8,22.5z M-18.8,22.5c-0.5,0-0.8,0.4-0.8,0.8c0,0.4,0.3,0.8,0.8,0.8
				c0.5,0,0.8-0.4,0.8-0.8C-18.1,22.8-18.4,22.5-18.8,22.5z M201.8-28.5c-0.5,0-0.8,0.3-0.8,0.8s0.3,0.8,0.8,0.8
				c0.5,0,0.8-0.3,0.8-0.8C202.6-28.1,202.2-28.5,201.8-28.5z M218.8-26.9c0.5,0,0.8-0.3,0.8-0.8s-0.3-0.8-0.8-0.8
				c-0.5,0-0.8,0.3-0.8,0.8S218.4-26.9,218.8-26.9z M167.8-28.5c-0.5,0-0.8,0.3-0.8,0.8s0.4,0.8,0.8,0.8c0.5,0,0.8-0.3,0.8-0.8
				C168.6-28.1,168.3-28.5,167.8-28.5z M184.8-28.5c-0.4,0-0.8,0.3-0.8,0.8s0.3,0.8,0.8,0.8c0.4,0,0.8-0.3,0.8-0.8
				C185.6-28.1,185.2-28.5,184.8-28.5z M133.9-28.5c-0.4,0-0.8,0.3-0.8,0.8s0.3,0.8,0.8,0.8c0.4,0,0.8-0.3,0.8-0.8
				C134.7-28.1,134.3-28.5,133.9-28.5z M150.9-28.5c-0.5,0-0.8,0.3-0.8,0.8s0.4,0.8,0.8,0.8c0.5,0,0.8-0.3,0.8-0.8
				C151.7-28.1,151.3-28.5,150.9-28.5z M100-28.5c-0.5,0-0.8,0.3-0.8,0.8s0.4,0.8,0.8,0.8c0.5,0,0.8-0.3,0.8-0.8
				C100.8-28.1,100.4-28.5,100-28.5z M116.9-28.5c-0.5,0-0.8,0.3-0.8,0.8s0.3,0.8,0.8,0.8c0.5,0,0.8-0.3,0.8-0.8
				C117.7-28.1,117.4-28.5,116.9-28.5z M66-28.5c-0.5,0-0.8,0.3-0.8,0.8s0.3,0.8,0.8,0.8c0.5,0,0.8-0.3,0.8-0.8
				C66.8-28.1,66.5-28.5,66-28.5z M83-28.5c-0.5,0-0.8,0.3-0.8,0.8s0.4,0.8,0.8,0.8c0.5,0,0.8-0.3,0.8-0.8
				C83.8-28.1,83.4-28.5,83-28.5z M32.1-28.5c-0.5,0-0.8,0.3-0.8,0.8s0.4,0.8,0.8,0.8c0.5,0,0.8-0.3,0.8-0.8
				C32.9-28.1,32.5-28.5,32.1-28.5z M49.1-28.5c-0.4,0-0.8,0.3-0.8,0.8s0.3,0.8,0.8,0.8c0.4,0,0.8-0.3,0.8-0.8
				C49.8-28.1,49.5-28.5,49.1-28.5z M-1.8-28.5c-0.4,0-0.8,0.3-0.8,0.8s0.3,0.8,0.8,0.8c0.4,0,0.8-0.3,0.8-0.8
				C-1.1-28.1-1.5-28.5-1.8-28.5z M15.1-28.5c-0.5,0-0.8,0.3-0.8,0.8s0.4,0.8,0.8,0.8c0.5,0,0.8-0.3,0.8-0.8
				C15.9-28.1,15.5-28.5,15.1-28.5z M-35.8-28.5c-0.5,0-0.8,0.3-0.8,0.8s0.3,0.8,0.8,0.8c0.5,0,0.8-0.3,0.8-0.8
				C-35.1-28.1-35.4-28.5-35.8-28.5z M-18.8-28.5c-0.5,0-0.8,0.3-0.8,0.8s0.3,0.8,0.8,0.8c0.5,0,0.8-0.3,0.8-0.8
				C-18.1-28.1-18.4-28.5-18.8-28.5z M201.8-11.5c-0.5,0-0.8,0.3-0.8,0.8c0,0.5,0.3,0.8,0.8,0.8c0.5,0,0.8-0.3,0.8-0.8
				C202.6-11.2,202.2-11.5,201.8-11.5z M218.8-11.5c-0.5,0-0.8,0.3-0.8,0.8c0,0.5,0.3,0.8,0.8,0.8c0.5,0,0.8-0.3,0.8-0.8
				C219.5-11.2,219.2-11.5,218.8-11.5z M167.8-11.5c-0.5,0-0.8,0.3-0.8,0.8c0,0.5,0.4,0.8,0.8,0.8c0.5,0,0.8-0.3,0.8-0.8
				C168.6-11.2,168.3-11.5,167.8-11.5z M184.8-11.5c-0.4,0-0.8,0.3-0.8,0.8c0,0.5,0.3,0.8,0.8,0.8c0.4,0,0.8-0.3,0.8-0.8
				C185.6-11.2,185.2-11.5,184.8-11.5z M133.9-11.5c-0.4,0-0.8,0.3-0.8,0.8c0,0.5,0.3,0.8,0.8,0.8c0.4,0,0.8-0.3,0.8-0.8
				C134.7-11.2,134.3-11.5,133.9-11.5z M150.9-11.5c-0.5,0-0.8,0.3-0.8,0.8c0,0.5,0.4,0.8,0.8,0.8c0.5,0,0.8-0.3,0.8-0.8
				C151.7-11.2,151.3-11.5,150.9-11.5z M100-11.5c-0.5,0-0.8,0.3-0.8,0.8c0,0.5,0.4,0.8,0.8,0.8c0.5,0,0.8-0.3,0.8-0.8
				C100.8-11.2,100.4-11.5,100-11.5z M116.9-11.5c-0.5,0-0.8,0.3-0.8,0.8c0,0.5,0.3,0.8,0.8,0.8c0.5,0,0.8-0.3,0.8-0.8
				C117.7-11.2,117.4-11.5,116.9-11.5z M66-11.5c-0.5,0-0.8,0.3-0.8,0.8c0,0.5,0.3,0.8,0.8,0.8c0.5,0,0.8-0.3,0.8-0.8
				C66.8-11.2,66.5-11.5,66-11.5z M83-11.5c-0.5,0-0.8,0.3-0.8,0.8c0,0.5,0.4,0.8,0.8,0.8c0.5,0,0.8-0.3,0.8-0.8
				C83.8-11.2,83.4-11.5,83-11.5z M32.1-11.5c-0.5,0-0.8,0.3-0.8,0.8c0,0.5,0.4,0.8,0.8,0.8c0.5,0,0.8-0.3,0.8-0.8
				C32.9-11.2,32.5-11.5,32.1-11.5z M49.1-11.5c-0.4,0-0.8,0.3-0.8,0.8c0,0.5,0.3,0.8,0.8,0.8c0.4,0,0.8-0.3,0.8-0.8
				C49.8-11.2,49.5-11.5,49.1-11.5z M-1.8-11.5c-0.4,0-0.8,0.3-0.8,0.8c0,0.5,0.3,0.8,0.8,0.8c0.4,0,0.8-0.3,0.8-0.8
				C-1.1-11.2-1.5-11.5-1.8-11.5z M15.1-11.5c-0.5,0-0.8,0.3-0.8,0.8c0,0.5,0.4,0.8,0.8,0.8c0.5,0,0.8-0.3,0.8-0.8
				C15.9-11.2,15.5-11.5,15.1-11.5z M-35.8-11.5c-0.5,0-0.8,0.3-0.8,0.8c0,0.5,0.3,0.8,0.8,0.8c0.5,0,0.8-0.3,0.8-0.8
				C-35.1-11.2-35.4-11.5-35.8-11.5z M-18.8-11.5c-0.5,0-0.8,0.3-0.8,0.8c0,0.5,0.3,0.8,0.8,0.8c0.5,0,0.8-0.3,0.8-0.8
				C-18.1-11.2-18.4-11.5-18.8-11.5z"/>
		</g>
	</g>
</g>
</svg>
